<?xml version="1.0" standalone="no"?>
<!DOCTYPE svg PUBLIC "-//W3C//DTD SVG 1.1//EN" "http://www.w3.org/Graphics/SVG/1.1/DTD/svg11.dtd" >
<svg xmlns="http://www.w3.org/2000/svg" xmlns:xlink="http://www.w3.org/1999/xlink" version="1.1">
<metadata>
Created by FontForge 20190801 at Thu Apr 27 21:42:26 2006
 By Jimmy Wärting
URW Software, Copyright 1994 by URW
</metadata>
<defs>
<font id="BauerBodD-ReguItal" horiz-adv-x="500" >
  <font-face 
    font-family="Bauer Bodoni D"
    font-weight="400"
    font-style="italic"
    font-stretch="normal"
    units-per-em="1000"
    panose-1="2 0 5 3 8 0 0 9 0 3"
    ascent="800"
    descent="-200"
    x-height="401"
    cap-height="667"
    bbox="-163 -267 1111 906"
    underline-thickness="30"
    underline-position="-82"
    slope="-15"
    unicode-range="U+0005-2122"
  />
<missing-glyph horiz-adv-x="250" 
 />
    <glyph glyph-name=".notdef" horiz-adv-x="250" 
 />
    <glyph glyph-name=".null" horiz-adv-x="0" 
 />
    <glyph glyph-name="nonmarkingreturn" horiz-adv-x="250" 
 />
    <glyph glyph-name="space" unicode=" " horiz-adv-x="250" 
 />
    <glyph glyph-name="space" unicode="&#xa0;" horiz-adv-x="250" 
 />
    <glyph glyph-name="Atilde" unicode="&#xc3;" horiz-adv-x="566" 
d="M-37 15q19 0 32 8.5t29 31.5l433 639h26l-5 -679h62l-4 -15h-233l4 15h76l5 225h-218l-111 -163q-8 -13 -16.5 -29.5t-8.5 -21.5q0 -11 36 -11h37l-4 -15h-163l4 15h19zM387 255l6 320l-214 -320h208zM658 857q-14 -51 -39.5 -79t-60.5 -28q-17 0 -34 5t-44 19t-39.5 18
t-26.5 4q-23 0 -36.5 -9.5t-27.5 -35.5h-15q17 51 43.5 77.5t61.5 26.5q15 0 32 -5t47 -18q29 -14 41.5 -17.5t25.5 -3.5q38 0 57 46h15z" />
    <glyph glyph-name="Aring" unicode="&#xc5;" horiz-adv-x="566" 
d="M-37 15q19 0 32 8.5t29 31.5l433 639h26l-5 -679h62l-4 -15h-233l4 15h76l5 225h-218l-111 -163q-8 -13 -16.5 -29.5t-8.5 -21.5q0 -11 36 -11h37l-4 -15h-163l4 15h19zM387 255l6 320l-214 -320h208zM533 906q31 0 50.5 -19t19.5 -49q0 -23 -10.5 -44.5t-28 -38
t-40 -26.5t-46.5 -10q-30 0 -49.5 19t-19.5 49q0 22 10.5 43.5t28 38.5t39.5 27t46 10zM523 881q-17 0 -33 -7.5t-29 -20t-20.5 -28.5t-7.5 -32q0 -22 14 -36t37 -14q18 0 35 7.5t29.5 19.5t20.5 28t8 33q0 23 -15 36.5t-39 13.5z" />
    <glyph glyph-name="Edieresis" unicode="&#xcb;" horiz-adv-x="614" 
d="M662 667l-26 -184h-18q2 20 2.5 31.5t0.5 19.5q0 57 -25 87.5t-72 30.5h-179l-80 -284h48q51 0 76.5 12.5t33.5 42.5l14 48h15l-56 -251h-15l9 51q3 15 3 25q0 24 -19 40t-48 16h-65l-95 -337h152q29 0 50 1.5t37.5 6t31 11.5t31.5 19q16 12 28.5 24t22 26.5t17 32.5
t13.5 41l8 28h18l-46 -205h-540l5 15h78l179 637h-87l5 15h493zM560 856q16 0 26.5 -10.5t10.5 -26.5q0 -26 -20.5 -46t-45.5 -20q-17 0 -27 10.5t-10 26.5q0 26 20 46t46 20zM376 854q17 0 27 -10t10 -27q0 -25 -20 -45t-46 -20q-16 0 -26 10.5t-10 26.5q0 25 20 45t45 20z
" />
    <glyph glyph-name="Eacute" unicode="&#xc9;" horiz-adv-x="614" 
d="M662 667l-26 -184h-18q2 20 2.5 31.5t0.5 19.5q0 57 -25 87.5t-72 30.5h-179l-80 -284h48q51 0 76.5 12.5t33.5 42.5l14 48h15l-56 -251h-15l9 51q3 15 3 25q0 24 -19 40t-48 16h-65l-95 -337h152q29 0 50 1.5t37.5 6t31 11.5t31.5 19q16 12 28.5 24t22 26.5t17 32.5
t13.5 41l8 28h18l-46 -205h-540l5 15h78l179 637h-87l5 15h493zM457 830q22 31 35.5 42.5t29.5 11.5q15 0 25 -9t10 -23q0 -11 -9.5 -22t-32.5 -27l-116 -80h-18z" />
    <glyph glyph-name="Egrave" unicode="&#xc8;" horiz-adv-x="614" 
d="M662 667l-26 -184h-18q2 20 2.5 31.5t0.5 19.5q0 57 -25 87.5t-72 30.5h-179l-80 -284h48q51 0 76.5 12.5t33.5 42.5l14 48h15l-56 -251h-15l9 51q3 15 3 25q0 24 -19 40t-48 16h-65l-95 -337h152q29 0 50 1.5t37.5 6t31 11.5t31.5 19q16 12 28.5 24t22 26.5t17 32.5
t13.5 41l8 28h18l-46 -205h-540l5 15h78l179 637h-87l5 15h493zM334 799q-22 17 -30 27.5t-8 24.5q0 13 9 21t24 8q19 0 34 -13.5t38 -50.5l55 -93h-21z" />
    <glyph glyph-name="Ecircumflex" unicode="&#xca;" horiz-adv-x="614" 
d="M662 667l-26 -184h-18q2 20 2.5 31.5t0.5 19.5q0 57 -25 87.5t-72 30.5h-179l-80 -284h48q51 0 76.5 12.5t33.5 42.5l14 48h15l-56 -251h-15l9 51q3 15 3 25q0 24 -19 40t-48 16h-65l-95 -337h152q29 0 50 1.5t37.5 6t31 11.5t31.5 19q16 12 28.5 24t22 26.5t17 32.5
t13.5 41l8 28h18l-46 -205h-540l5 15h78l179 637h-87l5 15h493zM455 883h65l68 -160h-19l-90 98l-146 -98h-19z" />
    <glyph glyph-name="Idieresis" unicode="&#xcf;" horiz-adv-x="335" 
d="M428 667l-5 -15h-78l-179 -637h87l-5 -15h-259l5 15h78l179 637h-87l5 15h259zM433 856q16 0 26.5 -10.5t10.5 -26.5q0 -26 -20.5 -46t-45.5 -20q-17 0 -27 10.5t-10 26.5q0 26 20 46t46 20zM275 854q17 0 27 -10t10 -27q0 -25 -20 -45t-46 -20q-16 0 -26 10.5t-10 26.5
q0 25 20 45t45 20z" />
    <glyph glyph-name="Iacute" unicode="&#xcd;" horiz-adv-x="335" 
d="M428 667l-5 -15h-78l-179 -637h87l-5 -15h-259l5 15h78l179 637h-87l5 15h259zM351 830q22 31 35.5 42.5t29.5 11.5q15 0 25 -9t10 -23q0 -11 -9.5 -22t-32.5 -27l-116 -80h-18z" />
    <glyph glyph-name="Igrave" unicode="&#xcc;" horiz-adv-x="335" 
d="M428 667l-5 -15h-78l-179 -637h87l-5 -15h-259l5 15h78l179 637h-87l5 15h259zM235 799q-22 17 -30 27.5t-8 24.5q0 13 9 21t24 8q19 0 34 -13.5t38 -50.5l55 -93h-21z" />
    <glyph glyph-name="Icircumflex" unicode="&#xce;" horiz-adv-x="335" 
d="M428 667l-5 -15h-78l-179 -637h87l-5 -15h-259l5 15h78l179 637h-87l5 15h259zM316 883h65l68 -160h-19l-90 98l-146 -98h-19z" />
    <glyph glyph-name="Ntilde" unicode="&#xd1;" horiz-adv-x="734" 
d="M349 667l228 -562l137 486q3 11 5 21t2 16q0 24 -30 24h-44l4 15h176l-4 -15h-34q-21 0 -32.5 -11t-19.5 -39l-173 -613h-35l-268 648l-158 -560q-6 -23 -6 -34t9.5 -19.5t21.5 -8.5h42l-5 -15h-176l5 15h39q19 0 32 17t24 59l158 561h-86l4 15h184zM702 857
q-14 -51 -39.5 -79t-60.5 -28q-17 0 -34 5t-44 19t-39.5 18t-26.5 4q-23 0 -36.5 -9.5t-27.5 -35.5h-15q17 51 43.5 77.5t61.5 26.5q15 0 32 -5t47 -18q29 -14 41.5 -17.5t25.5 -3.5q38 0 57 46h15z" />
    <glyph glyph-name="Odieresis" unicode="&#xd6;" horiz-adv-x="684" 
d="M439 682q53 0 99 -21.5t79.5 -59.5t53 -89t19.5 -110q0 -49 -12 -98t-34 -94.5t-53 -85t-69 -69.5q-89 -71 -200 -71q-54 0 -99.5 20.5t-78.5 57.5t-51.5 88t-18.5 112q0 46 10.5 92t30.5 89.5t48.5 82.5t64.5 70q98 86 211 86zM431 665q-40 0 -71.5 -12t-57 -39
t-46 -70.5t-39.5 -106.5q-23 -79 -36 -150.5t-13 -123.5q0 -78 43 -120.5t121 -42.5q38 0 73.5 12t56.5 32q19 18 34 40.5t28 54.5t25.5 76.5t26.5 106.5q14 66 20 107t6 76q0 79 -43 119.5t-128 40.5zM595 856q16 0 26.5 -10.5t10.5 -26.5q0 -26 -20.5 -46t-45.5 -20
q-17 0 -27 10.5t-10 26.5q0 26 20 46t46 20zM411 854q17 0 27 -10t10 -27q0 -25 -20 -45t-46 -20q-16 0 -26 10.5t-10 26.5q0 25 20 45t45 20z" />
    <glyph glyph-name="Oacute" unicode="&#xd3;" horiz-adv-x="684" 
d="M439 682q53 0 99 -21.5t79.5 -59.5t53 -89t19.5 -110q0 -49 -12 -98t-34 -94.5t-53 -85t-69 -69.5q-89 -71 -200 -71q-54 0 -99.5 20.5t-78.5 57.5t-51.5 88t-18.5 112q0 46 10.5 92t30.5 89.5t48.5 82.5t64.5 70q98 86 211 86zM431 665q-40 0 -71.5 -12t-57 -39
t-46 -70.5t-39.5 -106.5q-23 -79 -36 -150.5t-13 -123.5q0 -78 43 -120.5t121 -42.5q38 0 73.5 12t56.5 32q19 18 34 40.5t28 54.5t25.5 76.5t26.5 106.5q14 66 20 107t6 76q0 79 -43 119.5t-128 40.5zM512 830q22 31 35.5 42.5t29.5 11.5q15 0 25 -9t10 -23q0 -11 -9.5 -22
t-32.5 -27l-116 -80h-18z" />
    <glyph glyph-name="Ograve" unicode="&#xd2;" horiz-adv-x="684" 
d="M439 682q53 0 99 -21.5t79.5 -59.5t53 -89t19.5 -110q0 -49 -12 -98t-34 -94.5t-53 -85t-69 -69.5q-89 -71 -200 -71q-54 0 -99.5 20.5t-78.5 57.5t-51.5 88t-18.5 112q0 46 10.5 92t30.5 89.5t48.5 82.5t64.5 70q98 86 211 86zM431 665q-40 0 -71.5 -12t-57 -39
t-46 -70.5t-39.5 -106.5q-23 -79 -36 -150.5t-13 -123.5q0 -78 43 -120.5t121 -42.5q38 0 73.5 12t56.5 32q19 18 34 40.5t28 54.5t25.5 76.5t26.5 106.5q14 66 20 107t6 76q0 79 -43 119.5t-128 40.5zM396 799q-22 17 -30 27.5t-8 24.5q0 13 9 21t24 8q19 0 34 -13.5
t38 -50.5l55 -93h-21z" />
    <glyph glyph-name="Ocircumflex" unicode="&#xd4;" horiz-adv-x="684" 
d="M439 682q53 0 99 -21.5t79.5 -59.5t53 -89t19.5 -110q0 -49 -12 -98t-34 -94.5t-53 -85t-69 -69.5q-89 -71 -200 -71q-54 0 -99.5 20.5t-78.5 57.5t-51.5 88t-18.5 112q0 46 10.5 92t30.5 89.5t48.5 82.5t64.5 70q98 86 211 86zM431 665q-40 0 -71.5 -12t-57 -39
t-46 -70.5t-39.5 -106.5q-23 -79 -36 -150.5t-13 -123.5q0 -78 43 -120.5t121 -42.5q38 0 73.5 12t56.5 32q19 18 34 40.5t28 54.5t25.5 76.5t26.5 106.5q14 66 20 107t6 76q0 79 -43 119.5t-128 40.5zM471 883h65l68 -160h-19l-90 98l-146 -98h-19z" />
    <glyph glyph-name="Otilde" unicode="&#xd5;" horiz-adv-x="684" 
d="M439 682q53 0 99 -21.5t79.5 -59.5t53 -89t19.5 -110q0 -49 -12 -98t-34 -94.5t-53 -85t-69 -69.5q-89 -71 -200 -71q-54 0 -99.5 20.5t-78.5 57.5t-51.5 88t-18.5 112q0 46 10.5 92t30.5 89.5t48.5 82.5t64.5 70q98 86 211 86zM431 665q-40 0 -71.5 -12t-57 -39
t-46 -70.5t-39.5 -106.5q-23 -79 -36 -150.5t-13 -123.5q0 -78 43 -120.5t121 -42.5q38 0 73.5 12t56.5 32q19 18 34 40.5t28 54.5t25.5 76.5t26.5 106.5q14 66 20 107t6 76q0 79 -43 119.5t-128 40.5zM651 857q-14 -51 -39.5 -79t-60.5 -28q-17 0 -34 5t-44 19t-39.5 18
t-26.5 4q-23 0 -36.5 -9.5t-27.5 -35.5h-15q17 51 43.5 77.5t61.5 26.5q15 0 32 -5t47 -18q29 -14 41.5 -17.5t25.5 -3.5q38 0 57 46h15z" />
    <glyph glyph-name="Scaron" unicode="&#x160;" horiz-adv-x="533" 
d="M510 462h-17l9 41q4 15 4 35q0 27 -12 50.5t-33.5 41t-50.5 27t-63 9.5t-64 -10t-52.5 -28t-35.5 -42t-13 -51q0 -26 14 -49.5t37 -37.5q8 -5 13.5 -8t15.5 -8t27.5 -12.5t49.5 -21.5q33 -14 52 -22.5t31 -15.5t20 -14.5t18 -19.5q37 -43 37 -104q0 -49 -19.5 -92
t-53.5 -75t-79 -50.5t-97 -18.5q-33 0 -67 9.5t-77 30.5q-20 10 -29 13t-18 3q-16 0 -25 -8t-20 -34h-17q14 43 23 71t16 52.5t13.5 50.5t15.5 67h18l-8 -40q-3 -18 -3 -40q0 -34 14 -63t38.5 -50t58.5 -32.5t74 -11.5q39 0 72 12t57 33t37.5 50t13.5 63q0 38 -15.5 64
t-50.5 46q-11 6 -25 12t-46 19q-47 18 -77.5 35.5t-48.5 38t-25 46t-7 60.5q0 43 16 79.5t44.5 63.5t67 42t84.5 15q18 0 33.5 -2t31.5 -7t35 -14t46 -23q10 -6 23 -6q19 0 29 31h16zM285 882h18l91 -98l146 100h19l-142 -161h-66z" />
    <glyph glyph-name="Udieresis" unicode="&#xdc;" horiz-adv-x="719" 
d="M413 667l-5 -15h-78l-128 -456q-12 -41 -12 -78q0 -56 40.5 -86.5t113.5 -30.5q58 0 106.5 15.5t78.5 42.5q45 42 75 146l111 393q6 21 6 30q0 10 -9 17t-21 7h-57l4 15h185l-4 -15h-28q-44 0 -57 -44l-118 -422q-30 -104 -89 -148q-34 -26 -84 -39.5t-108 -13.5
q-51 0 -94 11.5t-74.5 32t-49.5 48.5t-18 60q0 23 9 55l130 460h-87l4 15h258zM640 856q16 0 26.5 -10.5t10.5 -26.5q0 -26 -20.5 -46t-45.5 -20q-17 0 -27 10.5t-10 26.5q0 26 20 46t46 20zM456 854q17 0 27 -10t10 -27q0 -25 -20 -45t-46 -20q-16 0 -26 10.5t-10 26.5
q0 25 20 45t45 20z" />
    <glyph glyph-name="Uacute" unicode="&#xda;" horiz-adv-x="719" 
d="M413 667l-5 -15h-78l-128 -456q-12 -41 -12 -78q0 -56 40.5 -86.5t113.5 -30.5q58 0 106.5 15.5t78.5 42.5q45 42 75 146l111 393q6 21 6 30q0 10 -9 17t-21 7h-57l4 15h185l-4 -15h-28q-44 0 -57 -44l-118 -422q-30 -104 -89 -148q-34 -26 -84 -39.5t-108 -13.5
q-51 0 -94 11.5t-74.5 32t-49.5 48.5t-18 60q0 23 9 55l130 460h-87l4 15h258zM550 830q22 31 35.5 42.5t29.5 11.5q15 0 25 -9t10 -23q0 -11 -9.5 -22t-32.5 -27l-116 -80h-18z" />
    <glyph glyph-name="Ugrave" unicode="&#xd9;" horiz-adv-x="719" 
d="M413 667l-5 -15h-78l-128 -456q-12 -41 -12 -78q0 -56 40.5 -86.5t113.5 -30.5q58 0 106.5 15.5t78.5 42.5q45 42 75 146l111 393q6 21 6 30q0 10 -9 17t-21 7h-57l4 15h185l-4 -15h-28q-44 0 -57 -44l-118 -422q-30 -104 -89 -148q-34 -26 -84 -39.5t-108 -13.5
q-51 0 -94 11.5t-74.5 32t-49.5 48.5t-18 60q0 23 9 55l130 460h-87l4 15h258zM434 799q-22 17 -30 27.5t-8 24.5q0 13 9 21t24 8q19 0 34 -13.5t38 -50.5l55 -93h-21z" />
    <glyph glyph-name="Ucircumflex" unicode="&#xdb;" horiz-adv-x="719" 
d="M413 667l-5 -15h-78l-128 -456q-12 -41 -12 -78q0 -56 40.5 -86.5t113.5 -30.5q58 0 106.5 15.5t78.5 42.5q45 42 75 146l111 393q6 21 6 30q0 10 -9 17t-21 7h-57l4 15h185l-4 -15h-28q-44 0 -57 -44l-118 -422q-30 -104 -89 -148q-34 -26 -84 -39.5t-108 -13.5
q-51 0 -94 11.5t-74.5 32t-49.5 48.5t-18 60q0 23 9 55l130 460h-87l4 15h258zM535 883h65l68 -160h-19l-90 98l-146 -98h-19z" />
    <glyph glyph-name="Yacute" unicode="&#xdd;" horiz-adv-x="480" 
d="M348 667l-4 -15h-85l35 -353l231 305q15 18 15 34q0 14 -16 14h-53l4 15h145l-5 -15h-20q-8 0 -14.5 -5t-16.5 -18l-267 -354l-74 -260h87l-5 -15h-257l5 15h77l78 275l-44 362h-69l4 15h249zM430 830q22 31 35.5 42.5t29.5 11.5q15 0 25 -9t10 -23q0 -11 -9.5 -22
t-32.5 -27l-116 -80h-18z" />
    <glyph glyph-name="Zcaron" horiz-adv-x="578" 
d="M651 667l-531 -652h190q33 0 58 2.5t45 9t36.5 17.5t33.5 27q22 22 41.5 52.5t26.5 53.5l6 21h14l-56 -198h-523l535 652h-182q-42 0 -79 -13t-66 -39q-22 -19 -36.5 -42t-29.5 -62l-8 -20h-15l54 191h486zM308 882h18l91 -98l146 100h19l-142 -161h-66z" />
    <glyph glyph-name="Ydieresis" unicode="&#x178;" horiz-adv-x="480" 
d="M348 667l-4 -15h-85l35 -353l231 305q15 18 15 34q0 14 -16 14h-53l4 15h145l-5 -15h-20q-8 0 -14.5 -5t-16.5 -18l-267 -354l-74 -260h87l-5 -15h-257l5 15h77l78 275l-44 362h-69l4 15h249zM513 856q16 0 26.5 -10.5t10.5 -26.5q0 -26 -20.5 -46t-45.5 -20
q-17 0 -27 10.5t-10 26.5q0 26 20 46t46 20zM329 854q17 0 27 -10t10 -27q0 -25 -20 -45t-46 -20q-16 0 -26 10.5t-10 26.5q0 25 20 45t45 20z" />
    <glyph glyph-name="adieresis" unicode="&#xe4;" horiz-adv-x="544" 
d="M410 74q-5 -20 -5 -34q0 -11 5.5 -19t13.5 -8q17 0 37.5 20t46.5 63l15 -8q-9 -12 -14.5 -19.5t-9 -12.5t-6 -8.5t-5.5 -7.5q-38 -50 -89 -50q-32 0 -48.5 19.5t-17.5 54.5v10q-35 -46 -68 -66t-74 -20q-33 0 -62.5 13.5t-51.5 37t-35 54.5t-13 66q0 51 26 99t76 86
q41 32 87 49.5t88 17.5q80 0 100 -76l15 53h78zM397 300v4q0 11 -3.5 23t-8.5 23q-22 44 -78 44q-111 0 -163 -120q-9 -22 -17 -46.5t-13.5 -48t-9 -44.5t-3.5 -36q0 -45 25.5 -70.5t70.5 -25.5q24 0 47.5 10t44.5 27.5t36.5 41t23.5 49.5zM451 596q15 0 25 -10t10 -25
q0 -24 -19.5 -43t-43.5 -19q-14 0 -24 10t-10 25q0 12 5.5 23t14 20t19.5 14t23 5zM280 595q15 0 24.5 -9.5t9.5 -24.5q0 -23 -19 -42t-42 -19q-15 0 -24.5 9.5t-9.5 24.5q0 23 19 42t42 19z" />
    <glyph glyph-name="aacute" unicode="&#xe1;" horiz-adv-x="544" 
d="M410 74q-5 -20 -5 -34q0 -11 5.5 -19t13.5 -8q17 0 37.5 20t46.5 63l15 -8q-9 -12 -14.5 -19.5t-9 -12.5t-6 -8.5t-5.5 -7.5q-38 -50 -89 -50q-32 0 -48.5 19.5t-17.5 54.5v10q-35 -46 -68 -66t-74 -20q-33 0 -62.5 13.5t-51.5 37t-35 54.5t-13 66q0 51 26 99t76 86
q41 32 87 49.5t88 17.5q80 0 100 -76l15 53h78zM397 300v4q0 11 -3.5 23t-8.5 23q-22 44 -78 44q-111 0 -163 -120q-9 -22 -17 -46.5t-13.5 -48t-9 -44.5t-3.5 -36q0 -45 25.5 -70.5t70.5 -25.5q24 0 47.5 10t44.5 27.5t36.5 41t23.5 49.5zM291 457l94 135q12 18 20.5 29.5
t16 17.5t14.5 8t16 2q15 0 25.5 -9t10.5 -22q0 -10 -6.5 -19t-23.5 -23l-148 -119h-19z" />
    <glyph glyph-name="agrave" unicode="&#xe0;" horiz-adv-x="544" 
d="M410 74q-5 -20 -5 -34q0 -11 5.5 -19t13.5 -8q17 0 37.5 20t46.5 63l15 -8q-9 -12 -14.5 -19.5t-9 -12.5t-6 -8.5t-5.5 -7.5q-38 -50 -89 -50q-32 0 -48.5 19.5t-17.5 54.5v10q-35 -46 -68 -66t-74 -20q-33 0 -62.5 13.5t-51.5 37t-35 54.5t-13 66q0 51 26 99t76 86
q41 32 87 49.5t88 17.5q80 0 100 -76l15 53h78zM397 300v4q0 11 -3.5 23t-8.5 23q-22 44 -78 44q-111 0 -163 -120q-9 -22 -17 -46.5t-13.5 -48t-9 -44.5t-3.5 -36q0 -45 25.5 -70.5t70.5 -25.5q24 0 47.5 10t44.5 27.5t36.5 41t23.5 49.5zM379 457l-86 95q-24 25 -33 39
t-9 26q0 13 10 21.5t24 8.5q10 0 17 -2t13 -8.5t12.5 -18.5t14.5 -31l55 -130h-18z" />
    <glyph glyph-name="acircumflex" unicode="&#xe2;" horiz-adv-x="544" 
d="M410 74q-5 -20 -5 -34q0 -11 5.5 -19t13.5 -8q17 0 37.5 20t46.5 63l15 -8q-9 -12 -14.5 -19.5t-9 -12.5t-6 -8.5t-5.5 -7.5q-38 -50 -89 -50q-32 0 -48.5 19.5t-17.5 54.5v10q-35 -46 -68 -66t-74 -20q-33 0 -62.5 13.5t-51.5 37t-35 54.5t-13 66q0 51 26 99t76 86
q41 32 87 49.5t88 17.5q80 0 100 -76l15 53h78zM397 300v4q0 11 -3.5 23t-8.5 23q-22 44 -78 44q-111 0 -163 -120q-9 -22 -17 -46.5t-13.5 -48t-9 -44.5t-3.5 -36q0 -45 25.5 -70.5t70.5 -25.5q24 0 47.5 10t44.5 27.5t36.5 41t23.5 49.5zM342 647h61l63 -190h-16l-89 124
l-155 -124h-16z" />
    <glyph glyph-name="atilde" unicode="&#xe3;" horiz-adv-x="544" 
d="M410 74q-5 -20 -5 -34q0 -11 5.5 -19t13.5 -8q17 0 37.5 20t46.5 63l15 -8q-9 -12 -14.5 -19.5t-9 -12.5t-6 -8.5t-5.5 -7.5q-38 -50 -89 -50q-32 0 -48.5 19.5t-17.5 54.5v10q-35 -46 -68 -66t-74 -20q-33 0 -62.5 13.5t-51.5 37t-35 54.5t-13 66q0 51 26 99t76 86
q41 32 87 49.5t88 17.5q80 0 100 -76l15 53h78zM397 300v4q0 11 -3.5 23t-8.5 23q-22 44 -78 44q-111 0 -163 -120q-9 -22 -17 -46.5t-13.5 -48t-9 -44.5t-3.5 -36q0 -45 25.5 -70.5t70.5 -25.5q24 0 47.5 10t44.5 27.5t36.5 41t23.5 49.5zM516 604q-14 -51 -41.5 -81
t-61.5 -30q-8 0 -15.5 1t-18 5t-26.5 10.5t-41 17.5q-19 9 -29.5 12t-21.5 3q-17 0 -28.5 -9.5t-26.5 -37.5h-15q38 104 105 104q16 0 32 -5t49 -19q31 -13 44.5 -17.5t24.5 -4.5q36 0 53 51h17z" />
    <glyph glyph-name="aring" unicode="&#xe5;" horiz-adv-x="544" 
d="M410 74q-5 -20 -5 -34q0 -11 5.5 -19t13.5 -8q17 0 37.5 20t46.5 63l15 -8q-9 -12 -14.5 -19.5t-9 -12.5t-6 -8.5t-5.5 -7.5q-38 -50 -89 -50q-32 0 -48.5 19.5t-17.5 54.5v10q-35 -46 -68 -66t-74 -20q-33 0 -62.5 13.5t-51.5 37t-35 54.5t-13 66q0 51 26 99t76 86
q41 32 87 49.5t88 17.5q80 0 100 -76l15 53h78zM397 300v4q0 11 -3.5 23t-8.5 23q-22 44 -78 44q-111 0 -163 -120q-9 -22 -17 -46.5t-13.5 -48t-9 -44.5t-3.5 -36q0 -45 25.5 -70.5t70.5 -25.5q24 0 47.5 10t44.5 27.5t36.5 41t23.5 49.5zM375 646q31 0 50.5 -19t19.5 -49
q0 -23 -10.5 -44.5t-28 -38t-40 -26.5t-46.5 -10q-30 0 -49.5 19t-19.5 49q0 22 10.5 43.5t28 38.5t39.5 27t46 10zM365 621q-17 0 -32.5 -7.5t-28.5 -20t-20.5 -28t-7.5 -31.5q0 -22 14 -36t37 -14q18 0 34.5 7.5t29 19.5t20.5 28t8 33q0 22 -15 35.5t-39 13.5z" />
    <glyph glyph-name="edieresis" unicode="&#xeb;" horiz-adv-x="423" 
d="M393 104q-14 -22 -22.5 -33.5t-22.5 -23.5q-29 -27 -67 -42.5t-76 -15.5q-36 0 -68 13.5t-56 37t-38 54.5t-14 67q0 51 28.5 100.5t82.5 90.5q77 59 153 59q57 0 91 -25.5t34 -67.5q0 -26 -14.5 -47t-41.5 -36t-64.5 -23.5t-82.5 -8.5q-26 0 -46.5 2.5t-48.5 8.5
q-8 -33 -11.5 -58t-3.5 -51q0 -52 23 -76t72 -24q55 0 97.5 25t82.5 82zM124 229q30 -6 50 -8.5t44 -2.5q65 0 101 29t36 80q0 67 -71 67q-58 0 -99.5 -43t-60.5 -122zM410 596q15 0 25 -10t10 -25q0 -24 -19.5 -43t-43.5 -19q-14 0 -24 10t-10 25q0 12 5.5 23t14 20
t19.5 14t23 5zM239 595q15 0 24.5 -9.5t9.5 -24.5q0 -23 -19 -42t-42 -19q-15 0 -24.5 9.5t-9.5 24.5q0 23 19 42t42 19z" />
    <glyph glyph-name="eacute" unicode="&#xe9;" horiz-adv-x="423" 
d="M393 104q-14 -22 -22.5 -33.5t-22.5 -23.5q-29 -27 -67 -42.5t-76 -15.5q-36 0 -68 13.5t-56 37t-38 54.5t-14 67q0 51 28.5 100.5t82.5 90.5q77 59 153 59q57 0 91 -25.5t34 -67.5q0 -26 -14.5 -47t-41.5 -36t-64.5 -23.5t-82.5 -8.5q-26 0 -46.5 2.5t-48.5 8.5
q-8 -33 -11.5 -58t-3.5 -51q0 -52 23 -76t72 -24q55 0 97.5 25t82.5 82zM124 229q30 -6 50 -8.5t44 -2.5q65 0 101 29t36 80q0 67 -71 67q-58 0 -99.5 -43t-60.5 -122zM230 457l94 135q12 18 20.5 29.5t16 17.5t14.5 8t16 2q15 0 25.5 -9t10.5 -22q0 -10 -6.5 -19t-23.5 -23
l-148 -119h-19z" />
    <glyph glyph-name="egrave" unicode="&#xe8;" horiz-adv-x="423" 
d="M393 104q-14 -22 -22.5 -33.5t-22.5 -23.5q-29 -27 -67 -42.5t-76 -15.5q-36 0 -68 13.5t-56 37t-38 54.5t-14 67q0 51 28.5 100.5t82.5 90.5q77 59 153 59q57 0 91 -25.5t34 -67.5q0 -26 -14.5 -47t-41.5 -36t-64.5 -23.5t-82.5 -8.5q-26 0 -46.5 2.5t-48.5 8.5
q-8 -33 -11.5 -58t-3.5 -51q0 -52 23 -76t72 -24q55 0 97.5 25t82.5 82zM124 229q30 -6 50 -8.5t44 -2.5q65 0 101 29t36 80q0 67 -71 67q-58 0 -99.5 -43t-60.5 -122zM318 457l-86 95q-24 25 -33 39t-9 26q0 13 10 21.5t24 8.5q10 0 17 -2t13 -8.5t12.5 -18.5t14.5 -31
l55 -130h-18z" />
    <glyph glyph-name="ecircumflex" unicode="&#xea;" horiz-adv-x="423" 
d="M393 104q-14 -22 -22.5 -33.5t-22.5 -23.5q-29 -27 -67 -42.5t-76 -15.5q-36 0 -68 13.5t-56 37t-38 54.5t-14 67q0 51 28.5 100.5t82.5 90.5q77 59 153 59q57 0 91 -25.5t34 -67.5q0 -26 -14.5 -47t-41.5 -36t-64.5 -23.5t-82.5 -8.5q-26 0 -46.5 2.5t-48.5 8.5
q-8 -33 -11.5 -58t-3.5 -51q0 -52 23 -76t72 -24q55 0 97.5 25t82.5 82zM124 229q30 -6 50 -8.5t44 -2.5q65 0 101 29t36 80q0 67 -71 67q-58 0 -99.5 -43t-60.5 -122zM301 647h61l63 -190h-16l-89 124l-155 -124h-16z" />
    <glyph glyph-name="idieresis" unicode="&#xef;" horiz-adv-x="253" 
d="M124 388q36 0 54.5 6t38.5 24l-96 -339q-5 -18 -6.5 -24.5t-1.5 -12.5q0 -28 24 -28q21 0 48.5 23t53.5 62l12 -9q-30 -48 -66 -74t-74 -26q-30 0 -50 19.5t-20 50.5v7.5t1 8t3 12t6 19.5l75 266h-60l4 15h54zM306 596q15 0 25 -10t10 -25q0 -24 -19.5 -43t-43.5 -19
q-14 0 -24 10t-10 25q0 12 5.5 23t14 20t19.5 14t23 5zM161 595q15 0 24.5 -9.5t9.5 -24.5q0 -23 -19 -42t-42 -19q-15 0 -24.5 9.5t-9.5 24.5q0 23 19 42t42 19z" />
    <glyph glyph-name="iacute" unicode="&#xed;" horiz-adv-x="253" 
d="M124 388q36 0 54.5 6t38.5 24l-96 -339q-5 -18 -6.5 -24.5t-1.5 -12.5q0 -28 24 -28q21 0 48.5 23t53.5 62l12 -9q-30 -48 -66 -74t-74 -26q-30 0 -50 19.5t-20 50.5v7.5t1 8t3 12t6 19.5l75 266h-60l4 15h54zM159 457l94 135q12 18 20.5 29.5t16 17.5t14.5 8t16 2
q15 0 25.5 -9t10.5 -22q0 -10 -6.5 -19t-23.5 -23l-148 -119h-19z" />
    <glyph glyph-name="igrave" unicode="&#xec;" horiz-adv-x="253" 
d="M124 388q36 0 54.5 6t38.5 24l-96 -339q-5 -18 -6.5 -24.5t-1.5 -12.5q0 -28 24 -28q21 0 48.5 23t53.5 62l12 -9q-30 -48 -66 -74t-74 -26q-30 0 -50 19.5t-20 50.5v7.5t1 8t3 12t6 19.5l75 266h-60l4 15h54zM228 457l-78 95q-21 25 -29 39t-8 26q0 13 9 21.5t22 8.5
q21 0 33 -20q2 -3 3.5 -5.5t3 -6.5t4 -10.5t6.5 -17.5l50 -130h-16z" />
    <glyph glyph-name="icircumflex" unicode="&#xee;" horiz-adv-x="253" 
d="M124 388q36 0 54.5 6t38.5 24l-96 -339q-5 -18 -6.5 -24.5t-1.5 -12.5q0 -28 24 -28q21 0 48.5 23t53.5 62l12 -9q-30 -48 -66 -74t-74 -26q-30 0 -50 19.5t-20 50.5v7.5t1 8t3 12t6 19.5l75 266h-60l4 15h54zM210 647h61l49 -190h-16l-75 124l-141 -124h-17z" />
    <glyph glyph-name="ntilde" unicode="&#xf1;" horiz-adv-x="564" 
d="M150 388q23 0 39.5 6.5t38.5 23.5l-40 -142q44 62 101 98.5t111 36.5q48 0 75 -23.5t27 -65.5q0 -20 -6 -36l-70 -209q-3 -11 -5 -21t-2 -18q0 -11 6 -17.5t14 -6.5q17 0 41.5 23.5t49.5 64.5l14 -8q-35 -55 -66 -80t-64 -25q-30 0 -48 18t-18 49q0 14 3 28t8 31l70 207
q6 16 6 29q0 37 -42 37q-58 0 -122 -49q-38 -29 -65.5 -64t-35.5 -64l-60 -211h-77l105 373h-60l5 15h67zM526 604q-14 -51 -41.5 -81t-61.5 -30q-8 0 -15.5 1t-18 5t-26.5 10.5t-41 17.5q-19 9 -29.5 12t-21.5 3q-17 0 -28.5 -9.5t-26.5 -37.5h-15q38 104 105 104
q16 0 32 -5t49 -19q31 -13 44.5 -17.5t24.5 -4.5q36 0 53 51h17z" />
    <glyph glyph-name="odieresis" unicode="&#xf6;" horiz-adv-x="476" 
d="M290 410q36 0 66 -12t51.5 -33.5t34 -51t12.5 -63.5q0 -52 -21 -99.5t-56 -83.5t-81.5 -57t-97.5 -21q-36 0 -67 12.5t-53.5 35t-35 53t-12.5 66.5q0 51 21 97.5t56.5 81t82.5 55t100 20.5zM280 393q-51 0 -82.5 -28.5t-54.5 -95.5q-42 -120 -42 -174q0 -42 25.5 -65.5
t71.5 -23.5q51 0 83 25.5t53 83.5q24 65 37.5 118t13.5 82q0 38 -27 58t-78 20zM417 596q15 0 25 -10t10 -25q0 -24 -19.5 -43t-43.5 -19q-14 0 -24 10t-10 25q0 12 5.5 23t14 20t19.5 14t23 5zM246 595q15 0 24.5 -9.5t9.5 -24.5q0 -23 -19 -42t-42 -19q-15 0 -24.5 9.5
t-9.5 24.5q0 23 19 42t42 19z" />
    <glyph glyph-name="oacute" unicode="&#xf3;" horiz-adv-x="476" 
d="M290 410q36 0 66 -12t51.5 -33.5t34 -51t12.5 -63.5q0 -52 -21 -99.5t-56 -83.5t-81.5 -57t-97.5 -21q-36 0 -67 12.5t-53.5 35t-35 53t-12.5 66.5q0 51 21 97.5t56.5 81t82.5 55t100 20.5zM280 393q-51 0 -82.5 -28.5t-54.5 -95.5q-42 -120 -42 -174q0 -42 25.5 -65.5
t71.5 -23.5q51 0 83 25.5t53 83.5q24 65 37.5 118t13.5 82q0 38 -27 58t-78 20zM257 457l94 135q12 18 20.5 29.5t16 17.5t14.5 8t16 2q15 0 25.5 -9t10.5 -22q0 -10 -6.5 -19t-23.5 -23l-148 -119h-19z" />
    <glyph glyph-name="ograve" unicode="&#xf2;" horiz-adv-x="476" 
d="M290 410q36 0 66 -12t51.5 -33.5t34 -51t12.5 -63.5q0 -52 -21 -99.5t-56 -83.5t-81.5 -57t-97.5 -21q-36 0 -67 12.5t-53.5 35t-35 53t-12.5 66.5q0 51 21 97.5t56.5 81t82.5 55t100 20.5zM280 393q-51 0 -82.5 -28.5t-54.5 -95.5q-42 -120 -42 -174q0 -42 25.5 -65.5
t71.5 -23.5q51 0 83 25.5t53 83.5q24 65 37.5 118t13.5 82q0 38 -27 58t-78 20zM345 457l-86 95q-24 25 -33 39t-9 26q0 13 10 21.5t24 8.5q10 0 17 -2t13 -8.5t12.5 -18.5t14.5 -31l55 -130h-18z" />
    <glyph glyph-name="ocircumflex" unicode="&#xf4;" horiz-adv-x="476" 
d="M290 410q36 0 66 -12t51.5 -33.5t34 -51t12.5 -63.5q0 -52 -21 -99.5t-56 -83.5t-81.5 -57t-97.5 -21q-36 0 -67 12.5t-53.5 35t-35 53t-12.5 66.5q0 51 21 97.5t56.5 81t82.5 55t100 20.5zM280 393q-51 0 -82.5 -28.5t-54.5 -95.5q-42 -120 -42 -174q0 -42 25.5 -65.5
t71.5 -23.5q51 0 83 25.5t53 83.5q24 65 37.5 118t13.5 82q0 38 -27 58t-78 20zM308 647h61l63 -190h-16l-89 124l-155 -124h-16z" />
    <glyph glyph-name="otilde" unicode="&#xf5;" horiz-adv-x="476" 
d="M290 410q36 0 66 -12t51.5 -33.5t34 -51t12.5 -63.5q0 -52 -21 -99.5t-56 -83.5t-81.5 -57t-97.5 -21q-36 0 -67 12.5t-53.5 35t-35 53t-12.5 66.5q0 51 21 97.5t56.5 81t82.5 55t100 20.5zM280 393q-51 0 -82.5 -28.5t-54.5 -95.5q-42 -120 -42 -174q0 -42 25.5 -65.5
t71.5 -23.5q51 0 83 25.5t53 83.5q24 65 37.5 118t13.5 82q0 38 -27 58t-78 20zM482 604q-14 -51 -41.5 -81t-61.5 -30q-8 0 -15.5 1t-18 5t-26.5 10.5t-41 17.5q-19 9 -29.5 12t-21.5 3q-17 0 -28.5 -9.5t-26.5 -37.5h-15q38 104 105 104q16 0 32 -5t49 -19
q31 -13 44.5 -17.5t24.5 -4.5q36 0 53 51h17z" />
    <glyph glyph-name="scaron" unicode="&#x161;" horiz-adv-x="366" 
d="M54 144q17 0 28.5 -12.5t11.5 -30.5q0 -28 -34 -42q-12 -5 -12 -14q0 -15 28 -26.5t64 -11.5q46 0 74 22.5t28 59.5q0 15 -4 27.5t-15 24.5t-29.5 25t-47.5 30q-55 32 -55 87q0 26 12.5 49.5t34 41t49.5 28t59 10.5q23 0 43.5 -6t35.5 -16.5t24 -24.5t9 -30
q0 -20 -13 -33.5t-32 -13.5t-31 12t-12 30q0 14 5.5 22t20.5 17q6 1 6 8q0 6 -16.5 11.5t-35.5 5.5q-46 0 -75.5 -19.5t-29.5 -50.5q0 -26 22 -45q4 -4 9.5 -7t24.5 -13q3 -2 9.5 -5.5t14.5 -8t15 -9t11 -6.5q29 -18 46 -46.5t17 -58.5q0 -29 -13.5 -53.5t-36.5 -42.5
t-54.5 -28.5t-67.5 -10.5q-30 0 -55 7.5t-43.5 20.5t-29 31t-10.5 39q0 25 14 40.5t36 15.5zM166 647h16l88 -123l156 123h18l-155 -190h-61z" />
    <glyph glyph-name="udieresis" unicode="&#xfc;" horiz-adv-x="552" 
d="M421 82q-3 -12 -5 -18.5t-3 -10t-1 -6v-5.5q0 -23 20 -23t39.5 17t48.5 62l11 -9q-30 -52 -58.5 -75.5t-63.5 -23.5q-31 0 -49 17.5t-18 48.5q0 13 3 27t12 44q-28 -38 -53 -64t-50 -42.5t-51.5 -23.5t-56.5 -7q-46 0 -72.5 20.5t-26.5 55.5v10t1.5 9.5t4 15t7.5 26.5
l69 246h-60l4 15h60q52 0 85 30l-82 -291l-11 -39q-9 -33 -9 -45q0 -16 11 -25.5t30 -9.5q38 0 78.5 22.5t75.5 63.5q16 19 27.5 33.5t18.5 26t11.5 22t7.5 21.5l54 191h77zM455 596q15 0 25 -10t10 -25q0 -24 -19.5 -43t-43.5 -19q-14 0 -24 10t-10 25q0 12 5.5 23t14 20
t19.5 14t23 5zM284 595q15 0 24.5 -9.5t9.5 -24.5q0 -23 -19 -42t-42 -19q-15 0 -24.5 9.5t-9.5 24.5q0 23 19 42t42 19z" />
    <glyph glyph-name="uacute" unicode="&#xfa;" horiz-adv-x="552" 
d="M421 82q-3 -12 -5 -18.5t-3 -10t-1 -6v-5.5q0 -23 20 -23t39.5 17t48.5 62l11 -9q-30 -52 -58.5 -75.5t-63.5 -23.5q-31 0 -49 17.5t-18 48.5q0 13 3 27t12 44q-28 -38 -53 -64t-50 -42.5t-51.5 -23.5t-56.5 -7q-46 0 -72.5 20.5t-26.5 55.5v10t1.5 9.5t4 15t7.5 26.5
l69 246h-60l4 15h60q52 0 85 30l-82 -291l-11 -39q-9 -33 -9 -45q0 -16 11 -25.5t30 -9.5q38 0 78.5 22.5t75.5 63.5q16 19 27.5 33.5t18.5 26t11.5 22t7.5 21.5l54 191h77zM295 457l94 135q12 18 20.5 29.5t16 17.5t14.5 8t16 2q15 0 25.5 -9t10.5 -22q0 -10 -6.5 -19
t-23.5 -23l-148 -119h-19z" />
    <glyph glyph-name="ugrave" unicode="&#xf9;" horiz-adv-x="552" 
d="M421 82q-3 -12 -5 -18.5t-3 -10t-1 -6v-5.5q0 -23 20 -23t39.5 17t48.5 62l11 -9q-30 -52 -58.5 -75.5t-63.5 -23.5q-31 0 -49 17.5t-18 48.5q0 13 3 27t12 44q-28 -38 -53 -64t-50 -42.5t-51.5 -23.5t-56.5 -7q-46 0 -72.5 20.5t-26.5 55.5v10t1.5 9.5t4 15t7.5 26.5
l69 246h-60l4 15h60q52 0 85 30l-82 -291l-11 -39q-9 -33 -9 -45q0 -16 11 -25.5t30 -9.5q38 0 78.5 22.5t75.5 63.5q16 19 27.5 33.5t18.5 26t11.5 22t7.5 21.5l54 191h77zM383 457l-86 95q-24 25 -33 39t-9 26q0 13 10 21.5t24 8.5q10 0 17 -2t13 -8.5t12.5 -18.5
t14.5 -31l55 -130h-18z" />
    <glyph glyph-name="ucircumflex" unicode="&#xfb;" horiz-adv-x="552" 
d="M421 82q-3 -12 -5 -18.5t-3 -10t-1 -6v-5.5q0 -23 20 -23t39.5 17t48.5 62l11 -9q-30 -52 -58.5 -75.5t-63.5 -23.5q-31 0 -49 17.5t-18 48.5q0 13 3 27t12 44q-28 -38 -53 -64t-50 -42.5t-51.5 -23.5t-56.5 -7q-46 0 -72.5 20.5t-26.5 55.5v10t1.5 9.5t4 15t7.5 26.5
l69 246h-60l4 15h60q52 0 85 30l-82 -291l-11 -39q-9 -33 -9 -45q0 -16 11 -25.5t30 -9.5q38 0 78.5 22.5t75.5 63.5q16 19 27.5 33.5t18.5 26t11.5 22t7.5 21.5l54 191h77zM346 647h61l63 -190h-16l-89 124l-155 -124h-16z" />
    <glyph glyph-name="yacute" unicode="&#xfd;" horiz-adv-x="469" 
d="M376 300q35 60 60.5 85t52.5 25q19 0 31.5 -14t12.5 -35t-12.5 -35t-31.5 -14q-14 0 -25 9.5t-11 22.5q0 5 1.5 11.5t4.5 10.5q1 2 1 4q0 4 -4 4q-7 0 -22 -16.5t-30 -40.5q-5 -8 -10.5 -17t-18.5 -32t-38 -67.5t-70 -124.5q-49 -88 -87.5 -146t-72.5 -93t-66.5 -49.5
t-69.5 -14.5q-33 0 -53.5 16.5t-20.5 42.5q0 19 14 33.5t33 14.5q16 0 27.5 -11t11.5 -27q0 -19 -11 -33q-5 -6 -5 -10q0 -7 13 -7q18 0 43 10t45 24q14 10 24.5 20t22.5 25.5t28 38.5t40 61l-50 333q-9 59 -30 59q-17 0 -38 -24.5t-42 -69.5l-15 6q25 61 64.5 98t78.5 37
q41 0 52 -61l46 -270zM280 457l94 135q12 18 20.5 29.5t16 17.5t14.5 8t16 2q15 0 25.5 -9t10.5 -22q0 -10 -6.5 -19t-23.5 -23l-148 -119h-19z" />
    <glyph glyph-name="zcaron" horiz-adv-x="437" 
d="M48 270q10 21 16 34.5t11.5 25.5t11 25.5t13.5 34.5l101 -14q10 -2 31.5 -3.5t45 -3.5t45 -3t32.5 -1q52 0 52 12q0 3 -1 6v2q0 7 4.5 11.5t10.5 4.5q13 0 13 -15q0 -10 -9 -16q-20 -16 -31 -24.5t-17.5 -14t-10.5 -9t-10.5 -9t-17 -14.5t-29.5 -25q-58 -50 -114.5 -99
t-113.5 -98q20 5 37.5 7t40.5 2q20 0 35 -1t32 -4.5t39.5 -10t57.5 -17.5q8 -3 17 -4.5t16 -1.5q11 0 19 6.5t8 14.5q0 5 -8 12q-28 18 -28 41q0 14 9 23t22 9q15 0 24.5 -13t9.5 -33q0 -21 -8.5 -39.5t-25.5 -31.5q-23 -18 -55.5 -28.5t-65.5 -10.5q-10 0 -19.5 0.5
t-20.5 2.5t-26 5.5t-37 8.5q-45 11 -67.5 15t-34.5 4q-13 0 -22.5 -3t-9.5 -7q0 -1 2 -5q1 -2 1 -5q0 -6 -4.5 -10t-9.5 -4q-15 0 -15 16q0 5 2 7.5t10 10.5l11 11q77 65 153.5 129t153.5 130q7 5 13.5 11t12.5 11q-32 -10 -73.5 -15.5t-84.5 -5.5q-26 0 -50 2t-57 7
l-19 -43h-18zM189 647h16l88 -123l156 123h18l-155 -190h-61z" />
    <glyph glyph-name="ydieresis" unicode="&#xff;" horiz-adv-x="469" 
d="M376 300q35 60 60.5 85t52.5 25q19 0 31.5 -14t12.5 -35t-12.5 -35t-31.5 -14q-14 0 -25 9.5t-11 22.5q0 5 1.5 11.5t4.5 10.5q1 2 1 4q0 4 -4 4q-7 0 -22 -16.5t-30 -40.5q-5 -8 -10.5 -17t-18.5 -32t-38 -67.5t-70 -124.5q-49 -88 -87.5 -146t-72.5 -93t-66.5 -49.5
t-69.5 -14.5q-33 0 -53.5 16.5t-20.5 42.5q0 19 14 33.5t33 14.5q16 0 27.5 -11t11.5 -27q0 -19 -11 -33q-5 -6 -5 -10q0 -7 13 -7q18 0 43 10t45 24q14 10 24.5 20t22.5 25.5t28 38.5t40 61l-50 333q-9 59 -30 59q-17 0 -38 -24.5t-42 -69.5l-15 6q25 61 64.5 98t78.5 37
q41 0 52 -61l46 -270zM434 596q15 0 25 -10t10 -25q0 -24 -19.5 -43t-43.5 -19q-14 0 -24 10t-10 25q0 12 5.5 23t14 20t19.5 14t23 5zM263 595q15 0 24.5 -9.5t9.5 -24.5q0 -23 -19 -42t-42 -19q-15 0 -24.5 9.5t-9.5 24.5q0 23 19 42t42 19z" />
    <glyph glyph-name="A" unicode="A" horiz-adv-x="566" 
d="M-37 15q19 0 32 8.5t29 31.5l433 639h26l-5 -679h62l-4 -15h-233l4 15h76l5 225h-218l-111 -163q-8 -13 -16.5 -29.5t-8.5 -21.5q0 -11 36 -11h37l-4 -15h-163l4 15h19zM387 255l6 320l-214 -320h208z" />
    <glyph glyph-name="B" unicode="B" horiz-adv-x="656" 
d="M420 667q39 0 66.5 -1t48 -3.5t35.5 -6.5t29 -11q32 -14 51.5 -45.5t19.5 -69.5q0 -69 -57 -118t-160 -69q20 -2 35 -5t27 -7t23 -9.5t22 -13.5q26 -17 40.5 -45.5t14.5 -60.5q0 -59 -42 -105.5t-117 -72.5q-34 -12 -81.5 -18t-106.5 -6h-279l4 15h78l180 637h-87l4 15
h252zM374 350q93 0 136 43q28 27 45 72t17 91q0 53 -29 74.5t-100 21.5h-99l-85 -302h115zM165 15h145q61 0 97 15.5t61 52.5q10 14 18.5 33t14.5 39t9.5 40t3.5 37q0 30 -16.5 55t-43.5 35q-17 7 -38 9.5t-58 2.5h-103z" />
    <glyph glyph-name="C" unicode="C" horiz-adv-x="649" 
d="M649 419h-17l5 30q2 12 3.5 23.5t1.5 22.5q0 37 -14 68.5t-39 54.5t-58.5 36t-73.5 13q-65 0 -117 -44t-95 -136q-35 -75 -55 -152.5t-20 -143.5q0 -88 47 -138.5t128 -50.5q78 0 139 40.5t117 128.5l13 -8q-104 -178 -274 -178q-58 0 -107 21t-85 58.5t-56 89t-20 111.5
q0 90 39 172.5t112 146.5q54 49 114 74.5t119 25.5q44 0 79.5 -12t79.5 -42q12 -8 19 -11t15 -3q20 0 30 25l3 9h15z" />
    <glyph glyph-name="D" unicode="D" horiz-adv-x="703" 
d="M416 667q39 0 69.5 -3t55 -10t44.5 -18.5t40 -27.5q42 -36 64.5 -89t22.5 -116q0 -38 -9 -78t-25.5 -79t-39.5 -75.5t-52 -66.5q-40 -41 -85 -65.5t-93 -31.5q-24 -4 -59.5 -5.5t-80.5 -1.5h-279l4 15h78l180 637h-87l4 15h248zM297 15q74 0 119.5 18.5t78.5 63.5
q24 32 46.5 80t39.5 101.5t27 107.5t10 98q0 63 -29 106t-78 54q-12 2 -23.5 3.5t-26.5 2.5t-34.5 1.5t-46.5 0.5h-34l-180 -637h131z" />
    <glyph glyph-name="E" unicode="E" horiz-adv-x="614" 
d="M662 667l-26 -184h-18q2 20 2.5 31.5t0.5 19.5q0 57 -25 87.5t-72 30.5h-179l-80 -284h48q51 0 76.5 12.5t33.5 42.5l14 48h15l-56 -251h-15l9 51q3 15 3 25q0 24 -19 40t-48 16h-65l-95 -337h152q29 0 50 1.5t37.5 6t31 11.5t31.5 19q16 12 28.5 24t22 26.5t17 32.5
t13.5 41l8 28h18l-46 -205h-540l5 15h78l179 637h-87l5 15h493z" />
    <glyph glyph-name="F" unicode="F" horiz-adv-x="537" 
d="M639 667l-29 -184h-16l5 40v10q0 57 -27 88t-76 31h-151l-80 -284h61q36 0 56.5 13.5t28.5 43.5l13 46h14l-54 -250h-16l11 59q1 5 1.5 9.5t0.5 9.5q0 24 -15 38t-41 14h-65l-94 -336h90l-4 -15h-263l4 15h78l180 637h-87l4 15h471z" />
    <glyph glyph-name="G" unicode="G" horiz-adv-x="689" 
d="M662 389h-17q4 28 5.5 44.5t1.5 33.5q0 93 -50 146.5t-136 53.5q-35 0 -64.5 -10t-56 -32.5t-50.5 -58.5t-48 -87q-42 -90 -64.5 -170.5t-22.5 -144.5q0 -76 47 -120t129 -44q51 0 90 23t49 58l41 144h-72l4 15h240l-4 -15h-68l-34 -119q-4 -15 -19 -29.5t-47 -34.5
q-45 -29 -93.5 -43.5t-96.5 -14.5q-53 0 -98.5 22t-80 60t-54 89t-19.5 110q0 79 34 154.5t89.5 134t127.5 94t148 35.5q24 0 42 -2.5t36.5 -10.5t39.5 -22t51 -37q29 -22 42 -22q10 0 14.5 5.5t14.5 28.5h15z" />
    <glyph glyph-name="H" unicode="H" horiz-adv-x="778" 
d="M428 667l-4 -15h-78l-85 -302h348l85 302h-86l4 15h259l-4 -15h-78l-179 -637h86l-4 -15h-260l5 15h78l90 319h-349l-89 -319h86l-4 -15h-260l4 15h78l180 637h-87l4 15h260z" />
    <glyph glyph-name="I" unicode="I" horiz-adv-x="335" 
d="M428 667l-5 -15h-78l-179 -637h87l-5 -15h-259l5 15h78l179 637h-87l5 15h259z" />
    <glyph glyph-name="J" unicode="J" horiz-adv-x="393" 
d="M499 667l-5 -15h-78l-146 -518q-6 -21 -12 -37.5t-13.5 -30.5t-16.5 -27t-22 -28q-72 -81 -148 -81q-41 0 -67 24t-26 62q0 34 18.5 56t47.5 22q25 0 41 -16t16 -40q0 -23 -15.5 -38.5t-38.5 -15.5q-1 0 -5.5 0.5t-12.5 1.5q-2 1 -6 1q-8 0 -8 -9q0 -13 15 -22t37 -9
q69 0 90 72l178 633h-87l5 15h259z" />
    <glyph glyph-name="K" unicode="K" horiz-adv-x="666" 
d="M428 667l-5 -15h-78l-88 -313l366 278q15 10 15 21q0 14 -21 14h-53l5 15h210l-4 -15h-33q-42 0 -114 -53l-301 -225l261 -359h52l-4 -15h-247l4 15h77l-218 306l-86 -306h87l-5 -15h-259l4 15h78l180 637h-87l4 15h260z" />
    <glyph glyph-name="L" unicode="L" horiz-adv-x="616" 
d="M428 667l-5 -15h-78l-179 -637h168q53 0 101 22t81 63q12 14 21.5 28.5t18.5 32t17.5 38.5t17.5 49h15l-76 -248h-541l4 15h78l180 637h-87l4 15h260z" />
    <glyph glyph-name="M" unicode="M" horiz-adv-x="820" 
d="M345 667l40 -534l366 534h169l-4 -15h-78l-179 -637h86l-4 -15h-257l5 15h78l170 602q-50 -71 -86 -123.5t-66 -95.5t-56.5 -82t-57 -84t-68 -100.5t-88.5 -131.5h-15q-5 76 -8 132.5t-6 102.5t-6 86.5t-6 85t-7.5 97.5t-9.5 123l-150 -533q-9 -33 -9 -47q0 -32 36 -32
h35l-4 -15h-176l5 15h33q23 0 36.5 15t24.5 57l160 565h-87l4 15h180z" />
    <glyph glyph-name="N" unicode="N" horiz-adv-x="734" 
d="M349 667l228 -562l137 486q3 11 5 21t2 16q0 24 -30 24h-44l4 15h176l-4 -15h-34q-21 0 -32.5 -11t-19.5 -39l-173 -613h-35l-268 648l-158 -560q-6 -23 -6 -34t9.5 -19.5t21.5 -8.5h42l-5 -15h-176l5 15h39q19 0 32 17t24 59l158 561h-86l4 15h184z" />
    <glyph glyph-name="O" unicode="O" horiz-adv-x="684" 
d="M439 682q53 0 99 -21.5t79.5 -59.5t53 -89t19.5 -110q0 -49 -12 -98t-34 -94.5t-53 -85t-69 -69.5q-89 -71 -200 -71q-54 0 -99.5 20.5t-78.5 57.5t-51.5 88t-18.5 112q0 46 10.5 92t30.5 89.5t48.5 82.5t64.5 70q98 86 211 86zM431 665q-40 0 -71.5 -12t-57 -39
t-46 -70.5t-39.5 -106.5q-23 -79 -36 -150.5t-13 -123.5q0 -78 43 -120.5t121 -42.5q38 0 73.5 12t56.5 32q19 18 34 40.5t28 54.5t25.5 76.5t26.5 106.5q14 66 20 107t6 76q0 79 -43 119.5t-128 40.5z" />
    <glyph glyph-name="P" unicode="P" horiz-adv-x="599" 
d="M411 667q99 0 146 -15q44 -14 72 -53.5t28 -88.5q0 -45 -24.5 -85t-69.5 -68q-37 -23 -82 -34t-105 -11h-127l-84 -297h87l-5 -15h-258l4 15h78l180 637h-87l4 15h243zM355 327q94 0 144 55q27 29 42 70.5t15 86.5q0 55 -28 84t-82 29h-102l-91 -325h102z" />
    <glyph glyph-name="Q" unicode="Q" horiz-adv-x="684" 
d="M254 -4q-31 9 -49 18t-37 24q-48 38 -72.5 91t-24.5 118q0 85 32 163.5t85 139t122 96.5t143 36q53 0 97 -20t75.5 -56t49 -86.5t17.5 -110.5q0 -48 -13 -97t-36.5 -95.5t-57 -87.5t-74.5 -72q-18 -14 -35.5 -24.5t-36.5 -18t-40.5 -13.5t-48.5 -11l-13 -48
q-5 -18 -8.5 -37.5t-3.5 -30.5q0 -64 114 -64h44v-17h-46q-60 0 -98 8.5t-67 28.5q-41 30 -41 70q0 15 5 32zM442 665q-40 0 -71.5 -12t-58 -39t-48.5 -70.5t-43 -106.5q-17 -49 -28 -88t-18.5 -71.5t-10.5 -60.5t-3 -53q0 -79 38.5 -121t112.5 -42q39 0 78 13t62 33
q20 18 36 40.5t30 55t27.5 76t28.5 102.5q10 39 16.5 69t10.5 54t6 42.5t2 35.5q0 69 -43 106t-124 37z" />
    <glyph glyph-name="R" unicode="R" horiz-adv-x="639" 
d="M416 667q29 0 51 -1t39 -3.5t30.5 -7t26.5 -11.5q32 -16 49.5 -45.5t17.5 -64.5q0 -50 -29.5 -91t-83.5 -67q-23 -11 -45 -17.5t-57 -12.5q30 -8 46 -17t30 -23q14 -17 22.5 -37t8.5 -40q0 -33 -14 -87q-8 -32 -12.5 -58.5t-4.5 -40.5t6.5 -22.5t17.5 -8.5q29 0 62 46
l13 -7q-23 -32 -44.5 -45t-49.5 -13q-37 0 -63 27.5t-26 67.5q0 7 0.5 13t2 17t5.5 31.5t12 57.5q4 19 6.5 30.5t3.5 19t1.5 12.5t0.5 11q0 29 -17.5 44.5t-48.5 15.5h-116l-92 -325h87l-5 -15h-258l5 15h78l179 637h-87l5 15h247zM359 356q45 0 80.5 19t59.5 54
q18 28 28 61.5t10 67.5q0 51 -25 72.5t-82 21.5h-85l-84 -296h98z" />
    <glyph glyph-name="S" unicode="S" horiz-adv-x="533" 
d="M510 462h-17l9 41q4 15 4 35q0 27 -12 50.5t-33.5 41t-50.5 27t-63 9.5t-64 -10t-52.5 -28t-35.5 -42t-13 -51q0 -26 14 -49.5t37 -37.5q8 -5 13.5 -8t15.5 -8t27.5 -12.5t49.5 -21.5q33 -14 52 -22.5t31 -15.5t20 -14.5t18 -19.5q37 -43 37 -104q0 -49 -19.5 -92
t-53.5 -75t-79 -50.5t-97 -18.5q-33 0 -67 9.5t-77 30.5q-20 10 -29 13t-18 3q-16 0 -25 -8t-20 -34h-17q14 43 23 71t16 52.5t13.5 50.5t15.5 67h18l-8 -40q-3 -18 -3 -40q0 -34 14 -63t38.5 -50t58.5 -32.5t74 -11.5q39 0 72 12t57 33t37.5 50t13.5 63q0 38 -15.5 64
t-50.5 46q-11 6 -25 12t-46 19q-47 18 -77.5 35.5t-48.5 38t-25 46t-7 60.5q0 43 16 79.5t44.5 63.5t67 42t84.5 15q18 0 33.5 -2t31.5 -7t35 -14t46 -23q10 -6 23 -6q19 0 29 31h16z" />
    <glyph glyph-name="T" unicode="T" horiz-adv-x="628" 
d="M748 667l-62 -221h-17l12 42q5 20 5 43q0 54 -24.5 87.5t-65.5 33.5h-106l-179 -637h87l-5 -15h-258l5 15h78l179 637h-88q-31 0 -60.5 -12t-54.5 -34t-45.5 -53t-33.5 -70l-12 -37h-16l62 221h599z" />
    <glyph glyph-name="U" unicode="U" horiz-adv-x="719" 
d="M413 667l-5 -15h-78l-128 -456q-12 -41 -12 -78q0 -56 40.5 -86.5t113.5 -30.5q58 0 106.5 15.5t78.5 42.5q45 42 75 146l111 393q6 21 6 30q0 10 -9 17t-21 7h-57l4 15h185l-4 -15h-28q-44 0 -57 -44l-118 -422q-30 -104 -89 -148q-34 -26 -84 -39.5t-108 -13.5
q-51 0 -94 11.5t-74.5 32t-49.5 48.5t-18 60q0 23 9 55l130 460h-87l4 15h258z" />
    <glyph glyph-name="V" unicode="V" horiz-adv-x="510" 
d="M381 667l-4 -15h-77l-85 -507l359 463q13 16 13 28q0 8 -6.5 12t-17.5 4h-39l4 15h135l-5 -15h-15q-8 0 -17 -6.5t-22 -23.5l-488 -630l-16 7l104 653h-70l4 15h243z" />
    <glyph glyph-name="W" unicode="W" horiz-adv-x="779" 
d="M382 667l-4 -15h-82l-83 -500l249 312l28 188h-66l4 15h249l-4 -15h-91l-84 -506l351 469q7 8 7 20q0 17 -29 17h-34l4 15h134l-4 -15h-16q-18 0 -49 -44q-66 -90 -131 -177t-131 -175q-22 -29 -34 -45.5t-19.5 -26.5t-12.5 -16.5t-12 -16.5t-19 -26.5t-33 -45.5
q-14 -19 -23 -31.5t-16 -22t-13.5 -17.5t-13.5 -17l-16 9l68 432l-96 -120t-69 -87t-50.5 -64t-41 -53t-40 -53t-48.5 -64l-13 9l107 652h-71l4 15h244z" />
    <glyph glyph-name="X" unicode="X" horiz-adv-x="550" 
d="M350 667l-5 -15h-70l74 -249l135 167q14 17 24 36t10 28q0 8 -7 13t-18 5h-46l5 15h169l-4 -15h-31q-11 0 -19 -6t-25 -28l-189 -233l109 -370h59l-5 -15h-229l5 15h73l-81 282l-186 -234q-13 -16 -13 -27q0 -8 7.5 -14.5t18.5 -6.5h35l-4 -15h-178l5 15h35q36 0 66 37
l210 263l-97 337h-73l5 15h235z" />
    <glyph glyph-name="Y" unicode="Y" horiz-adv-x="480" 
d="M348 667l-4 -15h-85l35 -353l231 305q15 18 15 34q0 14 -16 14h-53l4 15h145l-5 -15h-20q-8 0 -14.5 -5t-16.5 -18l-267 -354l-74 -260h87l-5 -15h-257l5 15h77l78 275l-44 362h-69l4 15h249z" />
    <glyph glyph-name="Z" unicode="Z" horiz-adv-x="578" 
d="M651 667l-531 -652h190q33 0 58 2.5t45 9t36.5 17.5t33.5 27q22 22 41.5 52.5t26.5 53.5l6 21h14l-56 -198h-523l535 652h-182q-42 0 -79 -13t-66 -39q-22 -19 -36.5 -42t-29.5 -62l-8 -20h-15l54 191h486z" />
    <glyph glyph-name="AE" unicode="&#xc6;" horiz-adv-x="785" 
d="M835 667l-29 -183h-16l2 29q1 4 1 8v9q0 122 -98 122h-132l-80 -284h63q16 0 27 3t19 10t14 19t11 31l12 40h15l-57 -250h-15q8 42 11 62t3 33q0 17 -9.5 26.5t-25.5 9.5h-73l-95 -337h138q72 0 124 40.5t72 112.5l11 37h18l-45 -205h-492l4 15h78l64 225h-192l-149 -193
q-12 -15 -12 -22q0 -10 18 -10h55l-5 -15h-150l4 15h21q6 0 10 0.5t8 3.5t10 9.5t17 17.5l471 606h-76l5 15h445zM359 255l107 380l-290 -380h183z" />
    <glyph glyph-name="OE" unicode="&#x152;" horiz-adv-x="904" 
d="M926 484h-18l2 31q1 6 1 11.5v10.5q0 54 -25.5 84.5t-70.5 30.5h-139l-80 -284h58q56 0 69 50l15 53h14l-55 -251h-15l11 56q5 22 5.5 26t0.5 9q0 18 -12.5 29t-32.5 11h-62l-95 -336h127q49 0 80 9t61 33q28 23 45 49t28 66l9 33h17l-45 -205h-460q-2 0 -12.5 -0.5
t-25.5 -2.5q-8 -1 -14.5 -1h-13.5q-50 0 -91 17.5t-70 49.5t-45.5 76.5t-16.5 98.5q0 49 11.5 99t32.5 96.5t50.5 87t65.5 70.5q26 22 53 37t58 24.5t68 13.5t84 4h14.5t15.5 -1q27 -1 44.5 -1.5t19.5 -0.5h365zM584 652q-30 1 -47 2t-26.5 1.5t-15 0.5h-13.5q-37 0 -66 -5
t-53 -17t-44 -31t-39 -47q-24 -34 -45 -83t-37 -104t-25.5 -110.5t-9.5 -101.5q0 -147 142 -147q16 0 41.5 1.5t57.5 3.5z" />
    <glyph glyph-name="Oslash" unicode="&#xd8;" horiz-adv-x="677" 
d="M132 -35l41 68q-51 37 -78.5 91.5t-27.5 120.5q0 85 32.5 164t86.5 140t123.5 98t144.5 37q66 0 119 -38l45 70l17 -9l-45 -73q52 -45 75.5 -95.5t23.5 -119.5q0 -84 -31.5 -162t-84 -138t-121 -96t-142.5 -36q-17 0 -31.5 1.5t-28.5 5.5t-28.5 10.5t-32.5 15.5l-42 -64z
M203 40q27 -19 53.5 -27.5t61.5 -8.5q44 0 85 18t66 47q15 18 27.5 39t24.5 51.5t25 74t29 105.5q9 32 14.5 57t9 45.5t5 38.5t1.5 36q0 35 -6.5 55.5t-23.5 42.5zM562 628q-26 23 -51 31.5t-62 8.5q-44 0 -78.5 -13.5t-63 -43.5t-52.5 -79t-46 -120q-23 -70 -35 -135
t-12 -113q0 -37 6 -60.5t21 -48.5z" />
    <glyph glyph-name="Ccedilla" unicode="&#xc7;" horiz-adv-x="649" 
d="M261 -82q24 7 47 7q33 0 54 -16.5t21 -42.5q0 -31 -29.5 -51t-75.5 -20q-29 0 -51 6t-50 21l8 12q37 -18 71 -18q29 0 46 13t17 36q0 18 -12.5 28t-35.5 10q-11 0 -19 -2t-17 -7l-7 10l73 84q-30 5 -49 11t-39 17q-66 35 -103.5 101t-37.5 148q0 90 39 172.5t112 146.5
q54 49 114 74.5t119 25.5q44 0 79.5 -12t79.5 -42q12 -8 19 -11t15 -3q20 0 30 25l3 9h15l-48 -231h-17l5 30q2 12 3.5 23.5t1.5 22.5q0 37 -14 68.5t-39 54.5t-58.5 36t-73.5 13q-65 0 -117 -44t-95 -136q-35 -75 -55 -152.5t-20 -143.5q0 -88 47 -138.5t128 -50.5
q78 0 139 40.5t117 128.5l13 -8q-20 -35 -36 -56t-37 -41q-42 -39 -92.5 -60t-103.5 -21h-10t-14 1z" />
    <glyph glyph-name="Eth" unicode="&#xd0;" horiz-adv-x="703" 
d="M168 667h248q39 0 69.5 -3t55 -10t44.5 -18.5t40 -27.5q42 -36 64.5 -89t22.5 -116q0 -38 -9 -78t-25.5 -79t-39.5 -75.5t-52 -66.5q-40 -41 -85 -65.5t-93 -31.5q-24 -4 -59.5 -5.5t-80.5 -1.5h-279l4 15h78l91 320h-83l5 15h82l85 302h-87zM418 350l-4 -15h-158
l-90 -320h131q74 0 119.5 18.5t78.5 63.5q24 32 46.5 79.5t39.5 101t27 107.5t10 99q0 63 -29 106t-78 54q-12 2 -23.5 3.5t-26.5 2.5t-34.5 1.5t-46.5 0.5h-34l-85 -302h157z" />
    <glyph glyph-name="Lslash" horiz-adv-x="616" 
d="M164 652l4 15h260l-5 -15h-78l-85 -304l173 59l-7 -24l-173 -59l-87 -309h168q53 0 101 22t81 63q12 14 21.5 28.5t18.5 32t17.5 38.5t17.5 49h15l-76 -248h-541l4 15h78l81 286l-88 -30l6 24l89 30l92 327h-87z" />
    <glyph glyph-name="Thorn" unicode="&#xde;" horiz-adv-x="606" 
d="M381 560q28 0 50 -0.5t39 -2t30.5 -4.5t26.5 -7q44 -14 72 -54t28 -88q0 -46 -24.5 -86t-69.5 -68q-37 -23 -82 -34t-105 -11h-127l-54 -190h87l-5 -15h-258l4 15h78l180 637h-87l4 15h259l-5 -15h-78l-25 -92h62zM325 220q94 0 144 55q27 29 42 70.5t15 85.5
q0 56 -28 85t-82 29h-102l-91 -325h102z" />
    <glyph glyph-name="a" unicode="a" horiz-adv-x="544" 
d="M410 74q-5 -20 -5 -34q0 -11 5.5 -19t13.5 -8q17 0 37.5 20t46.5 63l15 -8q-9 -12 -14.5 -19.5t-9 -12.5t-6 -8.5t-5.5 -7.5q-38 -50 -89 -50q-32 0 -48.5 19.5t-17.5 54.5v10q-35 -46 -68 -66t-74 -20q-33 0 -62.5 13.5t-51.5 37t-35 54.5t-13 66q0 51 26 99t76 86
q41 32 87 49.5t88 17.5q80 0 100 -76l15 53h78zM397 300v4q0 11 -3.5 23t-8.5 23q-22 44 -78 44q-111 0 -163 -120q-9 -22 -17 -46.5t-13.5 -48t-9 -44.5t-3.5 -36q0 -45 25.5 -70.5t70.5 -25.5q24 0 47.5 10t44.5 27.5t36.5 41t23.5 49.5z" />
    <glyph glyph-name="b" unicode="b" horiz-adv-x="518" 
d="M188 673q15 0 27 1.5t22.5 6t21 11.5t23.5 18l-107 -381q38 42 78 62t86 20q35 0 65 -11t51.5 -31t33.5 -47t12 -60q0 -50 -26 -104.5t-69 -95.5q-39 -36 -85 -55t-94 -19q-39 0 -72 10t-57 28t-38 42.5t-14 53.5q0 10 2 22t4 22l139 492h-60l4 15h53zM117 122
q-3 -9 -4.5 -18.5t-1.5 -16.5q0 -36 33 -59t85 -23q32 0 61.5 11t47.5 31q8 8 18 28.5t20.5 47.5t21 57.5t18.5 59.5t13 53t5 38q0 30 -24 46.5t-67 16.5q-66 0 -114 -35q-27 -20 -46.5 -46.5t-27.5 -54.5z" />
    <glyph glyph-name="c" unicode="c" horiz-adv-x="421" 
d="M401 140q-23 -40 -40 -62.5t-38 -40.5q-27 -24 -60 -36.5t-68 -12.5q-34 0 -64.5 13t-53.5 35t-36.5 52t-13.5 63q0 50 23 96.5t61.5 82.5t88 58t102.5 22q52 0 84.5 -23t32.5 -60q0 -22 -13 -37t-32 -15q-17 0 -30 16t-13 37q0 25 9 40q4 8 4 10q0 8 -12.5 12t-33.5 4
q-111 0 -158 -134q-7 -20 -13.5 -43.5t-11 -46t-7 -42.5t-2.5 -35q0 -43 23 -65.5t66 -22.5q38 0 73 15t61 43q7 7 12.5 14t12 16.5t14 22.5t18.5 32z" />
    <glyph glyph-name="d" unicode="d" horiz-adv-x="542" 
d="M410 89q-6 -23 -8.5 -34.5t-2.5 -17.5q0 -10 7 -17t16 -7q17 0 35.5 17.5t50.5 64.5l13 -6q-34 -54 -61.5 -76.5t-61.5 -22.5q-29 0 -48 20.5t-19 51.5v11q-5 -10 -11.5 -17.5t-18.5 -18.5q-53 -47 -107 -47q-34 0 -64.5 14t-54 37t-37 54t-13.5 65q0 60 34 113.5
t97 91.5q36 23 73.5 34.5t70.5 11.5q21 0 39.5 -6t32.5 -16t22.5 -23.5t8.5 -28.5l91 321h-66l4 15h54q21 0 35.5 1.5t25.5 5.5t20.5 11.5t18.5 18.5zM396 313q-5 38 -31.5 59.5t-70.5 21.5q-53 0 -88.5 -27t-63.5 -87q-10 -21 -18.5 -45t-14.5 -47t-9.5 -44.5t-3.5 -36.5
q0 -45 27 -72.5t69 -27.5q80 0 147 105z" />
    <glyph glyph-name="e" unicode="e" horiz-adv-x="423" 
d="M393 104q-14 -22 -22.5 -33.5t-22.5 -23.5q-29 -27 -67 -42.5t-76 -15.5q-36 0 -68 13.5t-56 37t-38 54.5t-14 67q0 51 28.5 100.5t82.5 90.5q77 59 153 59q57 0 91 -25.5t34 -67.5q0 -26 -14.5 -47t-41.5 -36t-64.5 -23.5t-82.5 -8.5q-26 0 -46.5 2.5t-48.5 8.5
q-8 -33 -11.5 -58t-3.5 -51q0 -52 23 -76t72 -24q55 0 97.5 25t82.5 82zM124 229q30 -6 50 -8.5t44 -2.5q65 0 101 29t36 80q0 67 -71 67q-58 0 -99.5 -43t-60.5 -122z" />
    <glyph glyph-name="f" unicode="f" horiz-adv-x="294" 
d="M223 373q-20 -78 -36.5 -140t-31 -112.5t-28 -92.5t-27.5 -80q-17 -45 -43.5 -89.5t-55.5 -71.5q-33 -32 -74 -32q-29 0 -47 15.5t-18 40.5q0 20 13 34.5t32 14.5q17 0 28 -12t11 -30t-11 -33q-3 -3 -3 -5q0 -3 3.5 -5.5t8.5 -2.5q46 0 78 87q6 17 12 36.5t12.5 47.5
t15.5 69t22 102q9 43 15.5 74.5t13 60t13.5 57.5t17 67h-84l5 15h83q9 30 16 52t15 41t17.5 37t22.5 41q39 67 87.5 105t93.5 38q29 0 47 -16t18 -41q0 -21 -13 -34t-33 -13q-18 0 -30.5 12.5t-12.5 29.5q0 8 2 14t7 16q4 8 4 10q0 6 -9 6q-71 0 -134 -227q-6 -21 -9 -32.5
t-5 -18.5t-3.5 -10.5t-2.5 -9.5h102l-5 -15h-99z" />
    <glyph glyph-name="g" unicode="g" horiz-adv-x="474" 
d="M312 45q37 0 53.5 -5t30.5 -20q25 -27 25 -72t-21 -84t-57.5 -68.5t-85.5 -46t-105 -16.5q-42 0 -77.5 9t-61.5 25t-40.5 37.5t-14.5 47.5q0 38 28.5 71t77.5 53q-32 14 -43 27t-11 40q0 37 24.5 61.5t71.5 33.5q-28 22 -41 47t-13 58q0 34 17 64.5t46 53.5t67.5 36.5
t80.5 13.5q48 0 79.5 -15.5t54.5 -50.5q32 65 77 65q21 0 34.5 -12t13.5 -32q0 -18 -11 -30t-28 -12q-16 0 -26 12t-10 29q0 3 1 4l1 7q0 6 -7 6t-18 -14.5t-22 -37.5q6 -19 8 -31t2 -26q0 -32 -17 -60.5t-46.5 -50t-68.5 -34t-83 -12.5q-20 0 -36 2.5t-41 10.5
q-77 -13 -77 -53q0 -18 24 -26q17 -5 80 -5h165zM81 -26q-20 -12 -30 -19t-18 -17q-13 -15 -20.5 -35t-7.5 -39q0 -24 12 -44.5t34 -35.5t51.5 -23.5t64.5 -8.5q51 0 96.5 16.5t77.5 46.5q24 22 38.5 49.5t14.5 50.5q0 29 -21 46q-9 8 -20 10.5t-34 2.5h-238zM262 394
q-24 0 -48 -8t-37 -20q-5 -5 -8.5 -9.5t-7 -13t-8.5 -22t-13 -37.5q-13 -38 -18.5 -61.5t-5.5 -37.5q0 -54 79 -54q49 0 75.5 12t37.5 39q7 17 14.5 40t13.5 45t9.5 40.5t3.5 27.5q0 26 -24.5 42.5t-62.5 16.5z" />
    <glyph glyph-name="h" unicode="h" horiz-adv-x="554" 
d="M220 673q24 0 43 8.5t41 28.5l-122 -435q46 66 100.5 100.5t112.5 34.5q45 0 71.5 -22t26.5 -58q0 -26 -10 -55l-57 -167q-7 -20 -12 -40.5t-5 -27.5q0 -25 20 -25q12 0 31.5 14.5t36.5 37.5l25 34l12 -8l-23 -32q-28 -37 -54.5 -54t-55.5 -17q-28 0 -45 17.5t-17 45.5
q0 16 3.5 35t9.5 38l63 185q5 14 7.5 26.5t2.5 21.5q0 14 -12.5 21.5t-33.5 7.5q-30 0 -64 -16t-64.5 -42t-54.5 -58t-33 -65l-59 -207h-77l186 658h-60l4 15h63z" />
    <glyph glyph-name="i" unicode="i" horiz-adv-x="253" 
d="M124 388q36 0 54.5 6t38.5 24l-96 -339q-5 -18 -6.5 -24.5t-1.5 -12.5q0 -28 24 -28q21 0 48.5 23t53.5 62l12 -9q-30 -48 -66 -74t-74 -26q-30 0 -50 19.5t-20 50.5v7.5t1 8t3 12t6 19.5l75 266h-60l4 15h54zM248 684q16 0 26.5 -12t10.5 -29q0 -26 -16 -46t-36 -20
q-15 0 -26.5 12t-11.5 28q0 25 16.5 46t36.5 21z" />
    <glyph glyph-name="j" unicode="j" horiz-adv-x="225" 
d="M139 388q33 0 52.5 6.5t33.5 23.5l-104 -370q-17 -62 -42 -113t-62 -102q-57 -79 -114 -79q-29 0 -47 16t-18 42q0 21 12.5 34.5t31.5 13.5q17 0 28 -12t11 -30q0 -16 -8 -30l-2.5 -5t-0.5 -3q0 -8 13 -8q44 0 73 107l139 494h-60l4 15h60zM257 681q17 0 27.5 -11
t10.5 -30q0 -26 -16 -45t-37 -19q-14 0 -25.5 12t-11.5 27q0 25 16 45.5t36 20.5z" />
    <glyph glyph-name="k" unicode="k" 
d="M178 260q40 3 65 8t43 16.5t33 31t34 52.5q17 29 40 46t45 17q23 0 39 -14t16 -33q0 -17 -13 -30t-30 -13q-14 0 -26 11t-14 25q-3 16 -11 16q-5 0 -9.5 -2.5t-11 -10.5t-15.5 -23l-24 -40q-14 -28 -46.5 -46t-67.5 -19q43 -3 69.5 -14t46.5 -34q9 -11 13.5 -18
t7.5 -16.5t5 -24t4 -39.5q3 -27 5 -43.5t5 -25.5t7.5 -12t11.5 -3q6 0 15.5 6t18.5 15q12 14 21 33t20 51l11 -6q-6 -18 -10 -29.5t-7 -20t-6.5 -14.5t-7.5 -12q-17 -26 -39.5 -40.5t-47.5 -14.5q-35 0 -51 28.5t-20 99.5q-2 36 -8 60.5t-18.5 39.5t-32 21t-47.5 6h-17
l-70 -245h-77l186 658h-60l4 15h57q33 0 52.5 8t38.5 29z" />
    <glyph glyph-name="l" unicode="l" horiz-adv-x="253" 
d="M198 673q16 0 29 1.5t24 6t22 11.5t24 18l-179 -634q-2 -8 -4 -20.5t-2 -19.5q0 -22 22 -22t46.5 20t57.5 65l12 -9q-11 -16 -19.5 -27.5t-16.5 -20t-15.5 -15t-16.5 -12.5q-38 -26 -71 -26q-31 0 -50.5 18t-19.5 47q0 11 1.5 22.5t5.5 22.5l157 559h-60l5 15h48z" />
    <glyph glyph-name="m" unicode="m" horiz-adv-x="777" 
d="M143 388q30 0 48 6.5t39 23.5l-40 -140q42 63 91 98t95 35q35 0 57.5 -21t22.5 -53q0 -14 -2 -26.5t-8 -32.5q91 132 182 132q41 0 64 -21.5t23 -58.5q0 -28 -8 -52l-66 -193q-4 -11 -7 -25.5t-3 -21.5q0 -9 6 -16t14 -7q17 0 37.5 20t53.5 69l14 -11q-10 -14 -17 -23.5
t-12.5 -16t-10 -12t-9.5 -10.5q-36 -41 -79 -41q-30 0 -49 18t-19 46q0 11 2.5 27t5.5 25l72 211q7 18 7 41q0 31 -29 31q-48 0 -114 -66q-13 -13 -26 -29t-23.5 -31.5t-18.5 -30.5t-11 -27l-58 -205h-77l98 347q3 9 3 16q0 25 -30 25q-42 0 -108 -59q-13 -12 -26 -28
t-25 -33t-20.5 -33.5t-12.5 -29.5l-57 -205h-79l105 373h-60l5 15h60z" />
    <glyph glyph-name="n" unicode="n" horiz-adv-x="564" 
d="M150 388q23 0 39.5 6.5t38.5 23.5l-40 -142q44 62 101 98.5t111 36.5q48 0 75 -23.5t27 -65.5q0 -20 -6 -36l-70 -209q-3 -11 -5 -21t-2 -18q0 -11 6 -17.5t14 -6.5q17 0 41.5 23.5t49.5 64.5l14 -8q-35 -55 -66 -80t-64 -25q-30 0 -48 18t-18 49q0 14 3 28t8 31l70 207
q6 16 6 29q0 37 -42 37q-58 0 -122 -49q-38 -29 -65.5 -64t-35.5 -64l-60 -211h-77l105 373h-60l5 15h67z" />
    <glyph glyph-name="o" unicode="o" horiz-adv-x="476" 
d="M290 410q36 0 66 -12t51.5 -33.5t34 -51t12.5 -63.5q0 -52 -21 -99.5t-56 -83.5t-81.5 -57t-97.5 -21q-36 0 -67 12.5t-53.5 35t-35 53t-12.5 66.5q0 51 21 97.5t56.5 81t82.5 55t100 20.5zM280 393q-51 0 -82.5 -28.5t-54.5 -95.5q-42 -120 -42 -174q0 -42 25.5 -65.5
t71.5 -23.5q51 0 83 25.5t53 83.5q24 65 37.5 118t13.5 82q0 38 -27 58t-78 20z" />
    <glyph glyph-name="p" unicode="p" horiz-adv-x="540" 
d="M129 388q38 0 56.5 6t33.5 24q-2 -13 -3.5 -21.5t-3 -16.5t-4 -17t-5.5 -23q23 32 60 51t81 19q37 0 68.5 -12.5t54.5 -35t36 -53t13 -66.5q0 -53 -21.5 -99.5t-58 -81t-86.5 -54t-107 -19.5q-99 0 -119 73l-85 -304h60l-4 -15h-197l4 15h60l174 615h-60l4 15h49z
M142 124q-4 -12 -4 -30q0 -42 28 -65t79 -23q52 0 87.5 26.5t65.5 86.5q20 40 30.5 86.5t10.5 93.5q0 95 -97 95q-26 0 -51.5 -10t-47 -27t-38 -40.5t-23.5 -50.5z" />
    <glyph glyph-name="q" unicode="q" horiz-adv-x="502" 
d="M319 -242h54l-5 -15h-190l5 15h60l86 306q-63 -74 -139 -74q-32 0 -61.5 14t-52 37t-35.5 54t-13 65q0 46 24 91t62.5 80t88 57t100.5 22q42 0 65.5 -18t35.5 -60l16 56h77zM389 278q6 19 6 30q0 10 -5 25.5t-12 25.5q-22 34 -78 34q-45 0 -78.5 -21t-59.5 -66
q-13 -23 -24.5 -50.5t-20.5 -56.5t-14 -56t-5 -48q0 -39 26 -64t67 -25q37 0 69 19t76 66z" />
    <glyph glyph-name="r" unicode="r" horiz-adv-x="339" 
d="M143 388q34 0 51.5 6t34.5 24l-35 -125q70 111 140 111q20 0 34 -13.5t14 -32.5q0 -20 -14.5 -34.5t-35.5 -14.5q-15 0 -25.5 10.5t-10.5 24.5q0 5 3 16q2 6 2 9q0 6 -6 6q-12 0 -30 -14.5t-36 -37t-33 -49t-22 -49.5l-63 -225h-78l105 373h-60l5 15h60z" />
    <glyph glyph-name="s" unicode="s" horiz-adv-x="366" 
d="M54 144q17 0 28.5 -12.5t11.5 -30.5q0 -28 -34 -42q-12 -5 -12 -14q0 -15 28 -26.5t64 -11.5q46 0 74 22.5t28 59.5q0 15 -4 27.5t-15 24.5t-29.5 25t-47.5 30q-55 32 -55 87q0 26 12.5 49.5t34 41t49.5 28t59 10.5q23 0 43.5 -6t35.5 -16.5t24 -24.5t9 -30
q0 -20 -13 -33.5t-32 -13.5t-31 12t-12 30q0 14 5.5 22t20.5 17q6 1 6 8q0 6 -16.5 11.5t-35.5 5.5q-46 0 -75.5 -19.5t-29.5 -50.5q0 -26 22 -45q4 -4 9.5 -7t24.5 -13q3 -2 9.5 -5.5t14.5 -8t15 -9t11 -6.5q29 -18 46 -46.5t17 -58.5q0 -29 -13.5 -53.5t-36.5 -42.5
t-54.5 -28.5t-67.5 -10.5q-30 0 -55 7.5t-43.5 20.5t-29 31t-10.5 39q0 25 14 40.5t36 15.5z" />
    <glyph glyph-name="t" unicode="t" horiz-adv-x="290" 
d="M206 388h104l-4 -15h-104l-84 -299q-3 -11 -5 -21.5t-2 -17.5q0 -10 7 -17t18 -7q12 0 28 8.5t33 23.5t34 35t31 43l11 -7q-33 -58 -75.5 -91t-82.5 -33q-31 0 -50.5 19t-19.5 48q0 11 2.5 24.5t9.5 36.5l72 255h-64l4 15h64l37 130q5 -1 9 -1h7q16 0 30.5 6.5t34.5 23.5
z" />
    <glyph glyph-name="u" unicode="u" horiz-adv-x="552" 
d="M421 82q-3 -12 -5 -18.5t-3 -10t-1 -6v-5.5q0 -23 20 -23t39.5 17t48.5 62l11 -9q-30 -52 -58.5 -75.5t-63.5 -23.5q-31 0 -49 17.5t-18 48.5q0 13 3 27t12 44q-28 -38 -53 -64t-50 -42.5t-51.5 -23.5t-56.5 -7q-46 0 -72.5 20.5t-26.5 55.5v10t1.5 9.5t4 15t7.5 26.5
l69 246h-60l4 15h60q52 0 85 30l-82 -291l-11 -39q-9 -33 -9 -45q0 -16 11 -25.5t30 -9.5q38 0 78.5 22.5t75.5 63.5q16 19 27.5 33.5t18.5 26t11.5 22t7.5 21.5l54 191h77z" />
    <glyph glyph-name="v" unicode="v" horiz-adv-x="421" 
d="M136 388q26 0 43 6.5t40 23.5l-89 -316q-4 -13 -6 -21l-3.5 -14t-2 -10.5t-0.5 -8.5q0 -33 39 -33q32 0 69 24.5t73 69.5q19 24 35.5 51t29 53.5t19.5 51t7 42.5q0 15 -6 22.5t-26 18.5q-29 15 -29 45q0 20 13.5 36t31.5 16q23 0 37.5 -21t14.5 -52q0 -32 -9 -69t-26 -75
t-41 -75t-53 -70q-40 -45 -82.5 -69t-83.5 -24q-38 0 -63 19.5t-25 50.5q0 6 0.5 12t2 13.5t5 18l8.5 25.5l69 244h-60l4 15h64z" />
    <glyph glyph-name="w" unicode="w" horiz-adv-x="693" 
d="M103 388q25 0 42.5 1.5t30.5 4.5t23.5 9t21.5 15l-86 -305q-6 -20 -9 -32t-5 -19.5t-2.5 -11.5t-0.5 -8q0 -32 36 -32q42 0 89 39q13 10 29.5 28t31.5 36.5t26 35t14 25.5l60 214h79l-85 -301q-8 -29 -8 -43t11 -22t29 -8q32 0 69 24.5t74 69.5q19 24 35.5 51t28.5 54
t19 51.5t7 42.5q0 15 -6 22.5t-26 18.5q-30 15 -30 45q0 20 14 36t32 16q22 0 37 -21t15 -52q0 -33 -9.5 -70t-26.5 -75t-40.5 -75t-52.5 -70q-41 -46 -83 -70t-84 -24q-38 0 -61 21t-23 57q0 11 2 22.5t9 36.5q-43 -67 -92 -101.5t-101 -34.5q-40 0 -65 19.5t-25 50.5
q0 13 2.5 28t9.5 38l70 248h-60l4 15h30z" />
    <glyph glyph-name="x" unicode="x" horiz-adv-x="485" 
d="M36 306q16 19 27 32t20 21.5t17.5 14.5t20.5 13q41 23 81 23q97 0 106 -103q28 55 57.5 79t68.5 24q32 0 54.5 -17.5t22.5 -42.5q0 -20 -15.5 -35.5t-34.5 -15.5q-35 0 -35 36q0 18 18 35q4 5 4 9q0 11 -21 11q-29 0 -55.5 -21.5t-47.5 -63.5q-9 -18 -19.5 -46.5
t-19 -59.5t-14 -58.5t-5.5 -43.5q0 -34 14 -53.5t38 -19.5q14 0 33 7.5t38.5 21t38.5 30.5t34 37l11 -7q-21 -28 -46 -50.5t-51 -39t-52.5 -25.5t-50.5 -9q-50 0 -72 46q-7 14 -9.5 31t-2.5 47q-31 -60 -67 -91.5t-76 -31.5q-31 0 -51.5 19t-20.5 48q0 23 16.5 41t37.5 18
q15 0 24 -11t9 -28q0 -26 -21 -40q-9 -6 -11.5 -9t-2.5 -6q0 -12 20 -12q33 0 66.5 28t60.5 78q11 20 21 46.5t17.5 54.5t12 54t4.5 46q0 29 -15 48t-38 19q-29 0 -59 -21.5t-75 -75.5l-13 9z" />
    <glyph glyph-name="y" unicode="y" horiz-adv-x="469" 
d="M376 300q35 60 60.5 85t52.5 25q19 0 31.5 -14t12.5 -35t-12.5 -35t-31.5 -14q-14 0 -25 9.5t-11 22.5q0 5 1.5 11.5t4.5 10.5q1 2 1 4q0 4 -4 4q-7 0 -22 -16.5t-30 -40.5q-5 -8 -10.5 -17t-18.5 -32t-38 -67.5t-70 -124.5q-49 -88 -87.5 -146t-72.5 -93t-66.5 -49.5
t-69.5 -14.5q-33 0 -53.5 16.5t-20.5 42.5q0 19 14 33.5t33 14.5q16 0 27.5 -11t11.5 -27q0 -19 -11 -33q-5 -6 -5 -10q0 -7 13 -7q18 0 43 10t45 24q14 10 24.5 20t22.5 25.5t28 38.5t40 61l-50 333q-9 59 -30 59q-17 0 -38 -24.5t-42 -69.5l-15 6q25 61 64.5 98t78.5 37
q41 0 52 -61l46 -270z" />
    <glyph glyph-name="z" unicode="z" horiz-adv-x="437" 
d="M48 270q10 21 16 34.5t11.5 25.5t11 25.5t13.5 34.5l101 -14q10 -2 31.5 -3.5t45 -3.5t45 -3t32.5 -1q52 0 52 12q0 3 -1 6v2q0 7 4.5 11.5t10.5 4.5q13 0 13 -15q0 -10 -9 -16q-20 -16 -31 -24.5t-17.5 -14t-10.5 -9t-10.5 -9t-17 -14.5t-29.5 -25q-58 -50 -114.5 -99
t-113.5 -98q20 5 37.5 7t40.5 2q20 0 35 -1t32 -4.5t39.5 -10t57.5 -17.5q8 -3 17 -4.5t16 -1.5q11 0 19 6.5t8 14.5q0 5 -8 12q-28 18 -28 41q0 14 9 23t22 9q15 0 24.5 -13t9.5 -33q0 -21 -8.5 -39.5t-25.5 -31.5q-23 -18 -55.5 -28.5t-65.5 -10.5q-10 0 -19.5 0.5
t-20.5 2.5t-26 5.5t-37 8.5q-45 11 -67.5 15t-34.5 4q-13 0 -22.5 -3t-9.5 -7q0 -1 2 -5q1 -2 1 -5q0 -6 -4.5 -10t-9.5 -4q-15 0 -15 16q0 5 2 7.5t10 10.5l11 11q77 65 153.5 129t153.5 130q7 5 13.5 11t12.5 11q-32 -10 -73.5 -15.5t-84.5 -5.5q-26 0 -50 2t-57 7
l-19 -43h-18z" />
    <glyph glyph-name="ae" unicode="&#xe6;" horiz-adv-x="638" 
d="M609 104q-34 -56 -83.5 -85t-111.5 -29q-59 0 -99 31q-17 14 -24.5 28t-10.5 37q-8 -20 -22 -37.5t-30.5 -30.5t-35 -21t-35.5 -8q-26 0 -49.5 12.5t-41.5 34.5t-28.5 50.5t-10.5 60.5q0 58 29 113.5t80 96.5q32 26 67 40.5t65 14.5q34 0 55 -20t27 -57l16 53h75l-8 -30
q21 29 43.5 40.5t55.5 11.5q45 0 73.5 -23.5t28.5 -61.5q0 -27 -12 -49t-33.5 -38t-52 -24.5t-67.5 -8.5q-19 0 -36 2t-41 7l-18 -65q-12 -41 -12 -71q0 -32 21.5 -51.5t56.5 -19.5q44 0 81 24.5t77 80.5zM339 293q1 3 1 12q0 41 -20.5 65t-55.5 24q-26 0 -50.5 -14.5
t-38.5 -39.5q-15 -26 -29.5 -60.5t-25.5 -71.5t-17.5 -72t-6.5 -60q0 -32 16 -51t42 -19q35 0 72 34q8 7 13 11.5t9 9.5t9 12.5t13 21.5q14 23 19 31.5t6 13.5zM396 228q20 -5 33 -6.5t30 -1.5q29 0 47.5 6.5t32.5 20.5q15 16 23.5 38.5t8.5 47.5q0 28 -12.5 44t-35.5 16
q-17 0 -37 -8.5t-32 -21.5q-10 -11 -22.5 -32.5t-16.5 -35.5z" />
    <glyph glyph-name="oe" unicode="&#x153;" horiz-adv-x="643" 
d="M613 104q-32 -56 -75.5 -85t-94.5 -29q-75 0 -115 70q-18 -20 -35 -33.5t-34.5 -22t-37 -12t-43.5 -3.5q-33 0 -60.5 12t-47.5 33.5t-31 51.5t-11 65q0 51 20 98t53.5 82.5t77 57t91.5 21.5q84 0 126 -76q30 38 66.5 58.5t72.5 20.5q47 0 75 -24.5t28 -63.5
q0 -27 -12 -49.5t-33.5 -38.5t-52 -25t-66.5 -9q-19 0 -36 2t-41 7q-11 -40 -15 -68.5t-4 -55.5q0 -82 76 -82q56 0 107 53q4 4 7 7.5t6.5 8.5t9.5 14l16 24zM267 393q-37 0 -62 -19.5t-47 -64.5q-11 -24 -22 -54t-19 -60t-13 -57.5t-5 -45.5q0 -40 22 -63t60 -23
q77 0 116 112q3 10 8 29.5t15 59.5q10 37 13 60t3 50q0 76 -69 76zM401 227q17 -5 30 -7t31 -2q38 0 59.5 11t36.5 40q8 17 13 35.5t5 35.5q0 55 -49 55q-81 0 -126 -168z" />
    <glyph glyph-name="oslash" unicode="&#xf8;" horiz-adv-x="471" 
d="M65 -53l42 64q-42 26 -61 61t-19 86q0 50 21 96t57 81t83 55.5t99 20.5q20 0 34 -3t36 -12l45 68l14 -8l-44 -68q79 -49 79 -140q0 -51 -21 -97.5t-56.5 -82.5t-81.5 -57t-96 -21q-20 0 -35.5 3t-38.5 11l-43 -66zM133 21q18 -9 29.5 -12t28.5 -3q51 0 80.5 20t51.5 68
q11 25 21.5 57t19 62.5t14 56.5t5.5 41q0 18 -5 30.5t-18 27.5zM346 379q-15 8 -29 11.5t-36 3.5q-27 0 -47.5 -6.5t-37 -22t-30.5 -41.5t-28 -65q-20 -54 -30 -97t-10 -71q0 -20 4.5 -32.5t18.5 -26.5z" />
    <glyph glyph-name="germandbls" unicode="&#xdf;" horiz-adv-x="549" 
d="M142 174q-18 -67 -31 -113t-25 -79.5t-24 -59.5t-27 -53q-35 -60 -66.5 -87t-68.5 -27q-28 0 -45.5 15t-17.5 40q0 22 12.5 36t32.5 14q16 0 27 -11.5t11 -27.5q0 -17 -10 -33q-3 -5 -3 -7q0 -8 12 -8q10 0 22 7t22 19q20 23 35.5 68.5t34.5 130.5l59 275q21 95 41 160
t41 106q19 37 46.5 67.5t60 52.5t68 34t70.5 12q29 0 55 -10t46 -26.5t32 -39t12 -46.5q0 -25 -11.5 -48t-31.5 -42q-9 -8 -17 -14t-17.5 -13t-23 -16t-34.5 -22q-42 -26 -57 -44t-15 -39q0 -12 5.5 -24.5t14.5 -20.5q2 -2 4.5 -4t8 -5.5t16 -11t28.5 -19.5
q17 -12 26.5 -18.5t15 -10.5t8.5 -7.5t7 -9.5q21 -30 21 -69q0 -32 -14 -60t-38 -49t-55.5 -33.5t-67.5 -12.5q-51 0 -84.5 30t-33.5 76q0 26 15 44t38 18q18 0 31 -13.5t13 -33.5q0 -17 -8 -28t-25 -21q-14 -7 -14 -15q0 -7 6.5 -14t16.5 -13t22.5 -9.5t24.5 -3.5
q23 0 43.5 7t35.5 20t24 29.5t9 36.5q0 26 -17 48t-56 47q-49 31 -68 53t-19 48q0 17 8 35.5t22 34.5q8 9 14 15t15.5 14t27 20t48.5 34q45 32 70 69t25 72q0 43 -30.5 70.5t-77.5 27.5q-37 0 -69 -16t-55 -45q-9 -12 -16 -23.5t-13.5 -26.5t-13 -35t-14.5 -48z" />
    <glyph glyph-name="dotlessi" unicode="&#xd;" horiz-adv-x="253" 
d="M124 388q36 0 54.5 6t38.5 24l-96 -339q-5 -18 -6.5 -24.5t-1.5 -12.5q0 -28 24 -28q21 0 48.5 23t53.5 62l12 -9q-30 -48 -66 -74t-74 -26q-30 0 -50 19.5t-20 50.5v7.5t1 8t3 12t6 19.5l75 266h-60l4 15h54z" />
    <glyph glyph-name="fi" horiz-adv-x="561" 
d="M439 388q28 0 48 7t37 23l-97 -343q-8 -27 -8 -40q0 -8 6.5 -14.5t16.5 -6.5q21 0 44.5 18.5t59.5 64.5l10 -9q-29 -46 -66 -72t-75 -26q-31 0 -50 17t-19 46q0 8 1.5 16.5t3.5 18.5l81 285h-213l-36 -157q-9 -40 -21.5 -83.5t-26.5 -85t-28 -78.5t-27 -64
q-17 -35 -39.5 -68t-42.5 -53q-13 -13 -31 -20.5t-36 -7.5q-26 0 -43.5 15t-17.5 38q0 20 13 34.5t30 14.5q15 0 27 -11.5t12 -26.5q0 -7 -2.5 -13t-10.5 -17q-3 -3 -3 -7q0 -8 16 -8q30 0 56 46.5t43 131.5l53 264q6 27 11 47.5t9 37.5t8.5 34t9.5 37h-85l4 15h85
q22 73 47 123t57 85q42 46 99 73.5t112 27.5q26 0 49 -6t40.5 -17t27.5 -25.5t10 -30.5q0 -21 -14.5 -36t-34.5 -15q-18 0 -31 13t-13 31q0 33 41 43q8 4 8 5q0 4 -8 8t-20.5 7.5t-27.5 5.5t-29 2q-79 0 -127.5 -41.5t-74.5 -131.5l-33 -121h215z" />
    <glyph glyph-name="fl" horiz-adv-x="562" 
d="M554 89q-61 -100 -135 -100q-33 0 -51 18t-18 50q0 23 4 35l131 465q-21 21 -21 40q0 32 39 44q15 4 15 12q0 11 -23 20.5t-51 9.5q-67 0 -114 -45q-13 -13 -24 -29t-21.5 -38t-20.5 -51t-21 -68l-18 -64h91l-4 -15h-91l-43 -177q-9 -36 -23 -80.5t-30 -89t-32 -83.5
t-29 -64q-64 -122 -136 -122q-25 0 -41.5 15t-16.5 38q0 20 12.5 34t30.5 14q16 0 27 -11t11 -27q0 -14 -13 -31q-2 -2 -2 -5q0 -4 4.5 -6.5t10.5 -2.5q20 0 38.5 21t32.5 59q7 20 13 38.5t13.5 51.5t19 88.5t30.5 150.5l8 36t9 40t11.5 49.5t15.5 63.5h-84l4 15h85
q1 3 1.5 5.5t2.5 8.5l6 18l11 33q18 52 47.5 96.5t66.5 77t78.5 51t83.5 18.5q19 0 33 -2.5t34 -10.5q15 -5 22 -7t13 -2q9 0 17 5l41 25l-172 -612q-4 -18 -6.5 -27.5t-3.5 -14.5t-1 -7v-4q0 -25 21 -25q11 0 24.5 6.5t27 18t26.5 26.5t22 32z" />
    <glyph glyph-name="ccedilla" unicode="&#xe7;" horiz-adv-x="421" 
d="M141 -80q14 5 24.5 6.5t22.5 1.5q32 0 52 -16t20 -41q0 -31 -28.5 -50.5t-73.5 -19.5q-28 0 -49.5 6t-49.5 20l9 12q36 -18 68 -18q28 0 45 13t17 34q0 38 -46 38q-11 0 -19 -2t-17 -7l-7 9l71 83q-33 3 -61 17t-48.5 36t-32 49.5t-11.5 59.5q0 50 23 96.5t61.5 82.5
t88 58t102.5 22q52 0 84.5 -23t32.5 -60q0 -22 -13 -37t-32 -15q-17 0 -30 16t-13 37q0 25 9 40q4 8 4 10q0 8 -12.5 12t-33.5 4q-111 0 -158 -134q-7 -20 -13.5 -43.5t-11 -46t-7 -42.5t-2.5 -35q0 -43 23 -65.5t66 -22.5q38 0 73 15t61 43q7 7 12.5 14t12 16.5t14 22.5
t18.5 32l15 -8q-43 -77 -89.5 -112.5t-110.5 -39.5z" />
    <glyph glyph-name="lslash" horiz-adv-x="253" 
d="M201 674h2q16 0 28.5 2t23.5 6.5t21.5 11t21.5 16.5l-96 -339l84 28l-6 -19l-83 -28l-78 -277q-3 -10 -5 -21.5t-2 -17.5q0 -10 6 -16t15 -6q45 0 104 85l11 -8q-37 -54 -70 -78t-69 -24q-30 0 -49 17.5t-19 45.5q0 11 2 23t5 24l65 228l-84 -28l5 19l84 28l88 312h-60
l4 16h51z" />
    <glyph glyph-name="eth" unicode="&#xf0;" horiz-adv-x="475" 
d="M272 602q-15 15 -27.5 27t-25.5 22t-28.5 19.5t-35.5 20.5l9 15q19 -9 39.5 -20.5t39 -24t34 -25t24.5 -23.5l120 50l7 -17l-114 -46q23 -23 40 -44t37 -53q18 -29 31 -55.5t21 -52t11.5 -52t3.5 -56.5q0 -130 -76 -214q-36 -40 -83 -61.5t-98 -21.5q-38 0 -69.5 12.5
t-54 34.5t-35 53t-12.5 68q0 51 21 96.5t56.5 80t83 55t100.5 20.5q27 0 46.5 -5t43.5 -19q-11 37 -19.5 63.5t-19 48.5t-24 42.5t-33.5 47.5l-131 -55l-7 18zM284 394q-26 0 -45 -5t-34.5 -17.5t-28.5 -33t-26 -50.5q-10 -23 -19 -50.5t-15.5 -54t-10.5 -50.5t-4 -40
q0 -42 24.5 -63.5t71.5 -21.5q45 0 74 17.5t49 55.5q10 20 21.5 53.5t21.5 68.5t16.5 67t6.5 49t-9 33.5t-24 26.5q-23 15 -69 15z" />
    <glyph glyph-name="thorn" unicode="&#xfe;" horiz-adv-x="536" 
d="M207 680q21 0 35.5 1.5t25.5 4.5t19 9t16 15l-104 -370q23 33 60 51.5t81 18.5q37 0 68.5 -12.5t54.5 -35t36 -53t13 -66.5q0 -53 -21.5 -99t-58 -80.5t-86.5 -54.5t-107 -20q-99 0 -119 73l-85 -304h60l-4 -15h-197l4 15h60l256 907h-60l4 15h49zM138 124q-4 -12 -4 -29
q0 -42 28 -65.5t79 -23.5q52 0 87.5 26.5t65.5 86.5q20 40 30.5 86.5t10.5 92.5q0 96 -96 96q-27 0 -52.5 -9.5t-47 -27t-37.5 -41t-24 -50.5z" />
    <glyph glyph-name="one" unicode="1" horiz-adv-x="427" 
d="M120 505q48 21 83.5 38t68.5 36.5t70 44t89 62.5h12l-189 -671h93l-4 -15h-280l4 15h97l164 581q-53 -34 -103.5 -59.5t-99.5 -44.5z" />
    <glyph glyph-name="two" unicode="2" horiz-adv-x="513" 
d="M395 81q14 0 19.5 4t17.5 22l19 28l12 -7q-12 -22 -20 -36t-14.5 -27t-13.5 -27.5t-18 -37.5h-403q14 58 69 114t156 113q31 18 54.5 34t42 31.5t33 31t26.5 32.5q28 40 43 84.5t15 88.5q0 61 -39.5 97t-106.5 36q-32 0 -60.5 -8.5t-50 -22.5t-34.5 -32.5t-13 -38.5
q0 -14 6 -24.5t21 -23.5q23 -19 32 -31.5t9 -24.5q0 -17 -11 -29t-28 -12q-23 0 -39 28t-16 70q0 76 55 121t149 45q52 0 98.5 -16t78.5 -44q46 -41 46 -109q0 -32 -9 -63t-25 -58.5t-38.5 -51t-50.5 -39.5q-26 -16 -59 -32.5t-78 -36.5q-84 -37 -138.5 -75t-74.5 -73h338z
" />
    <glyph glyph-name="three" unicode="3" horiz-adv-x="513" 
d="M236 382q45 0 82 11t57 31q24 23 38 60.5t14 79.5q0 98 -112 98q-26 0 -49.5 -5.5t-42 -14.5t-29.5 -21t-11 -24q0 -8 2.5 -10t10.5 -3q20 -1 31 -12.5t11 -31.5t-12 -32.5t-32 -12.5q-22 0 -35.5 15.5t-13.5 40.5q0 28 13 51.5t37 40.5t56.5 26.5t71.5 9.5
q43 0 79 -10.5t62 -28.5t40.5 -43.5t14.5 -55.5q0 -43 -26.5 -79t-76.5 -60q-23 -11 -46.5 -18t-61.5 -14q83 -17 120.5 -53.5t37.5 -102.5q0 -47 -21 -88t-58 -72t-86 -48.5t-105 -17.5q-36 0 -67 9t-53.5 25.5t-35.5 39t-13 48.5q0 18 6 33.5t16.5 27t24 18t29.5 6.5
q19 0 33 -13.5t14 -31.5q0 -22 -14.5 -36.5t-35.5 -14.5q-5 0 -7.5 0.5t-10.5 2.5q-6 2 -11 2q-7 0 -13 -7t-6 -15q0 -12 13.5 -28t31.5 -26q20 -11 45 -17t51 -6q91 0 131 71q20 36 32 83t12 91q0 32 -11.5 55t-33.5 34q-23 12 -57.5 18.5t-73.5 6.5h-46l5 18h85z" />
    <glyph glyph-name="four" unicode="4" horiz-adv-x="513" 
d="M399 253h112l-16 -57h-112l-51 -181h82l-4 -15h-252l5 15h83l51 181h-302q63 62 111.5 111t88 89t71.5 74t62.5 68t62 70t68.5 80l11 -10q-36 -42 -67 -77t-59.5 -66.5t-57.5 -62t-61.5 -63.5t-70.5 -71t-86 -85h245l62 218l103 62z" />
    <glyph glyph-name="five" unicode="5" horiz-adv-x="513" 
d="M217 672q31 -12 55 -20t44.5 -13t38.5 -7t38 -2q45 0 73.5 11.5t57.5 41.5q-1 -33 -12 -54t-40 -43q-26 -19 -57 -27.5t-74 -8.5q-17 0 -32.5 1t-31.5 3t-33 6t-38 9l-57 -198q32 33 66 47t82 14q41 0 74.5 -12t57.5 -34t37.5 -52.5t13.5 -67.5q0 -53 -27 -103t-71.5 -89
t-101.5 -63t-117 -24q-31 0 -58 9.5t-47 26.5t-31.5 39.5t-11.5 49.5q0 31 16 52.5t39 21.5q20 0 34 -17.5t14 -42.5q0 -20 -8 -31.5t-34 -27.5q-10 -7 -10 -18q0 -20 27 -33.5t68 -13.5q47 0 85.5 18t65.5 53q15 19 27.5 46t22 57t15 61t5.5 59q0 52 -31.5 83.5t-83.5 31.5
q-20 0 -40.5 -7t-38.5 -19t-31.5 -27t-18.5 -31q-10 -29 -20 -29q-5 0 -5 5v3z" />
    <glyph glyph-name="six" unicode="6" horiz-adv-x="533" 
d="M535 660q-75 -3 -128 -17.5t-92.5 -50t-70.5 -95.5t-64 -153q60 68 158 68q40 0 74 -12.5t58.5 -35t38 -54t13.5 -69.5q0 -50 -21.5 -96t-57.5 -81t-83 -56t-99 -21q-45 0 -82 17.5t-64 49.5t-41.5 76.5t-14.5 98.5q0 45 11.5 91t32.5 90t51 83.5t66 71.5
q62 54 138.5 81.5t162.5 27.5h18zM325 395q-45 0 -86.5 -24t-63.5 -63q-18 -32 -27.5 -76t-9.5 -93q0 -134 126 -134q49 0 79.5 27.5t53.5 93.5q36 102 36 160q0 109 -108 109z" />
    <glyph glyph-name="seven" unicode="7" horiz-adv-x="487" 
d="M84 506l20 50t14.5 38t13 38.5t17.5 52.5h14l-3 -11q-1 -2 -1 -5t4.5 -6t20.5 -8q54 -19 159 -19q43 0 77 2.5t62 8.5t50.5 15t43.5 23l10 -11q-25 -32 -52.5 -68t-54.5 -74t-53.5 -76t-49.5 -73q-8 -11 -19 -30t-23 -40l-24 -42t-20 -37q-20 -40 -29.5 -67t-9.5 -49
q0 -24 18 -27q22 -5 34.5 -19t12.5 -34q0 -22 -13.5 -36t-33.5 -14q-26 0 -41.5 19.5t-15.5 50.5q0 37 16 85t50 111.5t86.5 143.5t126.5 180q-22 -9 -44 -15.5t-46.5 -10.5t-54.5 -5.5t-69 -1.5q-19 0 -39.5 1t-39.5 3.5t-35.5 5.5t-27.5 6q-3 1 -7 1q-2 0 -3.5 -1.5
t-3.5 -6.5l-25 -54z" />
    <glyph glyph-name="eight" unicode="8" horiz-adv-x="513" 
d="M216 347q-19 23 -31.5 40.5t-20 33.5t-10.5 32t-3 36q0 40 16.5 75t45 60.5t67 40t83.5 14.5q71 0 114 -33.5t43 -88.5q0 -32 -17 -64t-47 -57q-10 -8 -19.5 -15t-21 -14.5t-25.5 -15.5t-34 -19q56 -54 80.5 -98t24.5 -90q0 -43 -17.5 -79t-49 -62t-75 -40.5t-95.5 -14.5
q-40 0 -74.5 11t-59.5 30.5t-39 45.5t-14 57q0 36 18 74.5t49 69.5q19 19 43 34t69 37zM341 384q162 74 162 169q0 24 -11 44t-30.5 34.5t-46.5 22.5t-60 8q-62 0 -101 -29t-39 -75q0 -18 5 -34t18.5 -35t38 -44t64.5 -61zM230 335q-38 -17 -58 -29t-39 -26
q-37 -29 -57.5 -66.5t-20.5 -75.5q0 -29 13 -53.5t36 -42.5t54.5 -28t67.5 -10q34 0 64 9.5t52 26t34.5 39t12.5 48.5q0 22 -7 42.5t-25 44t-49 52.5t-78 69z" />
    <glyph glyph-name="nine" unicode="9" horiz-adv-x="533" 
d="M75 2q76 4 132.5 23t99 57t73.5 99t57 149q-35 -39 -72 -55.5t-92 -16.5q-40 0 -73 13t-57 37t-37 57t-13 72q0 48 21 92t56.5 77.5t82.5 53t99 19.5q45 0 83 -17.5t65 -49.5t42 -76t15 -96q0 -57 -16.5 -113t-47 -107t-73.5 -93.5t-95 -72.5q-24 -14 -54 -26
t-61.5 -20.5t-62.5 -13.5t-58 -5h-18zM350 663q-55 0 -87.5 -33.5t-57.5 -112.5q-27 -90 -27 -146q0 -45 27 -71t73 -26q58 0 103.5 29.5t67.5 80.5q14 34 22.5 74t8.5 76q0 129 -130 129z" />
    <glyph glyph-name="zero" unicode="0" horiz-adv-x="515" 
d="M376 679q35 0 64 -16t50 -45t32.5 -68.5t11.5 -87.5q0 -89 -27 -174t-70.5 -152t-100 -107.5t-114.5 -40.5q-81 0 -125 91q-16 32 -24.5 71t-8.5 75q0 85 27 166.5t71 145.5t100 103t114 39zM377 662q-25 0 -46.5 -13t-42.5 -42.5t-42 -75.5t-43 -112q-32 -94 -48 -171.5
t-16 -137.5q0 -105 81 -105q25 0 46.5 11.5t41 37.5t39 69.5t42.5 108.5q15 45 27.5 90t21.5 86.5t14 78.5t5 65q0 57 -19 83.5t-61 26.5z" />
    <glyph glyph-name="sterling" unicode="&#xa3;" horiz-adv-x="513" 
d="M526 139q-24 -73 -67 -111.5t-101 -38.5q-21 0 -40.5 4.5t-39 15t-41 27t-46.5 40.5q-22 -25 -39.5 -42t-33.5 -27.5t-31 -15t-32 -4.5q-36 0 -60.5 22.5t-24.5 54.5q0 44 33.5 73t84.5 29q26 0 51.5 -6.5t60.5 -20.5q8 18 11.5 33.5t3.5 36.5q0 17 -5.5 51t-17.5 91
h-117l5 16h108q-4 22 -5 36.5t-1 31.5q0 45 11 80.5t35 66.5q38 49 90.5 75t113.5 26q63 0 103 -32t40 -83q0 -30 -16 -51t-39 -21q-18 0 -29.5 11.5t-11.5 28.5q0 18 9 28t32 15t23 24q0 12 -8.5 23.5t-22 20t-31 14t-35.5 5.5q-37 0 -68 -18t-53 -50.5t-34 -78t-12 -99.5
v-22t2 -31h144l-5 -16h-138q1 -10 1 -17.5v-12.5q0 -103 -57 -194q51 -23 81.5 -35.5t49 -19.5t30 -8.5t25.5 -1.5q35 0 57.5 17.5t40.5 59.5h16zM173 93q-29 26 -52.5 38t-48.5 12q-35 0 -60.5 -23t-25.5 -55q0 -26 20.5 -44t49.5 -18q64 0 117 90z" />
    <glyph glyph-name="dollar" unicode="$" horiz-adv-x="513" 
d="M571 657q-11 -34 -18.5 -56t-13.5 -41.5t-12.5 -42.5t-16.5 -58h-16q3 15 5.5 25.5t3.5 18t1.5 13.5t0.5 13q0 25 -12.5 52t-32.5 45q-16 14 -33 22.5t-45 14.5l-72 -254q10 -5 19.5 -10t19.5 -10q44 -23 65.5 -39.5t35.5 -36.5q28 -40 28 -95q0 -48 -19 -90t-51 -73.5
t-75.5 -49.5t-92.5 -18q-8 0 -21 0.5t-27 2.5l-39 -138h-18l39 138q-19 6 -34.5 12.5t-29.5 12.5q-12 8 -23 15.5t-22 15.5q-15 11 -25 15t-19 4q-14 0 -24.5 -10t-21.5 -34h-17q18 42 29 69t20 50.5t17.5 49.5t22.5 66h16q-10 -35 -14 -58.5t-4 -48.5q0 -33 11.5 -56
t38.5 -44q21 -17 39.5 -25.5t44.5 -15.5l85 301q-20 11 -33 18.5t-22 13.5t-15.5 11.5t-13.5 11.5q-21 20 -33 51.5t-12 66.5q0 45 17.5 83.5t50.5 66.5q32 26 66 37.5t84 11.5h16l28 101h18l-28 -101q20 -6 32.5 -9.5t23 -8t22.5 -12t32 -19.5q15 -9 25 -9t16.5 6t18.5 28
h14zM364 665q-9 1 -15.5 1h-11.5q-33 0 -62.5 -10.5t-52 -28t-35.5 -41t-13 -50.5q0 -20 5 -34.5t18.5 -28t37 -27.5t59.5 -31zM196 4q14 -1 26.5 -1.5t20.5 -0.5q36 0 67 12t53.5 34t35.5 51t13 64q0 47 -31 81q-11 13 -30 24t-54 26q-5 2 -9 3.5t-8 3.5z" />
    <glyph glyph-name="cent" unicode="&#xa2;" horiz-adv-x="513" 
d="M397 614l-18 -65q55 -2 85 -23.5t30 -58.5q0 -23 -12.5 -38t-31.5 -15t-32 16.5t-13 40.5q0 18 8 32q4 8 4.5 9.5t0.5 3.5q0 8 -10 11t-34 5l-108 -387q64 1 111.5 35.5t82.5 106.5l15 -9q-38 -78 -88.5 -114t-125.5 -38l-18 -73h-20l19 76q-64 13 -102.5 56t-38.5 103
t33.5 117.5t92.5 96.5q32 21 61.5 31.5t72.5 15.5l18 65h18zM356 531q-26 -3 -41.5 -8.5t-29.5 -16.5q-29 -23 -49 -59.5t-35 -94.5q-21 -77 -21 -124q0 -70 69 -81z" />
    <glyph glyph-name="florin" unicode="&#x192;" horiz-adv-x="513" 
d="M469 419h-99q-68 -154 -116.5 -257.5t-78.5 -158.5q-47 -86 -99.5 -133t-100.5 -47q-26 0 -43 15.5t-17 38.5q0 20 13.5 34.5t33.5 14.5q17 0 28.5 -10.5t11.5 -27.5q0 -16 -14 -30q-6 -6 -6 -10q0 -8 13 -8q17 0 37.5 16.5t39.5 46.5q8 13 14.5 23.5t13.5 24.5t15.5 33
t20.5 49.5t29 74.5t42 107q8 21 14.5 37.5t15 37.5t20.5 51t32 78h-84l8 15h83q19 44 36.5 78t35 62.5t36 52.5t41.5 48q90 94 163 94q28 0 45 -15t17 -38q0 -21 -13.5 -34.5t-33.5 -13.5q-19 0 -32 12.5t-13 30.5t14 29q5 7 5 8q0 6 -9 6q-33 0 -77 -56q-14 -18 -30.5 -47
t-34.5 -64t-36 -74.5t-34 -78.5h100z" />
    <glyph glyph-name="yen" unicode="&#xa5;" horiz-adv-x="513" 
d="M200 652h-65l4 15h232l-5 -15h-79l26 -354l218 306q15 20 15 36q0 12 -14 12h-48l4 15h135l-5 -15h-19q-7 0 -13 -5t-16 -18l-165 -229h126l-5 -15h-132l-79 -110l-12 -42h181l-5 -15h-180l-58 -203h81l-5 -15h-239l5 15h72l57 203h-174l4 15h175l16 57l-9 95h-139l4 15
h133z" />
    <glyph glyph-name="onesuperior" unicode="&#xb9;" horiz-adv-x="340" 
d="M157 569q32 13 54 23t42.5 21.5t43.5 26.5t58 38h12l-112 -396h59l-4 -16h-183l5 16h61l93 334q-25 -17 -60 -33.5t-64 -25.5z" />
    <glyph glyph-name="twosuperior" unicode="&#xb2;" horiz-adv-x="340" 
d="M314 321q8 0 10.5 2t8.5 11l14 20l13 -7q-8 -14 -13.5 -22.5t-9.5 -17t-8.5 -17.5t-11.5 -24h-260q8 37 42 71t100 69q40 23 60.5 39t35.5 36q34 46 34 98q0 35 -25 56.5t-67 21.5q-19 0 -36.5 -4.5t-30.5 -12t-20.5 -18t-7.5 -21.5q0 -8 3.5 -13.5t13.5 -12.5
q28 -22 28 -36q0 -12 -8.5 -20t-20.5 -8q-16 0 -27 18t-11 44q0 47 35.5 74t95.5 27q65 0 105.5 -29t40.5 -75q0 -38 -21 -72.5t-56 -54.5q-18 -10 -38 -19t-49 -22q-51 -22 -79.5 -40t-48.5 -41h209z" />
    <glyph glyph-name="threesuperior" unicode="&#xb3;" horiz-adv-x="340" 
d="M210 498q28 0 50.5 6t33.5 17q14 13 22 34t8 44q0 58 -69 58q-30 0 -54.5 -10.5t-24.5 -23.5q0 -3 2 -4t11 -3q23 -3 23 -28q0 -13 -8.5 -21.5t-22.5 -8.5q-15 0 -24.5 10t-9.5 26q0 35 32 57.5t83 22.5q56 0 91.5 -24t35.5 -62q0 -36 -31 -62.5t-85 -37.5q86 -19 86 -93
q0 -28 -13.5 -52.5t-37 -43t-54.5 -29t-67 -10.5q-47 0 -78.5 21.5t-31.5 53.5q0 22 15 37.5t36 15.5q14 0 23.5 -8.5t9.5 -20.5q0 -14 -10.5 -24t-24.5 -10q-7 0 -12 2q-2 1 -5 1q-9 0 -9 -8t7.5 -16t20 -14t28 -9.5t31.5 -3.5q55 0 78 40q11 20 18 46t7 52q0 35 -26 50.5
t-83 15.5h-33l5 17h57z" />
    <glyph glyph-name="period" unicode="." horiz-adv-x="253" 
d="M113 110q20 0 33.5 -14.5t13.5 -37.5q0 -28 -17 -48t-41 -20q-21 0 -35 14.5t-14 36.5q0 28 18 48.5t42 20.5z" />
    <glyph glyph-name="colon" unicode=":" horiz-adv-x="253" 
d="M113 110q20 0 33.5 -14.5t13.5 -37.5q0 -28 -17 -48t-41 -20q-21 0 -35 14.5t-14 36.5q0 28 18 48.5t42 20.5zM186 370q20 0 33.5 -14.5t13.5 -37.5q0 -28 -17 -48t-41 -20q-21 0 -35 14.5t-14 36.5q0 28 18 48.5t42 20.5z" />
    <glyph glyph-name="periodcentered" unicode="&#xb7;" horiz-adv-x="253" 
d="M138 264q20 0 33 -14.5t13 -37.5q0 -28 -17 -48t-41 -20q-21 0 -35 14.5t-14 36.5q0 28 18 48.5t43 20.5z" />
    <glyph glyph-name="periodcentered" unicode="&#x2219;" horiz-adv-x="253" 
d="M138 264q20 0 33 -14.5t13 -37.5q0 -28 -17 -48t-41 -20q-21 0 -35 14.5t-14 36.5q0 28 18 48.5t43 20.5z" />
    <glyph glyph-name="periodcentered" horiz-adv-x="253" 
d="M138 264q20 0 33 -14.5t13 -37.5q0 -28 -17 -48t-41 -20q-21 0 -35 14.5t-14 36.5q0 28 18 48.5t43 20.5z" />
    <glyph glyph-name="ellipsis" unicode="&#x2026;" horiz-adv-x="760" 
d="M113 110q20 0 33.5 -14.5t13.5 -37.5q0 -28 -17 -48t-41 -20q-21 0 -35 14.5t-14 36.5q0 28 18 48.5t42 20.5zM366 110q20 0 33.5 -14.5t13.5 -37.5q0 -28 -17 -48t-41 -20q-21 0 -35 14.5t-14 36.5q0 28 18 48.5t42 20.5zM620 110q20 0 33.5 -14.5t13.5 -37.5
q0 -28 -17 -48t-41 -20q-21 0 -35 14.5t-14 36.5q0 28 18 48.5t42 20.5z" />
    <glyph glyph-name="comma" unicode="," horiz-adv-x="253" 
d="M-1 -172q15 10 25 16.5t17.5 11.5l13.5 9t13 10q29 23 45.5 53t16.5 59q0 8 -2.5 13t-7.5 5q-2 0 -3 -1t-8 -6q-13 -8 -27 -8q-23 0 -38.5 15.5t-15.5 37.5q0 24 17.5 41t42.5 17q29 0 49.5 -26t20.5 -63q0 -54 -39 -103.5t-113 -91.5z" />
    <glyph glyph-name="semicolon" unicode=";" horiz-adv-x="253" 
d="M-1 -172q15 10 25 16.5t17.5 11.5l13.5 9t13 10q29 23 45.5 53t16.5 59q0 8 -2.5 13t-7.5 5q-2 0 -3 -1t-8 -6q-13 -8 -27 -8q-23 0 -38.5 15.5t-15.5 37.5q0 24 17.5 41t42.5 17q29 0 49.5 -26t20.5 -63q0 -54 -39 -103.5t-113 -91.5zM169 370q20 0 33.5 -14.5
t13.5 -37.5q0 -28 -17 -48t-41 -20q-21 0 -35 14.5t-14 36.5q0 28 18 48.5t42 20.5z" />
    <glyph glyph-name="quoteleft" unicode="&#x2018;" horiz-adv-x="276" 
d="M325 696q-15 -9 -25 -15.5t-17 -11.5t-13.5 -9.5t-13.5 -10.5q-29 -23 -45.5 -53t-16.5 -59q0 -8 2.5 -13t7.5 -5q2 0 3 0.5t8 5.5q12 9 29 9q22 0 37 -12t15 -30q0 -13 -5.5 -25.5t-14.5 -22.5t-20.5 -16t-22.5 -6q-13 0 -25 7.5t-21.5 20t-15 28.5t-5.5 34
q0 54 39.5 104t112.5 91z" />
    <glyph glyph-name="quotedblright" unicode="&#x201d;" horiz-adv-x="458" 
d="M154 442q28 12 44 21t33 21q32 23 51 52.5t19 54.5q0 11 -5.5 20t-13.5 9q-5 0 -12 -6q-17 -11 -30 -11q-19 0 -32.5 14.5t-13.5 34.5q0 23 17 39t41 16q32 0 52 -23.5t20 -60.5q0 -63 -45 -115t-121 -78zM338 442q28 12 44 21t33 21q32 23 51 52.5t19 54.5q0 11 -5.5 20
t-13.5 9q-5 0 -12 -6q-16 -11 -30 -11q-19 0 -32.5 14.5t-13.5 34.5q0 23 17 39t41 16q32 0 52 -23.5t20 -60.5q0 -63 -45 -115t-121 -78z" />
    <glyph glyph-name="quotedblleft" unicode="&#x201c;" horiz-adv-x="458" 
d="M523 697q-32 -18 -49 -28.5t-33 -23.5q-31 -25 -48 -52t-17 -50q0 -10 5 -17t13 -7q3 0 5 1t11 7t21 6q20 0 33.5 -14t13.5 -34q0 -23 -17.5 -39.5t-42.5 -16.5q-29 0 -48.5 23t-19.5 59q0 37 19 72.5t57 66.5q9 7 17.5 13.5t18.5 13t22.5 14t29.5 16.5zM334 697
q-32 -18 -49 -28.5t-33 -23.5q-31 -25 -48 -52t-17 -50q0 -10 5 -17t13 -7q3 0 5 1t11 7t22 6q20 0 33.5 -14t13.5 -34q0 -23 -17.5 -39.5t-42.5 -16.5q-30 0 -49.5 23.5t-19.5 58.5q0 76 77 139q9 7 17 13.5t18 13t22.5 14t29.5 16.5z" />
    <glyph glyph-name="quotedblbase" unicode="&#x201e;" horiz-adv-x="458" 
d="M-19 -171q28 12 44 21t33 21q32 23 51 52.5t19 55.5q0 11 -5.5 19.5t-13.5 8.5q-5 0 -12 -6q-15 -11 -30 -11q-19 0 -32.5 14.5t-13.5 34.5q0 23 17 39t41 16q32 0 52 -23.5t20 -60.5q0 -63 -45 -115t-121 -78zM165 -171q28 12 44 21t33 21q32 23 51 52.5t19 54.5
q0 11 -5.5 20t-13.5 9q-5 0 -12 -6q-16 -11 -30 -11q-19 0 -32.5 14.5t-13.5 34.5q0 23 17 39t41 16q32 0 52 -23.5t20 -60.5q0 -63 -45 -115t-121 -78z" />
    <glyph glyph-name="exclam" unicode="!" horiz-adv-x="267" 
d="M288 680q-5 -20 -7 -32t-2 -24q0 -26 6 -40t22 -27q-18 -15 -41.5 -53.5t-47.5 -92.5t-47 -118t-41 -130h-13q5 19 9 32.5t7 24.5t6 20.5t6 20.5q20 66 31 133.5t11 119.5v18.5t-2 24.5q31 17 52.5 45.5t38.5 77.5h12zM100 110q20 0 33.5 -14.5t13.5 -37.5q0 -28 -17 -48
t-41 -20q-21 0 -35 14.5t-14 36.5q0 28 18 48.5t42 20.5z" />
    <glyph glyph-name="exclamdown" unicode="&#xa1;" horiz-adv-x="267" 
d="M-11 -267q5 20 6.5 32t1.5 24q0 26 -6 40.5t-21 27.5q18 15 41 53.5t47 92t47 118t41 130.5h13l-17 -61l-7 -25l-4 -12q-9 -33 -17 -67t-13 -67t-8 -63.5t-3 -55.5v-17.5t2 -25.5q-31 -17 -53 -46.5t-39 -77.5h-11zM188 424q21 0 35 -14.5t14 -35.5q0 -29 -17.5 -49.5
t-42.5 -20.5q-20 0 -33.5 15t-13.5 38q0 27 17 47t41 20z" />
    <glyph glyph-name="question" unicode="?" horiz-adv-x="388" 
d="M143 291q8 20 16.5 40t16.5 41q7 15 13.5 24t18 16.5t31.5 15.5t55 21q128 46 128 123q0 42 -36.5 68t-95.5 26q-45 0 -73.5 -17t-28.5 -43q0 -11 3.5 -13.5t23.5 -6.5q10 -3 17 -12.5t7 -20.5q0 -19 -12.5 -32t-30.5 -13q-19 0 -32 16t-13 39q0 25 11 46.5t30 37
t45.5 24.5t56.5 9q34 0 62 -10.5t48 -29.5t31.5 -45.5t11.5 -58.5q0 -31 -10 -58t-28 -46q-13 -14 -26 -24.5t-31.5 -21.5t-45.5 -23.5t-67 -30.5q-45 -20 -63 -32.5t-23 -28.5l-33 -88h-12zM90 110q20 0 33.5 -14.5t13.5 -36.5q0 -29 -17 -49t-41 -20q-21 0 -35 14.5
t-14 36.5q0 28 18 48.5t42 20.5z" />
    <glyph glyph-name="questiondown" unicode="&#xbf;" horiz-adv-x="388" 
d="M255 122l-16 -40l-16 -40q-8 -15 -14 -24.5t-17.5 -17.5t-31.5 -16t-55 -20q-128 -46 -128 -123q0 -42 36.5 -68t94.5 -26q45 0 73.5 17t28.5 44q0 10 -3.5 12.5t-23.5 7.5q-10 2 -17 12t-7 21q0 19 12.5 32t30.5 13q20 0 32.5 -16t12.5 -40q0 -25 -11 -46.5t-30 -37
t-45 -24.5t-56 -9q-34 0 -62 10.5t-48.5 29.5t-31.5 45.5t-11 58.5q0 31 10 58t28 46q13 13 25.5 23.5t30.5 21.5t45 24t69 31q46 20 63.5 32.5t22.5 28.5l33 88h12zM320 424q20 0 34.5 -14.5t14.5 -35.5q0 -29 -17.5 -49.5t-42.5 -20.5q-20 0 -33.5 14.5t-13.5 37.5
q0 29 17 48.5t41 19.5z" />
    <glyph glyph-name="guillemotright" unicode="&#xbb;" horiz-adv-x="373" 
d="M216 206l-146 -168l-16 14l133 154l-82 153l19 11zM324 206l-145 -168l-17 14l133 154l-82 153l20 11z" />
    <glyph glyph-name="guillemotleft" unicode="&#xab;" horiz-adv-x="373" 
d="M165 202l146 167l16 -14l-133 -153l82 -153l-19 -12zM57 202l145 167l17 -14l-133 -153l82 -153l-20 -12z" />
    <glyph glyph-name="guilsinglright" unicode="&#x203a;" horiz-adv-x="264" 
d="M216 206l-146 -168l-16 14l133 154l-82 153l19 11z" />
    <glyph glyph-name="guilsinglleft" unicode="&#x2039;" horiz-adv-x="264" 
d="M57 202l145 167l17 -14l-133 -153l82 -153l-20 -12z" />
    <glyph glyph-name="slash" unicode="/" horiz-adv-x="346" 
d="M-72 -257h-40l488 957h41z" />
    <glyph glyph-name="hyphen" unicode="-" horiz-adv-x="197" 
d="M208 230l-13 -47h-197l13 47h197z" />
    <glyph glyph-name="sfthyphen" horiz-adv-x="197" 
d="M208 230l-13 -47h-197l13 47h197z" />
    <glyph glyph-name="endash" unicode="&#x2013;" horiz-adv-x="513" 
d="M457 230l-14 -47h-377l13 47h378z" />
    <glyph glyph-name="emdash" unicode="&#x2014;" horiz-adv-x="590" 
d="M601 230l-13 -47h-590l13 47h590z" />
    <glyph glyph-name="parenleft" unicode="(" horiz-adv-x="238" 
d="M347 693q-41 -42 -74 -81.5t-60 -79t-49.5 -81t-41.5 -88.5q-74 -178 -74 -381q0 -34 1.5 -63t5.5 -57t9.5 -57t14.5 -63l-25 -9q-9 33 -15 62.5t-10 59t-5.5 60.5t-1.5 67q0 188 63 359q19 52 40.5 95.5t49.5 85.5t65 87t89 101z" />
    <glyph glyph-name="parenright" unicode=")" horiz-adv-x="238" 
d="M-90 -250q41 42 73.5 81t59.5 78.5t49 81t42 88.5q74 180 74 382q0 34 -1.5 63t-5 56.5t-9 56.5t-14.5 63l25 10q9 -33 14.5 -63t9.5 -60t5.5 -61t1.5 -66q0 -187 -63 -358q-20 -53 -41 -96.5t-48.5 -85.5t-65 -87t-88.5 -100z" />
    <glyph glyph-name="bracketleft" unicode="[" horiz-adv-x="238" 
d="M361 700l-5 -20h-137l-259 -917h137l-5 -20h-163l270 957h162z" />
    <glyph glyph-name="bracketright" unicode="]" horiz-adv-x="238" 
d="M-106 -257l6 20h137l258 917h-137l6 20h162l-269 -957h-163z" />
    <glyph glyph-name="ampersand" unicode="&#x26;" horiz-adv-x="659" 
d="M625 117q-21 -62 -54.5 -94.5t-76.5 -32.5q-38 0 -69.5 26t-72.5 91q-28 -34 -46 -51t-38 -31q-53 -37 -100 -37q-28 0 -54 14t-46 37t-32 53.5t-12 62.5q0 67 47.5 115t155.5 93q-12 35 -17 59.5t-5 52.5q0 33 11.5 61.5t31.5 49.5t47 33.5t57 12.5q42 0 70 -26.5
t28 -67.5q0 -36 -20 -67t-58 -54q-14 -8 -27 -14.5t-36 -17.5q12 -33 37.5 -86t56.5 -109q33 51 76 81.5t80 30.5q29 0 48 -17t19 -42q0 -23 -15.5 -38.5t-37.5 -15.5q-8 0 -17.5 3.5t-17.5 8.5t-13 11t-5 11l2 44q0 6 -7 6q-8 0 -21 -9t-28.5 -22.5t-30.5 -30.5t-25 -33
q21 -38 38 -63t32 -40.5t29.5 -22t29.5 -6.5q12 0 21.5 3t18 11.5t16.5 22t18 34.5h12zM304 397q68 27 99 61t31 81q0 32 -23 55t-55 23q-36 0 -58 -28.5t-22 -76.5q0 -26 5.5 -50.5t22.5 -64.5zM232 350q-12 -6 -20 -9.5t-13 -6t-9.5 -4.5t-9.5 -5q-35 -19 -55.5 -48.5
t-20.5 -62.5q0 -32 11.5 -63t31 -55t43.5 -39t50 -15q22 0 45.5 16.5t59.5 58.5q-14 23 -31 56t-33.5 66.5t-29.5 63.5t-19 47z" />
    <glyph glyph-name="section" unicode="&#xa7;" horiz-adv-x="547" 
d="M122 131q-24 16 -37.5 42.5t-13.5 56.5q0 27 10 54.5t28 51.5t43 44t54 33q-17 20 -23.5 37t-6.5 40q0 40 17 74.5t46.5 60.5t69.5 41t86 15q31 0 58 -8.5t46.5 -23t31 -34.5t11.5 -43t-16.5 -40t-38.5 -17q-20 0 -34.5 14t-14.5 34t13.5 32.5t37.5 15.5q10 1 10 8
q0 10 -17 22q-34 25 -90 25q-35 0 -64.5 -8.5t-51 -24t-33.5 -36.5t-12 -46q0 -18 6.5 -33.5t23.5 -32.5q8 -9 16.5 -16.5t14.5 -11.5l154 -93q35 -21 54.5 -51t19.5 -61q0 -27 -11.5 -58.5t-31.5 -61.5q-10 -15 -19 -25.5t-19.5 -19.5t-23 -16.5t-28.5 -16.5
q14 -20 18.5 -37.5t4.5 -45.5q0 -48 -17.5 -88t-48.5 -69.5t-73.5 -46t-93.5 -16.5q-39 0 -72 9.5t-57.5 26.5t-38 40t-13.5 50q0 32 19 54.5t45 22.5q20 0 34 -14t14 -34q0 -21 -13.5 -34t-36.5 -13h-5t-8 2q-2 1 -4.5 1h-4.5q-13 0 -13 -14q0 -16 13 -30.5t34 -26
t48.5 -18t56.5 -6.5q39 0 72.5 10.5t58 29.5t38.5 44.5t14 54.5q0 70 -107 141zM231 390q-2 2 -5 4t-8 7q-42 -15 -70 -47.5t-28 -65.5q0 -22 13.5 -42.5t37.5 -36.5l173 -110q8 -5 14.5 -11t20.5 -22q45 23 69.5 55t24.5 68q0 22 -19 48t-47 44z" />
    <glyph glyph-name="dagger" unicode="&#x2020;" horiz-adv-x="545" 
d="M132 286q-6 -2 -8 -2q-7 0 -7 10q0 11 11 22q-10 0 -21 2.5t-20.5 5.5t-15.5 6.5t-6 6.5q0 4 6 8t16 8t21.5 6.5t22.5 3.5q-4 11 -4 16q0 4 3 7.5t7 3.5q3 0 5 -0.5t13 -5.5q24 -10 40.5 -16.5t32 -10.5t33 -7t43.5 -7q6 19 10.5 41t8 44t5.5 43t2 38v13.5t-1.5 13
t-4.5 20t-8 35.5q-2 10 -2 11q0 9 9 9q15 0 29 -21l4 8q6 14 9.5 22.5t7.5 15t9 12t13 14.5t11 11.5t5 2.5q6 0 6 -21q0 -32 -6 -65q14 16 30 16q9 0 9 -9q0 -3 -1 -5t-6 -7q-23 -32 -40.5 -58.5t-31.5 -54.5t-26 -59t-24 -70q15 0 36.5 3.5t44.5 9t45.5 12.5t40.5 15
q8 4 11 5t7 1q9 0 9 -9q0 -5 -2 -9.5t-7 -14.5q23 -2 40 -8t17 -13q0 -8 -25 -16q-8 -3 -16 -4.5t-29 -3.5q7 -10 7 -18q0 -13 -9 -13q-2 0 -6 2q-29 12 -51 20.5t-41 13.5t-37.5 8t-39.5 4q-3 -11 -6 -21t-6 -23t-6 -30t-7 -40q-5 -27 -10.5 -55t-10.5 -57
q-7 -36 -12 -66.5t-8 -58t-4.5 -52.5t-1.5 -51v-4q1 -3 1 -7t-3.5 -7.5t-8.5 -3.5q-10 0 -21 17q-8 -18 -17.5 -35t-18.5 -30.5t-16 -21.5t-11 -8q-10 0 -10 22q0 16 2 29.5t7 36.5l3 12q-8 -8 -17 -13.5t-16 -5.5q-8 0 -8 8q0 3 1.5 5.5t9.5 16.5q25 43 47.5 88.5t44 99
t43 116t44.5 139.5q-28 -1 -52 -4.5t-39 -9.5l-68 -25z" />
    <glyph glyph-name="daggerdbl" unicode="&#x2021;" horiz-adv-x="547" 
d="M133 370q-2 6 -2 9t3.5 6.5t6.5 3.5q6 0 17 -6q45 -20 83.5 -30t67.5 -11q8 31 13 53t8 38t4 28t1 24q0 27 -3.5 54t-8.5 40q-6 12 -6 21t10 9q8 0 14.5 -4.5t14.5 -15.5q13 35 28.5 60t24.5 25q5 0 9 -7.5t4 -16.5t-1 -21t-6 -40q18 14 29 14q10 0 10 -7t-11 -18
q-30 -31 -61.5 -94t-56.5 -142q34 1 78.5 11.5t92.5 30.5q9 3 15 3q9 0 9 -9q0 -4 -2 -8.5t-8 -14.5q26 -2 42 -7.5t16 -13.5q0 -3 -10 -9t-21 -10q-7 -2 -16 -3t-25 -2q8 -11 8 -19q0 -13 -10 -13q-6 0 -17 8q-9 6 -26.5 13t-39.5 12.5t-45.5 9.5t-44.5 5
q-6 -35 -10.5 -57.5t-6.5 -33.5q-3 -11 -5 -18.5t-5 -16.5t-8 -21t-13 -32q-2 -7 -5 -13t-5 -12q24 1 41 2.5t34 5.5t37 12t51 21q6 2 9 2q9 0 9 -10q0 -5 -2 -10t-8 -13q25 -1 44 -7t19 -13q0 -4 -10 -10.5t-21 -9.5q-6 -2 -13.5 -3t-21.5 -3q5 -8 5 -14q0 -13 -11 -13
q-8 0 -22 8q-8 5 -25 11t-37.5 11t-42.5 9t-40 6q-8 -26 -13 -46t-8 -37t-4 -33t-1 -33q0 -27 3.5 -51.5t10.5 -41.5q3 -9 3 -14q0 -11 -10 -11q-6 0 -12 4.5t-16 16.5q-5 -11 -7.5 -17.5t-6 -12.5t-8 -12.5t-13.5 -18.5q-13 -17 -16 -20.5t-5 -3.5q-4 0 -7 6t-3 14v8.5
t1 11t2.5 17.5t3.5 28q-9 -10 -15 -13.5t-13 -3.5q-11 0 -11 8q0 6 10 18q43 57 70.5 112.5t47.5 124.5q-15 0 -39.5 -4t-50.5 -10t-47.5 -13t-30.5 -13q-12 -5 -17 -5q-10 0 -10 10q0 5 5 13l5 9q-18 1 -26 2.5t-16 4.5q-7 4 -11.5 8t-4.5 6q0 8 20 15t50 9q-8 12 -8 20
q0 5 3 8.5t7 3.5q6 0 20 -7q44 -20 82 -29.5t73 -9.5l4 21l8 38q4 18 8 33t9.5 31t13 35.5t18.5 45.5q-16 1 -35.5 -1.5t-40.5 -7.5t-41.5 -12t-37.5 -16q-11 -6 -19 -6q-11 0 -11 11q0 8 12 20q-29 4 -46.5 10t-17.5 12q0 2 10 8t21 11q7 2 15 3.5t22 3.5z" />
    <glyph glyph-name="asterisk" unicode="*" horiz-adv-x="547" 
d="M225 612q4 23 12 23q5 0 12 -12q22 -35 49.5 -61.5t62.5 -45.5q5 14 6.5 26t1.5 32q0 30 -4 55.5t-12 40.5l-2 6q0 7 9 7q10 0 18 -7l6 -3q5 16 13.5 27t14.5 11q10 0 10 -27v-8t-1 -12q13 4 22 4q10 0 10 -7q0 -2 -1 -3.5t-7 -7.5q-23 -29 -38.5 -61t-27.5 -73
q45 7 83 20t61 30q7 6 12 6q7 0 7 -11q0 -9 -4 -20q45 -2 45 -14t-40 -23q7 -15 7 -25q0 -9 -8 -9q-2 0 -9 3q-9 6 -26 11.5t-36 10t-38 7.5t-34 3h-10t-14 -1q24 -42 49.5 -71.5t55.5 -49.5q8 -5 8 -10q0 -10 -17 -10h-13q2 -9 3.5 -17t1.5 -16q0 -15 -11 -15
q-4 0 -12.5 9.5t-18.5 23.5q-4 -4 -13 -9.5t-11 -5.5q-8 0 -8 12v4q1 4 1 19q0 21 -1 37t-4 30.5t-8 28.5t-13 31q-13 -9 -26.5 -24t-25.5 -32.5t-21.5 -36.5t-14.5 -36q-2 -5 -5.5 -8.5t-6.5 -3.5q-7 0 -11 17l-3 8q-15 -10 -21.5 -13t-14.5 -3q-10 0 -10 7t5.5 17.5
t13.5 20.5l-3 3q-16 10 -19 12t-3 6t9 6q41 9 82.5 28t67.5 41q-43 20 -80 28.5t-76 10.5q-11 0 -13.5 1t-2.5 6t3.5 8.5t17.5 13.5q-14 9 -22.5 18.5t-8.5 14.5q0 9 13 9q14 0 36 -8z" />
    <glyph glyph-name="quotesingle" unicode="'" horiz-adv-x="107" 
d="M107 418l67 249h27l-73 -249h-21z" />
    <glyph glyph-name="quotedbl" unicode="&#x22;" horiz-adv-x="187" 
d="M107 418l67 249h27l-73 -249h-21zM187 418l67 249h27l-73 -249h-21z" />
    <glyph glyph-name="at" unicode="@" horiz-adv-x="733" 
d="M525 213q-5 -18 -5 -31q0 -11 7.5 -18.5t18.5 -7.5q18 0 46 20.5t51 49.5q29 38 44.5 82.5t15.5 90.5q0 54 -22.5 102t-61.5 83.5t-91 56.5t-111 21q-68 0 -127 -26t-102.5 -71t-69 -105.5t-25.5 -129.5q0 -68 24.5 -127.5t67 -103.5t100 -69.5t122.5 -25.5
q45 0 89.5 14.5t83 39t67 57.5t41.5 70h23q-17 -44 -47.5 -80.5t-71 -63t-88 -41t-97.5 -14.5q-70 0 -130.5 26.5t-105.5 73t-71 109t-26 134.5q0 73 27 137t73.5 112t108.5 75.5t133 27.5q65 0 121 -22t97 -60t64.5 -90t23.5 -112q0 -64 -24.5 -119.5t-69.5 -94.5
q-26 -24 -54 -36.5t-52 -12.5q-29 0 -49.5 16t-20.5 37q0 5 1 11.5t3 14.5q-31 -45 -61.5 -64t-68.5 -19q-52 0 -81 36q-37 46 -37 110q0 102 75 179q36 37 79 57.5t82 20.5q65 0 79 -72l14 51h73zM512 423q1 3 1 9q0 38 -18.5 60.5t-50.5 22.5q-81 0 -125 -113
q-20 -50 -32.5 -102.5t-12.5 -84.5t15.5 -50t43.5 -18q20 0 41 10t39.5 27.5t33 40.5t22.5 49z" />
    <glyph glyph-name="numbersign" unicode="#" horiz-adv-x="547" 
d="M305 0h-31l79 254h-118l-80 -254h-33l79 254h-143l5 31h148l36 113h-140l4 32h146l74 237h34l-74 -237h117l76 237h30l-73 -237h133l-5 -32h-138l-36 -113h132l-5 -31h-137zM280 398l-35 -113h118l35 113h-118z" />
    <glyph glyph-name="degree" unicode="&#xb0;" horiz-adv-x="394" 
d="M299 678q27 0 52 -11t43.5 -30t29.5 -44.5t11 -53.5q0 -29 -11 -55t-29.5 -45t-44 -30t-53.5 -11q-29 0 -55 11t-45 30t-30 45t-11 55t11 54.5t30 44t45.5 29.5t56.5 11zM293 647q-22 0 -41.5 -8.5t-34 -23.5t-23 -34.5t-8.5 -41.5q0 -23 8.5 -43t23.5 -35t35 -23.5
t43 -8.5q22 0 42 8.5t35 23.5t23.5 34.5t8.5 41.5q0 23 -8.5 43t-23.5 35t-35.5 23.5t-44.5 8.5z" />
    <glyph glyph-name="plus" unicode="+" horiz-adv-x="513" 
d="M515 321h-204v-216h-26v216h-204v27h204v216h26v-216h204v-27z" />
    <glyph glyph-name="minus" unicode="&#xad;" horiz-adv-x="513" 
d="M515 321h-434v27h434v-27z" />
    <glyph glyph-name="multiply" unicode="&#xd7;" horiz-adv-x="513" 
d="M472 490l-156 -155l165 -165l-19 -19l-165 165l-155 -156l-19 19l156 156l-165 165l19 18l164 -165l156 156z" />
    <glyph glyph-name="divide" unicode="&#xf7;" horiz-adv-x="513" 
d="M81 348h434v-27h-434v27zM298 224q14 0 25 -11t11 -26t-11 -26t-26 -11q-16 0 -26.5 11t-10.5 26q0 16 11 26.5t27 10.5zM298 519q14 0 25 -11t11 -26t-11 -26t-26 -11q-16 0 -26.5 11t-10.5 26q0 16 11 26.5t27 10.5z" />
    <glyph glyph-name="equal" unicode="=" horiz-adv-x="513" 
d="M514 376h-433v27h433v-27zM514 265h-433v27h433v-27z" />
    <glyph glyph-name="trademark" unicode="&#x2122;" horiz-adv-x="934" 
d="M515 667l-37 -131h-17l8 27q2 10 2 20q0 32 -14 50.5t-37 18.5h-59l-99 -350h51l-4 -15h-159l5 15h46l98 350h-49q-35 0 -64.5 -25t-43.5 -67l-8 -24h-16l37 131h360zM660 667l28 -293l207 293h106l-5 -15h-46l-98 -350h51l-5 -15h-157l4 15h46l89 318q-39 -55 -64.5 -91
t-49 -69.5t-51 -72.5t-69.5 -100h-13q-5 62 -8.5 102t-6.5 74t-6 70t-8 90l-79 -280q-5 -17 -5 -25q0 -16 19 -16h24l-4 -15h-111l5 15h22q13 0 19.5 7.5t12.5 29.5l88 313h-51l4 15h112z" />
    <glyph glyph-name="paragraph" unicode="&#xb6;" horiz-adv-x="547" 
d="M275 308h-22q-71 0 -110 33.5t-39 93.5q0 51 27.5 101t74.5 84q65 47 167 47h239l-4 -17h-48l-213 -755h-32l212 755h-122l-213 -755h-33z" />
    <glyph glyph-name="currency" unicode="&#xa4;" horiz-adv-x="693" 
d="M226 201q-57 67 -57 147q0 77 54 143l-89 89l21 21l89 -89q66 57 147 57q82 0 147 -56l89 88l21 -21l-88 -88q54 -66 54 -145q0 -41 -13 -75.5t-42 -68.5l90 -90l-21 -21l-90 90q-65 -55 -146 -55q-78 0 -145 54l-89 -89l-20 21zM389 539q-39 0 -73 -15t-59.5 -41.5
t-40.5 -61t-15 -73.5t15 -74t41 -61t61 -41t74 -15t74 15t60.5 40.5t40.5 60.5t15 74q0 40 -15 75t-41 61t-61.5 41t-75.5 15z" />
    <glyph glyph-name="quotesinglbase" unicode="&#x201a;" horiz-adv-x="276" 
d="M-8 -172q15 10 25 16.5t17.5 11.5l13.5 9t13 10q29 23 45.5 53t16.5 59q0 8 -2.5 13t-7.5 5q-2 0 -3 -0.5t-8 -5.5q-14 -9 -28 -9q-23 0 -38 12t-15 30q0 12 5.5 24.5t14.5 22.5t20.5 16.5t22.5 6.5q13 0 25 -7.5t21.5 -20t15 -28.5t5.5 -34q0 -54 -39 -103.5t-113 -91.5
z" />
    <glyph glyph-name="quoteright" unicode="&#x2019;" horiz-adv-x="276" 
d="M163 434q15 10 25 16.5t17.5 11.5l13.5 9t13 10q29 23 45.5 53t16.5 59q0 8 -2.5 13t-7.5 5q-2 0 -3 -0.5t-8 -5.5q-12 -9 -29 -9q-22 0 -37 12t-15 30q0 12 5.5 24.5t14.5 22.5t20.5 16.5t22.5 6.5q13 0 25 -7.5t21.5 -20t15 -28.5t5.5 -34q0 -54 -39 -104t-113 -91z
" />
    <glyph glyph-name="braceleft" unicode="{" horiz-adv-x="261" 
d="M160 327q-8 -25 -15.5 -42t-18 -29.5t-24 -20.5t-31.5 -15q37 -16 37 -56q0 -20 -9 -54l-69 -243q-4 -14 -6.5 -28.5t-2.5 -22.5q0 -31 27 -44q9 -5 17 -6t28 -3l-5 -20q-50 0 -72 15.5t-22 49.5q0 13 4.5 34t12.5 53l62 219q5 18 7 28t2 20q0 21 -8 32t-31 21l3 10
q37 13 56 35t31 66l68 242q12 43 25.5 66t34.5 39q36 27 88 27h8l-5 -20q-50 -2 -78 -25t-42 -73z" />
    <glyph glyph-name="braceright" unicode="}" horiz-adv-x="261" 
d="M121 116q7 25 15 42t18 29.5t23.5 20.5t32.5 15q-20 8 -28.5 21t-8.5 34q0 25 9 55l68 243q4 12 6.5 27.5t2.5 23.5q0 30 -27 44q-9 5 -16.5 6t-28.5 3l6 20q49 0 71 -15.5t22 -50.5q0 -12 -4.5 -34.5t-12.5 -51.5l-62 -220q-8 -30 -8 -47q0 -22 8 -32.5t31 -20.5l-3 -11
q-19 -6 -32.5 -14.5t-24 -20t-18 -27.5t-13.5 -38l-68 -242q-20 -71 -54.5 -101.5t-94.5 -30.5h-7l6 20q50 2 78 24.5t42 72.5z" />
    <glyph glyph-name="ordfeminine" unicode="&#xaa;" horiz-adv-x="342" 
d="M372 297h-342l9 33h343zM350 452q-4 -11 -4 -22q0 -16 12 -16q16 0 39 38l12 -8q-27 -51 -72 -51q-21 0 -33.5 14t-13.5 38q-43 -52 -92 -52q-21 0 -38.5 9t-31 25t-21 37t-7.5 45q0 72 70 128q27 22 55.5 33.5t53.5 11.5q23 0 40.5 -12t24.5 -32l8 29h58zM335 605v2
q0 23 -16.5 41t-36.5 18q-29 0 -55 -21.5t-42 -57.5q-12 -29 -20.5 -62.5t-8.5 -55.5q0 -27 14.5 -43t39.5 -16q13 0 28 6.5t27.5 18t22.5 26t15 30.5z" />
    <glyph glyph-name="ordmasculine" unicode="&#xba;" horiz-adv-x="342" 
d="M372 297h-342l9 33h343zM288 678q51 0 84.5 -31.5t33.5 -79.5q0 -35 -15 -67t-39.5 -56.5t-57.5 -39t-69 -14.5q-53 0 -87 32.5t-34 83.5q0 35 15 66t40 54.5t58.5 37.5t70.5 14zM280 662q-34 0 -55 -18.5t-37 -62.5q-28 -77 -28 -115q0 -28 17.5 -43.5t49.5 -15.5
q35 0 56 16.5t35 54.5q16 42 25 77t9 55q0 52 -72 52z" />
    <glyph glyph-name="plusminus" unicode="&#xb1;" horiz-adv-x="513" 
d="M501 321h-204v-216h-26v216h-204v27h204v216h26v-216h204v-27zM501 34h-434v27h434v-27z" />
    <glyph glyph-name="onehalf" unicode="&#xbd;" horiz-adv-x="820" 
d="M157 569q32 13 54 23t42.5 21.5t43.5 26.5t58 38h12l-112 -396h59l-4 -16h-183l5 16h61l93 334q-25 -17 -60 -33.5t-64 -25.5zM269 0h-31l395 667h30zM718 55q8 0 10.5 2t8.5 11l14 20l13 -7q-8 -14 -13 -22.5t-9.5 -17t-9 -17.5t-11.5 -24h-260q8 38 42.5 71.5
t100.5 68.5q38 22 59.5 38.5t35.5 36.5q34 45 34 98q0 35 -24.5 56t-66.5 21q-19 0 -36.5 -4.5t-30.5 -12t-20.5 -17.5t-7.5 -21q0 -8 3.5 -13.5t13.5 -13.5q28 -21 28 -35q0 -12 -8.5 -20t-20.5 -8q-16 0 -27 18t-11 44q0 46 35.5 73t95.5 27q64 0 104.5 -29t40.5 -75
q0 -38 -21 -72.5t-56 -53.5q-17 -10 -38 -20t-49 -21q-50 -21 -79 -39.5t-49 -41.5h209z" />
    <glyph glyph-name="onequarter" unicode="&#xbc;" horiz-adv-x="820" 
d="M157 569q32 13 54 23t42.5 21.5t43.5 26.5t58 38h12l-112 -396h59l-4 -16h-183l5 16h61l93 334q-25 -17 -60 -33.5t-64 -25.5zM269 0h-31l395 667h30zM722 156h71l-12 -40h-70l-29 -100h52l-4 -16h-166l5 16h52l29 100h-194q60 56 100 94.5t71.5 70t59.5 62t64 71.5
l12 -9q-35 -38 -61.5 -66.5t-53 -55.5t-57.5 -57t-74 -70h144l36 127l72 41z" />
    <glyph glyph-name="threequarters" unicode="&#xbe;" horiz-adv-x="820" 
d="M210 498q28 0 50.5 6t33.5 17q14 13 22 34t8 44q0 58 -69 58q-30 0 -54.5 -10.5t-24.5 -23.5q0 -3 2 -4t11 -3q23 -3 23 -28q0 -13 -8.5 -21.5t-22.5 -8.5q-15 0 -24.5 10t-9.5 26q0 35 32 57.5t83 22.5q56 0 91.5 -24t35.5 -62q0 -36 -31 -62.5t-85 -37.5q86 -19 86 -93
q0 -28 -13.5 -52.5t-37 -43t-54.5 -29t-67 -10.5q-47 0 -78.5 21.5t-31.5 53.5q0 22 15 37.5t36 15.5q14 0 23.5 -8.5t9.5 -20.5q0 -14 -10.5 -24t-24.5 -10q-7 0 -12 2q-2 1 -5 1q-9 0 -9 -8t7.5 -16t20 -14t28 -9.5t31.5 -3.5q55 0 78 40q11 20 18 46t7 52q0 35 -26 50.5
t-83 15.5h-33l5 17h57zM269 0h-31l395 667h30zM722 156h71l-12 -40h-70l-28 -100h51l-4 -16h-165l4 16h53l28 100h-194q60 56 100 94.5t71.5 70t59.5 62t64 71.5l12 -9q-34 -38 -60.5 -66.5t-53.5 -55.5t-58 -57t-74 -70h144l36 127l73 41z" />
    <glyph glyph-name="fraction" horiz-adv-x="140" 
d="M-71 0h-31l395 667h31z" />
    <glyph glyph-name="percent" unicode="%" horiz-adv-x="802" 
d="M293 670q48 0 79 -35t31 -90q0 -40 -15.5 -78.5t-40.5 -69t-57.5 -49t-65.5 -18.5q-23 0 -42.5 9.5t-34 26t-22.5 39.5t-8 50q0 43 14.5 82t38.5 68.5t56 47t67 17.5zM290 656q-15 0 -25.5 -4.5t-20 -17t-18.5 -33.5t-19 -54q-36 -114 -36 -146q0 -26 13.5 -41.5
t36.5 -15.5q45 0 68 51q3 7 13.5 38t24.5 78q9 26 13.5 51t4.5 44q0 23 -15 36.5t-40 13.5zM243 -21h-31l414 699h30zM656 334q48 0 79 -35.5t31 -89.5q0 -41 -15.5 -79.5t-40.5 -69t-57.5 -49t-65.5 -18.5q-23 0 -42.5 9.5t-34 26t-22.5 39.5t-8 50q0 43 14.5 82.5t38.5 69
t56 47t67 17.5zM653 320q-15 0 -25.5 -4.5t-20 -17t-18.5 -33.5t-19 -54q-19 -58 -27.5 -94t-8.5 -53q0 -26 13.5 -41.5t36.5 -15.5q45 0 68 52q2 6 12.5 37t25.5 79q9 26 13.5 50.5t4.5 43.5q0 23 -15 37t-40 14z" />
    <glyph glyph-name="perthousand" unicode="&#x2030;" horiz-adv-x="1147" 
d="M293 670q48 0 79 -35t31 -90q0 -40 -15.5 -78.5t-40.5 -69t-57.5 -49t-65.5 -18.5q-23 0 -42.5 9.5t-34 26t-22.5 39.5t-8 50q0 43 14.5 82t38.5 68.5t56 47t67 17.5zM290 656q-15 0 -25.5 -4.5t-20 -17t-18.5 -33.5t-19 -54q-36 -114 -36 -146q0 -26 13.5 -41.5
t36.5 -15.5q45 0 68 51q3 7 13.5 38t24.5 78q9 26 13.5 51t4.5 44q0 23 -15 36.5t-40 13.5zM243 -21h-31l414 699h30zM656 334q48 0 79 -35.5t31 -89.5q0 -41 -15.5 -79.5t-40.5 -69t-57.5 -49t-65.5 -18.5q-23 0 -42.5 9.5t-34 26t-22.5 39.5t-8 50q0 43 14.5 82.5t38.5 69
t56 47t67 17.5zM653 320q-15 0 -25.5 -4.5t-20 -17t-18.5 -33.5t-19 -54q-19 -58 -27.5 -94t-8.5 -53q0 -26 13.5 -41.5t36.5 -15.5q45 0 68 52q2 6 12.5 37t25.5 79q9 26 13.5 50.5t4.5 43.5q0 23 -15 37t-40 14zM1001 334q48 0 79 -35.5t31 -89.5q0 -41 -15.5 -79.5
t-40.5 -69t-57.5 -49t-65.5 -18.5q-23 0 -42.5 9.5t-34 26t-22.5 39.5t-8 50q0 43 14.5 82.5t38.5 69t56 47t67 17.5zM998 320q-15 0 -25.5 -4.5t-20 -17t-18.5 -33.5t-19 -54q-19 -58 -27.5 -94t-8.5 -53q0 -26 13.5 -41.5t36.5 -15.5q45 0 68 52q2 6 12.5 37t25.5 79
q9 26 13.5 50.5t4.5 43.5q0 23 -15 37t-40 14z" />
    <glyph glyph-name="backslash" unicode="\" horiz-adv-x="346" 
d="M257 700l-51 -957h-37l51 957h37z" />
    <glyph glyph-name="dieresis" unicode="&#xa8;" horiz-adv-x="503" 
d="M447 596q15 0 25 -10t10 -25q0 -24 -19.5 -43t-43.5 -19q-14 0 -24 10t-10 25q0 12 5.5 23t14 20t19.5 14t23 5zM276 595q15 0 24.5 -9.5t9.5 -24.5q0 -23 -19 -42t-42 -19q-15 0 -24.5 9.5t-9.5 24.5q0 23 19 42t42 19z" />
    <glyph glyph-name="dotaccent" horiz-adv-x="503" 
d="M365 595q15 0 24.5 -9.5t9.5 -24.5q0 -23 -19 -42t-42 -19q-15 0 -24.5 9.5t-9.5 24.5q0 23 19 42t42 19z" />
    <glyph glyph-name="ring" horiz-adv-x="505" 
d="M375 646q31 0 50.5 -19t19.5 -49q0 -23 -10.5 -44.5t-28 -38t-40 -26.5t-46.5 -10q-30 0 -49.5 19t-19.5 49q0 22 10.5 43.5t28 38.5t39.5 27t46 10zM365 621q-17 0 -32.5 -7.5t-28.5 -20t-20.5 -28t-7.5 -31.5q0 -22 14 -36t37 -14q18 0 34.5 7.5t29 19.5t20.5 28t8 33
q0 22 -15 35.5t-39 13.5z" />
    <glyph glyph-name="acute" unicode="&#xb4;" 
d="M282 457l94 135q12 18 20.5 29.5t16 17.5t14.5 8t16 2q15 0 25.5 -9t10.5 -22q0 -10 -6.5 -19t-23.5 -23l-148 -119h-19z" />
    <glyph glyph-name="grave" unicode="`" 
d="M357 457l-86 95q-24 25 -33 39t-9 26q0 13 10 21.5t24 8.5q10 0 17 -2t13 -8.5t12.5 -18.5t14.5 -31l55 -130h-18z" />
    <glyph glyph-name="circumflex" unicode="&#x2c6;" 
d="M340 647h61l63 -190h-16l-89 124l-155 -124h-16z" />
    <glyph glyph-name="caron" 
d="M240 647h16l88 -123l156 123h18l-155 -190h-61z" />
    <glyph glyph-name="breve" 
d="M477 621q-8 -32 -15 -50t-20 -35q-20 -28 -48.5 -43t-59.5 -15q-50 0 -79.5 33t-29.5 89v10t1 14h14q1 -40 26.5 -61.5t73.5 -21.5q45 0 74 20t49 63z" />
    <glyph glyph-name="tilde" unicode="&#x2dc;" 
d="M507 604q-14 -51 -41.5 -81t-61.5 -30q-8 0 -15.5 1t-18 5t-26.5 10.5t-41 17.5q-19 9 -29.5 12t-21.5 3q-17 0 -28.5 -9.5t-26.5 -37.5h-15q38 104 105 104q16 0 32 -5t49 -19q31 -13 44.5 -17.5t24.5 -4.5q36 0 53 51h17z" />
    <glyph glyph-name="hungarumlaut" unicode="&#xa;" 
d="M222 457l79 135q20 35 31.5 46t29.5 11q14 0 24.5 -9t10.5 -22q0 -5 -0.5 -8t-3.5 -7t-8.5 -10.5t-15.5 -16.5l-128 -119h-19zM365 457l80 135q20 35 31.5 46t29.5 11q14 0 24.5 -9t10.5 -22q0 -5 -0.5 -8t-3.5 -7t-9 -10.5t-16 -16.5l-128 -119h-19z" />
    <glyph glyph-name="cedilla" unicode="&#xb8;" 
d="M239 0l-71 -80q14 5 25 6.5t22 1.5q32 0 52 -16t20 -41q0 -31 -28.5 -50.5t-73.5 -19.5q-27 0 -49 6t-49 20l8 12q36 -18 69 -18q27 0 44 13t17 34q0 38 -46 38q-11 0 -19 -2t-16 -7l-8 9l81 94h22z" />
    <glyph glyph-name="ogonek" 
d="M299 0q-33 -19 -53 -46t-20 -55q0 -21 18.5 -35t47.5 -14q12 0 22 2t25 7l-2 -16q-27 -11 -47.5 -16t-43.5 -5q-37 0 -59 17t-22 46q0 32 28.5 62t81.5 53h24z" />
    <glyph glyph-name="macron" unicode="&#xaf;" 
d="M205 525l11 39h267l-11 -39h-267z" />
    <glyph glyph-name="copyright" unicode="&#xa9;" horiz-adv-x="733" 
d="M411 681q70 0 132.5 -27.5t109 -75t74 -111t27.5 -134.5q0 -72 -27 -135t-74.5 -110.5t-110.5 -74.5t-135 -27t-135 27.5t-110 74.5t-74.5 110t-27.5 135q0 73 27.5 136.5t74.5 110.5t111 74t138 27zM403 666q-67 0 -126 -26.5t-103.5 -71.5t-70.5 -105.5t-26 -128.5
q0 -69 26 -129.5t71 -106t105 -71.5t128 -26t128 26t105 71t71 105.5t26 129.5q0 70 -26 130.5t-71 105.5t-106 71t-131 26zM563 380h-24l4 21q3 15 3 27q0 21 -8.5 39t-23.5 31t-35 20.5t-43 7.5q-74 0 -124 -104q-20 -42 -31.5 -87t-11.5 -83q0 -52 27.5 -81.5t76.5 -29.5
q48 0 83.5 23.5t70.5 79.5l18 -11q-33 -55 -76.5 -82t-100.5 -27q-37 0 -69 13t-55 35.5t-36.5 54t-13.5 67.5q0 48 20.5 92.5t54 79.5t77 56t90.5 21q28 0 51.5 -7t49.5 -24q8 -5 12 -7t8 -2t5.5 2t4.5 10l4 8h21z" />
    <glyph glyph-name="registered" unicode="&#xae;" horiz-adv-x="733" 
d="M411 681q70 0 132.5 -27.5t109 -75t74 -111t27.5 -134.5q0 -72 -27 -135t-74.5 -110.5t-110.5 -74.5t-135 -27t-135 27.5t-110 74.5t-74.5 110t-27.5 135q0 73 27.5 136.5t74.5 110.5t111 74t138 27zM403 666q-67 0 -126 -26.5t-103.5 -71.5t-70.5 -105.5t-26 -128.5
q0 -69 26 -129.5t71 -106t105 -71.5t128 -26t128 26t105 71t71 105.5t26 129.5q0 70 -26 130.5t-71 105.5t-106 71t-131 26zM452 533q36 0 56 -3t37 -11q22 -10 34.5 -28t12.5 -41q0 -40 -33 -69.5t-90 -40.5q58 -19 58 -69q0 -18 -8 -50q-9 -39 -9 -59q0 -14 9 -14
q8 0 15.5 6.5t19.5 22.5l18 -9q-17 -22 -31.5 -30.5t-34.5 -8.5q-26 0 -44 17.5t-18 43.5v7.5t1 10t3.5 18t6.5 32.5q5 23 6 30t1 14q0 32 -36 32h-65l-52 -185h54l-5 -16h-174l5 16h48l104 368h-53l4 16h160zM419 350q45 0 73.5 32t28.5 82q0 29 -14 41t-48 12h-46
l-48 -167h54z" />
    <glyph glyph-name="Acircumflex" unicode="&#xc2;" horiz-adv-x="566" 
d="M-37 15q19 0 32 8.5t29 31.5l433 639h26l-5 -679h62l-4 -15h-233l4 15h76l5 225h-218l-111 -163q-8 -13 -16.5 -29.5t-8.5 -21.5q0 -11 36 -11h37l-4 -15h-163l4 15h19zM387 255l6 320l-214 -320h208zM471 883h65l68 -160h-19l-90 98l-146 -98h-19z" />
    <glyph glyph-name="nonbreakingspace" horiz-adv-x="250" 
 />
    <glyph glyph-name="bullet" unicode="&#x2022;" horiz-adv-x="667" 
d="M377 477q28 0 52.5 -11t43 -30t29.5 -44t11 -53q0 -29 -11 -54.5t-29.5 -44t-44 -29.5t-53.5 -11q-29 0 -54 11t-44 29.5t-30 43.5t-11 54t11 54.5t30 44t44.5 29.5t55.5 11z" />
    <glyph glyph-name="less" unicode="&#x3c;" 
d="M506 500l-396 -172l396 -173v-34l-433 191v31l433 191v-34z" />
    <glyph glyph-name="greater" unicode="&#x3e;" 
d="M73 155l396 173l-396 172v34l433 -191v-31l-433 -191v34z" />
    <glyph glyph-name="logicalnot" unicode="&#xac;" 
d="M473 237h-400v30h433v-267h-33v237z" />
    <glyph glyph-name="asciicircum" unicode="^" 
d="M80 386l188 281h45l188 -281h-41l-171 255l-170 -255h-39z" />
    <glyph glyph-name="bar" unicode="|" 
d="M306 667v-834h-33v834h33z" />
    <glyph glyph-name="brokenbar" unicode="&#xa6;" 
d="M306 667v-324h-33v324h33zM306 153v-320h-33v320h33z" />
    <glyph glyph-name="underscore" unicode="_" 
d="M540 -81v-30h-500v30h500z" />
    <glyph glyph-name="asciitilde" unicode="~" horiz-adv-x="667" 
d="M135 613q29 53 59 76t68 23q22 0 48 -9t70 -31q22 -11 37.5 -18.5t26.5 -11.5t20.5 -5.5t19.5 -1.5q31 0 54.5 17.5t49.5 60.5l24 -14q-28 -51 -59.5 -74.5t-69.5 -23.5q-12 0 -22.5 1.5t-25 7t-36 16t-55.5 27.5q-29 14 -48 20t-37 6q-28 0 -52 -19t-48 -62z" />
    <glyph glyph-name="mu" unicode="&#xb5;" horiz-adv-x="552" 
d="M420 82q-5 -17 -6.5 -25t-1.5 -15q0 -23 20 -23t39 17t48 62l11 -9q-30 -53 -58 -76t-63 -23q-31 0 -49 17.5t-18 48.5q0 14 3 28t11 43q-23 -32 -40 -51.5t-35 -34.5q-13 -11 -29 -20.5t-32.5 -17t-31.5 -11.5t-27 -4q-17 0 -40.5 8t-52.5 22v-167h-87l147 522h-60l5 15
h60q50 0 85 30l-82 -291q-7 -26 -11 -40.5t-6 -23t-2.5 -12.5t-0.5 -8q0 -16 11 -25.5t30 -9.5q38 0 78 22t75 64q16 19 27 33t18.5 26t12.5 22.5t8 21.5l54 191h76z" />
    <glyph glyph-name="Adieresis" unicode="&#xc4;" horiz-adv-x="566" 
d="M-37 15q19 0 32 8.5t29 31.5l433 639h26l-5 -679h62l-4 -15h-233l4 15h76l5 225h-218l-111 -163q-8 -13 -16.5 -29.5t-8.5 -21.5q0 -11 36 -11h37l-4 -15h-163l4 15h19zM387 255l6 320l-214 -320h208zM589 856q16 0 26.5 -10.5t10.5 -26.5q0 -26 -20.5 -46t-45.5 -20
q-17 0 -27 10.5t-10 26.5q0 26 20 46t46 20zM405 854q17 0 27 -10t10 -27q0 -25 -20 -45t-46 -20q-16 0 -26 10.5t-10 26.5q0 25 20 45t45 20z" />
    <glyph glyph-name="Aacute" unicode="&#xc1;" horiz-adv-x="566" 
d="M-37 15q19 0 32 8.5t29 31.5l433 639h26l-5 -679h62l-4 -15h-233l4 15h76l5 225h-218l-111 -163q-8 -13 -16.5 -29.5t-8.5 -21.5q0 -11 36 -11h37l-4 -15h-163l4 15h19zM387 255l6 320l-214 -320h208zM499 830q22 31 35.5 42.5t29.5 11.5q15 0 25 -9t10 -23
q0 -11 -9.5 -22t-32.5 -27l-116 -80h-18z" />
    <glyph glyph-name="Agrave" unicode="&#xc0;" horiz-adv-x="566" 
d="M-37 15q19 0 32 8.5t29 31.5l433 639h26l-5 -679h62l-4 -15h-233l4 15h76l5 225h-218l-111 -163q-8 -13 -16.5 -29.5t-8.5 -21.5q0 -11 36 -11h37l-4 -15h-163l4 15h19zM387 255l6 320l-214 -320h208zM390 799q-22 17 -30 27.5t-8 24.5q0 13 9 21t24 8q19 0 34 -13.5
t38 -50.5l55 -93h-21z" />
    </font>
</defs>
</svg>
