<?xml version="1.0" standalone="no"?>
<!DOCTYPE svg PUBLIC "-//W3C//DTD SVG 1.1//EN" "http://www.w3.org/Graphics/SVG/1.1/DTD/svg11.dtd" >
<svg xmlns="http://www.w3.org/2000/svg" xmlns:xlink="http://www.w3.org/1999/xlink" version="1.1">
<metadata>
Created by FontForge 20190801 at Sun May  6 13:34:51 2007
 By Jimmy Wärting
URW Software, Copyright 1994 by URW
</metadata>
<defs>
<font id="BauerBodD-Regu" horiz-adv-x="500" >
  <font-face 
    font-family="Bauer Bodoni D"
    font-weight="500"
    font-stretch="normal"
    units-per-em="1000"
    panose-1="0 0 0 0 0 0 0 0 0 0"
    ascent="800"
    descent="-200"
    x-height="387"
    cap-height="667"
    bbox="-139 -269 1026 906"
    underline-thickness="30"
    underline-position="-112"
    stemh="15"
    stemv="82"
    unicode-range="U+0020-FB02"
  />
<missing-glyph horiz-adv-x="250" 
 />
    <glyph glyph-name=".notdef" horiz-adv-x="250" 
 />
    <glyph glyph-name="space" unicode=" " horiz-adv-x="250" 
 />
    <glyph glyph-name="exclam" unicode="!" horiz-adv-x="265" 
d="M123 146v107c0 141 -12 231 -45 327l5 7c23 33 31 48 43 89c1 5 3 8 6 8s5 -2 6 -8c13 -41 31 -74 50 -94c-7 -16 -24 -82 -31 -117c-7 -38 -16 -158 -16 -212v-107h-18zM134 84c25 0 45 -21 45 -45c0 -26 -20 -46 -45 -46c-26 0 -46 20 -46 46c0 25 20 45 46 45z" />
    <glyph glyph-name="quotedbl" unicode="&#x22;" horiz-adv-x="187" 
d="M64 418h-21l-3 249h27zM144 418h-21l-3 249h27z" />
    <glyph glyph-name="numbersign" unicode="#" horiz-adv-x="567" 
d="M369 254l-36 -254h-31l34 254h-118l-35 -254h-33l34 254h-144v31h149l16 113h-141v32h145l33 237h34l-33 -237h118l34 237h30l-32 -237h133v-32h-137l-16 -113h132v-31h-136zM356 398h-118l-16 -113h119z" />
    <glyph glyph-name="dollar" unicode="$" horiz-adv-x="533" 
d="M41 236h17v-10c0 -68 23 -123 68 -162c33 -28 62 -41 125 -53v283c-144 17 -202 63 -202 158c0 118 86 214 191 214h11v81h21v-81c43 -5 65 -14 110 -43l9 -6c8 -5 14 -7 20 -7c17 0 25 14 25 41v8h17v-209h-17c-6 118 -64 189 -164 201v-270c59 -5 87 -10 122 -24
c64 -25 99 -77 99 -146c0 -73 -35 -145 -88 -180c-30 -20 -69 -30 -133 -35v-145h-21v145c-51 6 -74 14 -126 42c-17 9 -28 13 -39 13c-16 0 -28 -16 -28 -40v-11h-17v236zM272 291v-280c107 0 177 55 177 141c0 32 -11 62 -31 83c-23 26 -48 36 -129 52zM251 385v266
c-45 -2 -70 -8 -97 -25c-41 -26 -63 -67 -63 -117c0 -49 19 -80 60 -99c29 -13 60 -21 100 -25z" />
    <glyph glyph-name="percent" unicode="%" horiz-adv-x="729" 
d="M161 669c73 0 124 -69 124 -167c0 -65 -19 -111 -58 -144c-24 -19 -44 -27 -69 -27c-33 0 -58 11 -82 37c-30 33 -43 73 -43 131c0 65 16 107 56 141c23 20 45 29 72 29zM159 657c-50 0 -73 -46 -73 -148c0 -119 20 -167 70 -167c52 0 75 49 75 161
c0 111 -20 154 -72 154zM202 0h-31l356 667h29zM570 335c73 0 125 -69 125 -167c0 -65 -19 -111 -59 -144c-23 -19 -43 -27 -68 -27c-33 0 -59 11 -82 37c-31 33 -44 73 -44 131c0 65 16 107 56 141c24 20 46 29 72 29zM568 323c-50 0 -73 -46 -73 -148
c0 -119 20 -167 71 -167c52 0 75 49 75 161c0 111 -20 154 -73 154z" />
    <glyph glyph-name="ampersand" unicode="&#x26;" horiz-adv-x="711" 
d="M682 134l14 -5l-20 -40c-28 -57 -78 -96 -121 -96c-44 0 -78 22 -138 88l-30 33l-28 -32c-58 -63 -108 -91 -163 -91c-84 0 -163 77 -163 159c0 71 44 122 166 196c-49 70 -67 110 -67 147c0 71 67 132 146 132c71 0 117 -41 117 -104c0 -56 -34 -100 -106 -139
c67 -85 78 -99 149 -184l23 27c48 59 48 59 71 76c16 11 31 16 48 16c36 0 62 -24 62 -56c0 -31 -24 -56 -53 -56c-32 0 -50 21 -50 60c0 8 -1 10 -6 10c-8 0 -14 -6 -54 -54l-30 -35l19 -23c65 -75 99 -99 137 -99c30 0 47 15 77 70zM280 394l5 3c50 31 60 39 76 66
c12 19 18 39 18 57c0 51 -42 90 -97 90c-47 0 -79 -28 -79 -70c0 -28 13 -57 51 -110zM207 334l-10 -7l-37 -24c-30 -20 -49 -51 -49 -83c0 -82 80 -169 154 -169c37 0 68 21 112 76c-82 93 -94 108 -170 207z" />
    <glyph glyph-name="quoteright" unicode="&#x2019;" horiz-adv-x="280" 
d="M121 427l-12 12c58 50 87 102 87 159c0 47 -21 78 -56 81c13 -12 17 -19 17 -34c0 -24 -19 -42 -44 -42c-26 0 -46 21 -46 47c0 29 26 52 59 52c50 0 88 -45 88 -103c0 -64 -26 -113 -93 -172z" />
    <glyph glyph-name="parenleft" unicode="(" horiz-adv-x="261" 
d="M213 -247l-20 -16c-43 62 -55 83 -76 126c-52 110 -77 221 -77 345c0 139 33 271 97 390c11 20 55 86 70 104l21 -13c-21 -23 -67 -97 -86 -137c-51 -105 -75 -218 -75 -346c0 -111 17 -201 57 -296c24 -59 28 -67 81 -145z" />
    <glyph glyph-name="parenright" unicode=")" horiz-adv-x="261" 
d="M48 686l20 16c43 -63 55 -83 76 -126c52 -110 77 -221 77 -345c0 -139 -33 -271 -98 -390c-10 -19 -54 -85 -69 -104l-21 13c20 22 67 97 86 137c51 105 75 218 75 346c0 111 -17 201 -57 296c-24 58 -29 67 -81 145c-3 4 -6 8 -8 12z" />
    <glyph glyph-name="asterisk" unicode="*" horiz-adv-x="533" 
d="M116 583l1 5c2 18 6 25 13 25c5 0 7 -2 16 -15c31 -42 63 -69 108 -91c1 11 1 20 1 24c0 47 -5 73 -24 114c-3 9 -4 11 -4 15c0 6 4 10 10 10c7 0 11 -1 23 -8l5 12c7 19 13 28 19 28c9 0 14 -11 14 -35l1 -9c11 3 14 4 20 4c7 0 12 -4 12 -9c0 -4 -1 -6 -6 -14
c-32 -47 -39 -64 -57 -133c58 16 97 35 130 64c6 5 9 7 13 7c5 0 10 -7 10 -14c0 -5 0 -7 -4 -18c12 1 17 1 21 1c14 0 25 -6 25 -13s-10 -14 -39 -26c8 -12 10 -18 10 -24s-3 -10 -8 -10c-3 0 -7 1 -11 2c-30 11 -69 19 -90 19c-15 0 -34 -1 -55 -3c39 -57 61 -79 100 -105
c8 -5 11 -8 11 -13c0 -7 -9 -13 -20 -13h-8l3 -10c3 -10 5 -19 5 -25c0 -7 -5 -13 -11 -13c-5 0 -15 9 -31 29l-6 -5c-10 -10 -13 -12 -19 -12c-4 0 -8 4 -9 11v27c-1 50 -9 82 -28 121c-39 -54 -53 -83 -64 -132c-2 -10 -5 -14 -10 -14c-7 0 -13 6 -19 22l-7 -5
c-17 -13 -22 -16 -30 -16c-5 0 -9 4 -9 10c0 8 0 8 13 31l3 6c-19 8 -24 12 -24 20c0 6 3 8 23 14c43 14 75 35 113 75c-65 20 -80 23 -117 23c-9 0 -12 0 -27 -1h-5c-8 0 -13 4 -13 9c0 7 5 13 17 22c-27 19 -32 24 -32 30s8 11 18 11c5 0 11 -1 19 -3z" />
    <glyph glyph-name="plus" unicode="+" horiz-adv-x="533" 
d="M500 348v-27h-221v-233h-26v233h-220v27h220v233h26v-233h221z" />
    <glyph glyph-name="comma" unicode="," horiz-adv-x="241" 
d="M98 -186l-12 13c59 49 87 102 87 159c0 45 -24 81 -53 81h-3c13 -13 17 -20 17 -35c0 -24 -19 -42 -44 -42c-26 0 -46 21 -46 47c0 30 26 53 59 53c50 0 88 -45 88 -104c0 -63 -26 -112 -93 -172z" />
    <glyph glyph-name="hyphen" unicode="-" horiz-adv-x="223" 
d="M0 176l19 48h204l-15 -48h-208z" />
    <glyph glyph-name="period" unicode="." horiz-adv-x="240" 
d="M120 86c25 0 46 -21 46 -46c0 -26 -21 -47 -47 -47c-25 0 -46 21 -46 47c0 25 21 46 47 46z" />
    <glyph glyph-name="slash" unicode="/" horiz-adv-x="390" 
d="M0 -253l273 945h43l-272 -945h-44z" />
    <glyph glyph-name="zero" unicode="0" horiz-adv-x="537" 
d="M272 670c57 0 111 -30 154 -84c49 -62 71 -140 71 -249c0 -131 -34 -222 -106 -288c-43 -39 -79 -55 -125 -55c-60 0 -104 22 -148 75c-55 65 -79 145 -79 262c0 85 9 135 34 187c47 95 121 152 199 152zM268 656c-96 0 -139 -95 -139 -307c0 -243 39 -341 134 -341
c53 0 89 27 111 84c21 51 32 141 32 248c0 228 -39 316 -138 316z" />
    <glyph glyph-name="one" unicode="1" horiz-adv-x="387" 
d="M273 667v-650h97v-17h-286v17h98v525c0 21 0 22 -8 22c-19 0 -81 -26 -127 -54l-30 -18v20l39 24c107 65 142 91 179 131h38z" />
    <glyph glyph-name="two" unicode="2" horiz-adv-x="540" 
d="M477 185h15c-14 -93 -16 -108 -25 -185h-442c17 52 73 113 204 221l25 21c85 73 123 150 123 252c0 94 -61 156 -153 156c-65 0 -114 -23 -142 -67c-12 -19 -19 -37 -19 -50c0 -14 7 -23 17 -23h5c4 1 7 1 10 1c31 0 49 -17 49 -47c0 -28 -19 -48 -47 -48
c-36 0 -61 33 -61 81c0 101 86 173 207 173c138 0 230 -75 230 -186c0 -48 -17 -95 -50 -135c-32 -39 -36 -43 -156 -128l-20 -14c-65 -45 -120 -93 -147 -127h359c6 38 12 73 18 105z" />
    <glyph glyph-name="three" unicode="3" horiz-adv-x="540" 
d="M108 366v15h66c101 0 143 9 172 35c23 21 38 66 38 117c0 79 -48 123 -134 123c-46 0 -90 -13 -116 -33c-15 -13 -25 -27 -25 -37c0 -4 2 -6 6 -6c1 0 1 0 6 1c3 1 6 1 9 1c23 0 41 -18 41 -43s-19 -45 -43 -45c-28 0 -48 23 -48 56c0 72 72 121 177 121
c127 0 210 -57 210 -145c0 -81 -59 -134 -171 -152c124 -15 200 -84 200 -180c0 -59 -25 -103 -80 -142c-56 -40 -116 -58 -189 -58c-76 0 -131 20 -165 60c-18 21 -26 40 -26 62c0 44 25 74 60 74c27 0 49 -22 49 -50c0 -27 -21 -48 -49 -48c-7 0 -8 0 -15 2
c-2 1 -3 1 -5 1c-7 0 -11 -4 -11 -13c0 -12 15 -30 36 -43c33 -20 74 -30 125 -30c64 0 109 15 136 46c26 28 41 77 41 131c0 69 -21 121 -61 149c-24 17 -62 29 -97 30c-13 1 -37 1 -68 1h-69z" />
    <glyph glyph-name="four" unicode="4" horiz-adv-x="533" 
d="M494 304v-69h-100v-218h97v-17h-307v17h125v218h-296c-4 0 -6 1 -6 4c0 1 1 3 2 4l370 440h17l-315 -379h228v228h85v-228h100z" />
    <glyph glyph-name="five" unicode="5" horiz-adv-x="540" 
d="M87 353l-11 5c14 50 19 84 19 132c0 57 -4 98 -17 156v4c0 12 57 23 123 23c42 0 123 -8 179 -17c8 -1 15 -2 20 -2c10 0 15 6 15 20v9h15v-16c0 -56 -39 -86 -111 -86c-19 0 -32 1 -61 6c-42 6 -65 8 -90 8c-32 0 -62 -9 -62 -18c4 -61 4 -61 4 -84
c0 -43 -3 -72 -12 -113c36 23 80 34 140 34c151 0 261 -87 261 -206c0 -122 -120 -214 -281 -214c-110 0 -184 53 -184 133c0 37 25 65 58 65c27 0 48 -21 48 -47c0 -24 -19 -42 -43 -42c-2 0 -9 0 -11 1h-4c-9 0 -17 -10 -17 -21c0 -40 72 -74 155 -74c64 0 108 17 139 54
c30 35 47 85 47 137c0 70 -30 137 -76 170c-27 19 -62 28 -104 28c-56 0 -100 -14 -139 -45z" />
    <glyph glyph-name="six" unicode="6" horiz-adv-x="537" 
d="M456 684l4 -13c-226 -51 -306 -133 -326 -333c39 59 89 86 159 86c120 0 209 -85 209 -200c0 -131 -100 -230 -233 -230c-136 0 -229 105 -229 258c0 217 162 384 416 432zM279 406c-40 0 -81 -19 -112 -52c-30 -31 -38 -56 -38 -113c0 -163 42 -234 138 -234
c97 0 145 70 145 209c0 124 -46 190 -133 190z" />
    <glyph glyph-name="seven" unicode="7" horiz-adv-x="480" 
d="M19 507h-15c12 78 14 90 21 160h464l-131 -271c-73 -150 -122 -275 -122 -310c0 -6 4 -11 8 -11c1 0 3 1 6 2c7 3 14 4 20 4c25 0 42 -18 42 -44s-17 -43 -44 -43c-32 0 -52 25 -52 66c0 25 8 59 25 103l161 421h-361c-11 -32 -13 -38 -22 -77z" />
    <glyph glyph-name="eight" unicode="8" horiz-adv-x="540" 
d="M315 364l-16 -6c59 -19 91 -33 121 -53c56 -37 84 -82 84 -133c0 -102 -102 -178 -236 -178c-139 0 -232 68 -232 170c0 88 68 151 208 193c-53 15 -76 24 -101 39c-51 30 -75 67 -75 116c0 90 89 158 206 158c115 0 198 -65 198 -154c0 -46 -20 -80 -65 -109
c-26 -18 -35 -22 -92 -43zM273 364c81 19 114 64 114 154c0 95 -37 138 -118 138c-44 0 -72 -12 -89 -37s-26 -61 -26 -101c0 -61 18 -107 51 -128c18 -12 35 -19 68 -26zM271 350c-49 -11 -69 -20 -91 -43c-35 -34 -50 -77 -50 -146c0 -96 53 -153 143 -153
c88 0 138 56 138 157c0 63 -18 115 -51 146c-19 18 -37 26 -89 39z" />
    <glyph glyph-name="nine" unicode="9" horiz-adv-x="537" 
d="M90 -19l-4 13c110 26 181 59 231 107c44 38 75 122 87 234c-37 -65 -84 -92 -158 -92c-122 0 -211 84 -211 201c0 123 104 226 228 226c134 0 233 -112 233 -264c0 -110 -50 -220 -135 -298c-67 -60 -154 -101 -271 -127zM260 656c-94 0 -135 -63 -135 -208
c0 -53 6 -84 22 -118c24 -49 55 -69 109 -69c51 0 98 24 124 65c19 29 27 60 27 109c0 79 -12 129 -41 169c-27 38 -56 52 -106 52z" />
    <glyph glyph-name="colon" unicode=":" horiz-adv-x="240" 
d="M120 86c25 0 46 -21 46 -46c0 -26 -21 -47 -47 -47c-25 0 -46 21 -46 47c0 25 21 46 47 46zM120 362c25 0 46 -21 46 -46c0 -26 -21 -47 -47 -47c-25 0 -46 21 -46 47c0 25 21 46 47 46z" />
    <glyph glyph-name="semicolon" unicode=";" horiz-adv-x="241" 
d="M98 -186l-12 13c59 49 87 102 87 159c0 45 -24 81 -53 81h-3c13 -13 17 -20 17 -35c0 -24 -19 -42 -44 -42c-26 0 -46 21 -46 47c0 30 26 53 59 53c50 0 88 -45 88 -104c0 -63 -26 -112 -93 -172zM111 362c25 0 46 -21 46 -46c0 -26 -21 -47 -47 -47c-25 0 -46 21 -46 47
c0 25 21 46 47 46z" />
    <glyph glyph-name="less" unicode="&#x3c;" 
d="M466 534v-34l-396 -172l396 -173v-34l-433 191v31z" />
    <glyph glyph-name="equal" unicode="=" horiz-adv-x="533" 
d="M500 403v-27h-467v27h467zM500 292v-27h-467v27h467z" />
    <glyph glyph-name="greater" unicode="&#x3e;" 
d="M33 121v34l396 173l-396 172v34l433 -191v-31z" />
    <glyph glyph-name="question" unicode="?" horiz-adv-x="390" 
d="M137 142l-14 -3c-11 44 -16 81 -16 118c0 31 7 58 22 80c15 23 15 23 89 76l24 21c53 44 79 87 79 130c0 59 -57 104 -133 104c-51 0 -105 -29 -105 -57c0 -9 4 -11 24 -14c27 -4 41 -20 41 -46s-19 -45 -44 -45c-31 0 -53 28 -53 67c0 61 62 111 137 111
c98 0 162 -65 162 -164c0 -28 -4 -56 -11 -77c-11 -34 -26 -53 -75 -97l-31 -28c-14 -11 -29 -23 -45 -34c-42 -30 -57 -56 -57 -95c0 -15 1 -25 6 -47zM134 83c24 0 44 -21 44 -45c0 -25 -20 -45 -45 -45s-45 20 -45 45s20 45 46 45z" />
    <glyph glyph-name="at" unicode="@" horiz-adv-x="722" 
d="M574 512l-86 -299c-3 -11 -5 -22 -5 -31c0 -15 11 -26 26 -26c23 0 67 31 96 70c39 50 61 112 61 173c0 144 -129 263 -286 263c-179 0 -324 -148 -324 -333c0 -181 139 -325 314 -325c119 0 247 82 280 181h24c-45 -117 -171 -199 -304 -199c-186 0 -333 151 -333 343
c0 194 154 352 343 352c172 0 305 -123 305 -284c0 -84 -34 -161 -94 -214c-35 -31 -74 -49 -107 -49c-37 0 -69 25 -69 53c0 7 2 16 4 26c-42 -59 -80 -83 -130 -83c-36 0 -61 11 -81 36c-24 30 -37 68 -37 110c0 66 27 129 76 179c47 49 108 78 160 78c43 0 70 -24 79 -72
l14 51h74zM432 274l43 149c1 3 1 6 1 9c0 51 -27 83 -69 83c-53 0 -96 -38 -125 -113c-26 -66 -45 -145 -45 -187s22 -68 58 -68c55 0 117 58 137 127z" />
    <glyph glyph-name="A" unicode="A" horiz-adv-x="666" 
d="M-3 17h32c41 0 50 9 74 76l210 584h13l252 -660h85v-17h-291v17h99l-76 201h-228l-46 -127c-7 -22 -12 -39 -12 -46c0 -19 20 -28 67 -28h31v-17h-210v17zM173 234h216l-112 297z" />
    <glyph glyph-name="B" unicode="B" horiz-adv-x="616" 
d="M17 667h240c96 0 118 -2 161 -12c89 -20 139 -74 139 -149c0 -57 -32 -106 -85 -131c-27 -13 -50 -18 -102 -21c52 -8 73 -13 99 -24c67 -27 104 -80 104 -149c0 -58 -28 -109 -77 -143c-49 -33 -72 -38 -186 -38h-293v17h97v633h-97v17zM211 650v-288h18
c103 0 133 3 166 18c39 18 63 61 63 114s-21 94 -63 122c-40 27 -75 34 -164 34h-20zM211 348v-331h28c104 0 143 9 177 41c31 30 49 76 49 126c0 74 -34 123 -103 149c-25 9 -79 15 -134 15h-17z" />
    <glyph glyph-name="C" unicode="C" horiz-adv-x="642" 
d="M586 0h-17c0 36 -13 59 -35 59c-12 0 -20 -4 -44 -22c-46 -34 -87 -48 -147 -48c-169 0 -306 148 -306 332c0 92 32 184 86 246c61 71 141 110 224 110c53 0 96 -13 143 -44c30 -20 37 -23 49 -23c17 0 26 12 30 40h17v-202h-17c-3 55 -14 85 -45 124
c-47 60 -106 90 -177 90c-70 0 -121 -32 -153 -94c-29 -56 -46 -149 -46 -248c0 -208 68 -316 197 -316c82 0 161 48 200 123c16 31 23 62 24 111h17v-238z" />
    <glyph glyph-name="D" unicode="D" horiz-adv-x="717" 
d="M17 667h246c118 0 137 -2 187 -16c142 -42 231 -165 231 -319c0 -130 -64 -241 -170 -294c-58 -30 -109 -38 -232 -38h-262v17h97v633h-97v17zM213 650v-633c68 0 85 0 117 3c84 7 154 42 189 94c35 51 53 127 53 225c0 162 -65 264 -190 298c-42 11 -68 13 -169 13z" />
    <glyph glyph-name="E" unicode="E" horiz-adv-x="648" 
d="M212 17h125c100 0 150 7 188 26c51 25 75 62 75 115v38h17v-196h-600v17h97v633h-97v17h549l15 -163h-15c-13 77 -24 98 -61 119c-33 19 -87 27 -179 27h-114v-303h39c49 0 92 6 112 17c24 12 42 43 42 72v31h17v-251h-17v35c0 38 -19 64 -54 74c-18 4 -53 7 -101 7h-38
v-315z" />
    <glyph glyph-name="F" unicode="F" horiz-adv-x="588" 
d="M578 492h-18v16c0 21 -9 52 -23 78c-16 33 -44 50 -95 59c-25 5 -25 5 -116 5h-115v-301h42c99 0 138 12 155 48c6 14 12 47 12 71v6h17v-261h-17v7c0 92 -29 112 -168 112h-41v-315h104v-17h-298v17h97v633h-97v17h544z" />
    <glyph glyph-name="G" unicode="G" horiz-adv-x="716" 
d="M604 454h-17c-10 59 -20 84 -49 118c-45 55 -111 86 -181 86c-136 0 -208 -113 -208 -324c0 -228 68 -327 223 -327c93 0 154 43 154 110v81h-96v17h281v-17h-83v-107c-93 -72 -166 -100 -263 -100c-196 0 -328 134 -328 331c0 100 32 185 95 251c61 64 144 101 230 101
c46 0 86 -10 126 -32l21 -11c36 -21 37 -21 51 -21c11 0 20 9 23 23l4 23h17v-202z" />
    <glyph glyph-name="H" unicode="H" horiz-adv-x="788" 
d="M211 333v-316h97v-17h-291v17h97v633h-97v17h291v-17h-97v-300h367v300h-98v17h292v-17h-97v-633h97v-17h-292v17h98v316h-367z" />
    <glyph glyph-name="I" unicode="I" horiz-adv-x="334" 
d="M20 667h294v-17h-97v-633h97v-17h-294v17h97v633h-97v17z" />
    <glyph glyph-name="J" unicode="J" horiz-adv-x="351" 
d="M344 650h-97v-541c0 -69 -8 -106 -31 -137c-21 -28 -54 -43 -94 -43c-60 0 -102 34 -102 82c0 34 21 57 51 57c26 0 45 -19 45 -45c0 -13 -6 -26 -14 -34c-5 -4 -5 -4 -24 -10c-3 -1 -5 -4 -5 -7c0 -14 23 -27 45 -27c34 0 60 29 60 65c0 9 -2 17 -5 25l-9 19
c-14 33 -15 38 -15 69v527h-97v17h292v-17z" />
    <glyph glyph-name="K" unicode="K" horiz-adv-x="701" 
d="M296 397l322 -380h96v-17h-325v17h94l-260 315l-12 -11v-304h105v-17h-299v17h97v633h-97v17h294v-17h-100v-307l249 224c33 29 50 52 50 65c0 14 -11 18 -47 18h-51v17h285v-17h-53c-27 0 -44 -4 -64 -15c-36 -21 -91 -63 -139 -107z" />
    <glyph glyph-name="L" unicode="L" horiz-adv-x="634" 
d="M608 220v-220h-591v17h97v633h-97v17h305v-17h-111v-633h100c119 0 180 7 216 26c44 22 64 64 64 134v43h17z" />
    <glyph glyph-name="M" unicode="M" horiz-adv-x="832" 
d="M10 17h34c37 0 53 8 59 30c4 13 4 13 4 76v509l-8 18h-85v17h186l218 -501l204 501h194v-17h-97v-633h97v-17h-290v17h96v599l-247 -602l-252 581v-471c3 -77 3 -77 9 -87c8 -14 27 -20 68 -20h29v-17h-219v17z" />
    <glyph glyph-name="N" unicode="N" horiz-adv-x="725" 
d="M10 17h33c43 0 55 6 61 31c3 11 3 16 3 75v515l-17 12h-80v17h206l389 -492v392c0 82 -1 83 -73 83h-28v17h214v-17h-28c-69 0 -69 0 -69 -83v-572h-6l-492 625v-497c0 -100 4 -106 76 -106h28v-17h-217v17z" />
    <glyph glyph-name="O" unicode="O" horiz-adv-x="697" 
d="M353 681c80 0 177 -53 235 -129c46 -60 72 -139 72 -220c0 -94 -34 -180 -98 -246c-59 -61 -139 -98 -213 -98c-90 0 -189 56 -248 140c-41 60 -64 133 -64 208c0 97 36 183 103 248c64 63 139 97 213 97zM345 666c-126 0 -197 -118 -197 -328c0 -224 66 -335 200 -335
s201 111 201 333c0 216 -71 330 -204 330z" />
    <glyph glyph-name="P" unicode="P" horiz-adv-x="608" 
d="M212 313v-296h102v-17h-297v17h97v633h-97v17h278c81 0 125 -7 174 -28c75 -31 113 -84 113 -156c0 -112 -106 -189 -262 -189c-44 0 -73 5 -108 19zM212 650v-318c29 -16 52 -21 88 -21c59 0 111 20 143 56c24 26 35 58 35 104c0 76 -27 129 -81 157
c-29 15 -83 24 -143 24c-13 0 -23 0 -42 -2z" />
    <glyph glyph-name="Q" unicode="Q" horiz-adv-x="697" 
d="M396 -8v-95c0 -33 5 -48 22 -59c21 -14 57 -22 95 -22c15 0 33 1 56 3v-17c-23 -1 -40 -2 -53 -2c-79 0 -160 19 -190 45c-18 16 -26 37 -26 67v80c-158 39 -263 178 -263 345c0 96 35 179 103 247c60 61 139 97 209 97c83 0 181 -53 239 -129c46 -61 72 -139 72 -220
c0 -167 -102 -298 -264 -340zM345 666c-126 0 -197 -118 -197 -328c0 -225 66 -335 200 -335s201 111 201 333c0 215 -71 330 -204 330z" />
    <glyph glyph-name="R" unicode="R" horiz-adv-x="679" 
d="M212 340v-323h103v-17h-298v17h97v633h-97v17h346c83 0 137 -18 172 -57c26 -28 39 -64 39 -103c0 -52 -27 -98 -73 -125c-32 -18 -65 -27 -127 -34c133 -17 172 -56 182 -187l7 -72c5 -55 19 -76 50 -76c12 0 21 2 40 8l6 -14c-25 -10 -49 -14 -79 -14
c-44 0 -72 11 -95 37c-22 23 -27 36 -33 95l-11 95c-6 57 -23 84 -62 102c-25 11 -73 18 -128 18h-39zM212 650v-295h39c89 0 145 14 177 44c28 26 43 62 43 102c0 50 -22 97 -57 121c-33 22 -66 28 -166 28h-36z" />
    <glyph glyph-name="S" unicode="S" horiz-adv-x="554" 
d="M57 238h17c5 -64 12 -95 31 -128c37 -65 115 -107 197 -107c102 0 171 62 171 153c0 37 -14 67 -42 88c-27 22 -60 33 -128 43l-52 9c-74 11 -116 27 -142 53c-29 29 -47 79 -47 132c0 118 82 200 201 200c49 0 74 -8 141 -46l15 -9c7 -4 14 -6 20 -6c15 0 21 9 23 39h17
v-200h-17c-3 55 -16 93 -43 130c-35 46 -99 76 -163 76c-91 0 -153 -56 -153 -139c0 -76 44 -110 163 -127l50 -7c66 -10 110 -24 141 -48c39 -30 60 -81 60 -144c0 -125 -88 -213 -213 -213c-50 0 -81 7 -137 29c-9 3 -9 3 -30 12c-17 7 -27 9 -38 9c-16 0 -22 -12 -25 -44
h-17v245z" />
    <glyph glyph-name="T" unicode="T" horiz-adv-x="632" 
d="M267 650h-17c-99 0 -145 -9 -180 -35c-28 -21 -39 -58 -39 -135v-13h-17l8 200h587l8 -200h-17v14c0 43 -5 83 -14 108c-10 28 -33 42 -81 52c-29 6 -70 9 -110 9h-31v-633h107v-17h-311v17h107v633z" />
    <glyph glyph-name="U" unicode="U" horiz-adv-x="721" 
d="M722 650h-41c-46 0 -56 -14 -56 -82v-341c0 -95 -19 -149 -66 -189c-43 -36 -100 -52 -186 -52c-117 0 -192 24 -236 75c-27 31 -33 56 -33 147v442h-97v17h300v-17h-104v-447c0 -90 6 -115 36 -145c36 -36 89 -54 158 -54c80 0 138 25 176 75c27 36 35 70 35 145v344
c0 70 -10 82 -68 82h-48v17h230v-17z" />
    <glyph glyph-name="V" unicode="V" horiz-adv-x="644" 
d="M-10 667h294v-17h-97l180 -511l155 416c11 27 17 51 17 63c0 20 -16 32 -42 32h-49v17h219v-17h-48c-19 0 -33 -6 -44 -17c-11 -13 -12 -15 -30 -61l-223 -596l-244 674h-88v17z" />
    <glyph glyph-name="W" unicode="W" horiz-adv-x="904" 
d="M-10 667h683v-17h-50c-25 0 -42 -4 -53 -13s-12 -12 -31 -62l-50 -127l121 -326l182 462c7 15 10 30 10 41c0 16 -16 25 -45 25h-51v17h221v-17h-42c-22 0 -40 -6 -50 -16c-12 -12 -12 -12 -38 -79l-226 -579h-11l-120 326l-112 -326h-12l-239 674h-87v17zM431 325
l-118 325h-130l181 -517zM482 472l42 112c9 22 14 40 14 45c0 14 -16 21 -49 21h-71z" />
    <glyph glyph-name="X" unicode="X" horiz-adv-x="713" 
d="M0 17h39c69 0 86 12 153 108l138 202l-191 323h-90v17h292v-17h-82l133 -227l108 157c14 20 23 40 23 49c0 14 -12 21 -36 21h-61v17h234v-17h-41c-26 0 -38 -3 -50 -13c-14 -12 -40 -42 -58 -69l-109 -161l229 -390h82v-17h-296v17h93l-169 293l-151 -218
c-21 -31 -29 -44 -29 -52c0 -16 15 -23 51 -23h46v-17h-258v17z" />
    <glyph glyph-name="Y" unicode="Y" horiz-adv-x="595" 
d="M406 667h213v-17h-33c-41 0 -50 -8 -79 -69l-151 -317v-247h103v-17h-305v17h103v225l-192 408h-88v17h294v-17h-91l167 -363l121 254c22 45 30 69 30 84c0 17 -15 25 -49 25h-43v17z" />
    <glyph glyph-name="Z" unicode="Z" horiz-adv-x="610" 
d="M27 0l431 650h-127c-86 0 -149 -9 -188 -26c-37 -16 -60 -55 -60 -102v-39h-17v184h516l-432 -650h128c209 0 292 37 292 131v45h17v-193h-560z" />
    <glyph glyph-name="bracketleft" unicode="[" horiz-adv-x="261" 
d="M235 -228v-25h-175v945h175v-25h-148v-895h148z" />
    <glyph glyph-name="backslash" unicode="\" horiz-adv-x="390" 
d="M389 -253h-43l-273 945h43z" />
    <glyph glyph-name="bracketright" unicode="]" horiz-adv-x="261" 
d="M25 667v25h175v-945h-175v25h148v895h-148z" />
    <glyph glyph-name="asciicircum" unicode="^" 
d="M79 386h-39l188 281h45l188 -281h-41l-171 255z" />
    <glyph glyph-name="underscore" unicode="_" 
d="M0 -81h500v-30h-500v30z" />
    <glyph glyph-name="quoteleft" unicode="&#x2018;" horiz-adv-x="280" 
d="M159 702l12 -13c-58 -49 -86 -101 -86 -159c0 -44 23 -81 52 -81h4c-14 13 -18 20 -18 35c0 24 19 42 44 42c26 0 46 -21 46 -47c0 -30 -26 -53 -59 -53c-49 0 -87 45 -87 104c0 64 27 113 92 172z" />
    <glyph glyph-name="a" unicode="a" horiz-adv-x="488" 
d="M325 225v95c0 44 -11 60 -47 68c-13 3 -32 5 -52 5c-61 0 -105 -19 -105 -46c0 -6 3 -10 11 -16c16 -12 20 -20 20 -35c0 -25 -17 -43 -42 -43s-44 20 -44 47c0 60 71 109 158 109c50 0 96 -12 134 -36c35 -22 46 -40 46 -80v-172c2 -73 2 -73 4 -85c3 -14 11 -21 25 -21
c16 0 31 12 47 38l13 -7c-19 -36 -47 -53 -84 -53c-45 0 -74 23 -81 64c-26 -42 -80 -66 -150 -66c-88 0 -145 38 -145 97c0 42 36 88 85 105c50 19 131 32 201 32h6zM325 210h-7c-79 0 -142 -12 -169 -31c-19 -13 -27 -36 -27 -73c0 -67 22 -93 82 -93c54 0 103 27 121 67
v130z" />
    <glyph glyph-name="b" unicode="b" horiz-adv-x="544" 
d="M164 701v-388c33 64 82 96 148 96c104 0 202 -103 202 -212c0 -112 -98 -210 -211 -210c-64 0 -112 30 -139 87v-74h-157v17h77v639h-77v17h95c36 0 50 6 62 28zM422 165v46c0 63 -2 88 -10 115c-13 43 -47 67 -97 67c-78 0 -151 -68 -151 -140v-127
c0 -65 71 -124 150 -124c45 0 80 19 93 52c9 23 15 67 15 111z" />
    <glyph glyph-name="c" unicode="c" horiz-adv-x="416" 
d="M402 135h14c-12 -91 -76 -148 -169 -148c-68 0 -127 23 -166 66c-33 37 -51 79 -51 119c0 64 33 134 83 177c44 39 88 56 142 56c80 0 141 -39 141 -91c0 -25 -19 -45 -43 -45c-25 0 -45 21 -45 47c0 15 4 24 21 41c2 2 3 5 3 9c0 15 -28 24 -77 24
c-103 0 -133 -40 -133 -180v-45c0 -121 31 -163 119 -163c87 0 145 48 161 133z" />
    <glyph glyph-name="d" unicode="d" horiz-adv-x="544" 
d="M380 316v340h-76v17h94c36 0 50 6 62 29v-685h77v-17h-157v70c-24 -51 -78 -83 -141 -83c-110 0 -209 97 -209 207c0 115 95 215 203 215c68 0 118 -32 147 -93zM380 136v110c0 81 -67 147 -148 147c-36 0 -68 -14 -85 -37c-18 -25 -25 -65 -25 -138v-42
c0 -64 8 -111 23 -134c16 -24 52 -40 91 -40c48 0 90 22 120 62c18 25 24 42 24 72z" />
    <glyph glyph-name="e" unicode="e" horiz-adv-x="440" 
d="M408 136l16 -3c-22 -89 -93 -146 -183 -146c-65 0 -116 24 -164 77c-30 33 -47 80 -47 128c0 49 21 103 58 147c38 46 87 70 139 70c66 0 129 -40 164 -102c13 -23 25 -56 25 -67c0 -5 -3 -6 -12 -6h-281c-2 -51 -2 -64 -2 -77c0 -65 5 -92 21 -114c20 -27 52 -40 95 -40
c53 0 99 20 133 59c19 21 24 32 38 74zM123 251h182c13 0 15 1 15 11c0 97 -26 133 -95 133c-44 0 -77 -20 -91 -55c-7 -17 -9 -34 -11 -89z" />
    <glyph glyph-name="f" unicode="f" horiz-adv-x="288" 
d="M176 370v-353h88v-17h-247v17h77v353h-77v17h77v68c0 134 65 238 148 238c47 0 80 -35 80 -85c0 -29 -18 -48 -44 -48c-24 0 -41 18 -41 42c0 21 14 35 37 40c9 1 12 5 12 12c0 14 -19 24 -45 24c-23 0 -42 -11 -52 -31s-13 -42 -13 -101v-159h109v-17h-109z" />
    <glyph glyph-name="g" unicode="g" horiz-adv-x="447" 
d="M119 46h195c37 0 60 -7 76 -25c19 -20 32 -56 32 -92c0 -114 -94 -198 -222 -198c-104 0 -180 51 -180 122c0 46 32 86 92 113c-48 4 -74 36 -74 93c0 60 30 91 91 93c-45 29 -69 66 -69 110c0 79 75 147 163 147c41 0 68 -11 105 -41c19 25 46 38 75 38
c27 0 46 -18 46 -42c0 -21 -15 -36 -35 -36s-36 16 -36 37c0 8 2 13 9 24c-27 -9 -36 -15 -48 -33c24 -32 36 -62 36 -94c0 -72 -76 -139 -157 -139c-22 0 -35 3 -71 17c-58 1 -88 -19 -88 -57c0 -28 15 -37 60 -37zM220 394c-56 0 -80 -39 -80 -133c0 -92 20 -123 77 -123
c61 0 81 32 81 133c0 46 -6 84 -15 98c-10 15 -36 25 -63 25zM318 -34h-168c-55 -14 -84 -51 -84 -105c0 -67 58 -112 142 -112c54 0 98 15 134 46c35 31 56 70 56 107c0 40 -29 64 -80 64z" />
    <glyph glyph-name="h" unicode="h" horiz-adv-x="542" 
d="M165 702v-392c40 66 90 95 163 95c50 0 91 -15 116 -43c18 -21 22 -41 22 -105v-240h77v-17h-238v17h79v302c0 41 -29 70 -70 70c-62 0 -122 -46 -149 -115v-257h76v-17h-234v17h77v639h-77v17h96c36 0 50 6 62 29z" />
    <glyph glyph-name="i" unicode="i" horiz-adv-x="258" 
d="M94 370h-76v17h95c37 0 49 6 62 30v-400h77v-17h-235v17h77v353zM136 680c25 0 46 -21 46 -46c0 -26 -21 -47 -46 -47c-26 0 -47 21 -47 47s21 46 47 46z" />
    <glyph glyph-name="j" unicode="j" horiz-adv-x="234" 
d="M8 370v17h100c36 0 50 5 63 23v-463c0 -111 -5 -146 -25 -172c-18 -24 -44 -39 -67 -39s-42 19 -42 42c0 22 14 36 36 36c20 0 38 -17 38 -37l-1 -6v-8c18 15 23 25 23 44c0 13 -4 24 -16 48l-7 13c-19 34 -20 40 -20 80v422h-82zM132 680c25 0 46 -21 46 -47
s-21 -47 -47 -47s-47 21 -47 47s21 47 48 47z" />
    <glyph glyph-name="k" unicode="k" horiz-adv-x="487" 
d="M84 656h-77v17h88c37 0 49 7 62 32v-535l137 136c18 18 40 47 40 53c0 8 -9 11 -31 11h-47v17h206v-17h-39c-36 0 -44 -5 -96 -56l-80 -78l169 -219h82v-17h-251v17h66l-122 161l-34 -33v-128h73v-17h-223v17h77v639z" />
    <glyph glyph-name="l" unicode="l" horiz-adv-x="248" 
d="M84 656h-77v17h96c38 0 51 6 63 30v-686h76v-17h-235v17h77v639z" />
    <glyph glyph-name="m" unicode="m" horiz-adv-x="815" 
d="M175 414v-108c19 59 82 101 153 101c48 0 83 -14 105 -43c15 -18 19 -30 23 -64c23 66 80 106 150 106c45 0 84 -16 107 -43c21 -24 25 -44 25 -108v-238h77v-17h-237v17h77v293c0 51 -23 78 -67 78c-39 0 -77 -22 -104 -61c-16 -23 -28 -54 -28 -71v-239h76v-17h-236v17
h79v308c0 41 -23 66 -61 66c-61 0 -120 -50 -139 -118v-256h75v-17h-233v17h77v353h-77v17h96c36 0 52 7 62 27z" />
    <glyph glyph-name="n" unicode="n" horiz-adv-x="550" 
d="M174 414v-106c32 61 92 97 162 97c54 0 95 -17 118 -49c16 -21 20 -39 20 -81v-258h77v-17h-236v17h78v291c0 57 -19 80 -64 80c-67 0 -128 -45 -155 -113v-258h78v-17h-235v17h77v353h-77v17h95c36 0 50 6 62 27z" />
    <glyph glyph-name="o" unicode="o" horiz-adv-x="493" 
d="M254 408c45 0 90 -18 131 -52c52 -43 78 -96 78 -157c0 -112 -100 -211 -213 -211c-114 0 -220 101 -220 208s111 212 224 212zM371 127v139c0 58 -4 75 -24 95c-21 21 -55 33 -95 33c-88 0 -129 -40 -129 -126v-139c0 -49 10 -81 33 -101c17 -15 58 -26 96 -26
c46 0 84 14 100 37c13 19 19 46 19 88z" />
    <glyph glyph-name="p" unicode="p" horiz-adv-x="542" 
d="M165 77v-313h76v-17h-234v17h77v606h-77v17h96c36 0 52 7 62 26v-86c27 50 81 81 139 81c109 0 208 -98 208 -207c0 -116 -93 -215 -202 -215c-66 0 -114 30 -145 91zM165 262v-115c0 -80 67 -145 148 -145c38 0 69 15 86 42c16 25 21 55 21 118v68c0 65 -8 104 -25 127
c-17 22 -51 36 -87 36c-76 0 -143 -61 -143 -131z" />
    <glyph glyph-name="q" unicode="q" horiz-adv-x="542" 
d="M378 327v86c10 -19 26 -26 62 -26h96v-17h-77v-606h77v-17h-234v17h76v313c-32 -61 -79 -91 -145 -91c-110 0 -203 99 -203 215c0 109 99 207 209 207c58 0 113 -32 139 -81zM122 230v-68c0 -62 5 -93 21 -118c17 -27 48 -42 87 -42c81 0 148 65 148 145v111
c0 39 -11 63 -39 91c-32 31 -63 44 -104 44c-37 0 -71 -14 -88 -36c-17 -23 -25 -62 -25 -127z" />
    <glyph glyph-name="r" unicode="r" horiz-adv-x="367" 
d="M175 412v-122c19 71 64 114 122 114c40 0 67 -22 67 -57c0 -26 -17 -44 -41 -44c-25 0 -43 18 -43 43c0 15 8 28 23 39l-26 4c-8 1 -22 -9 -50 -35c-17 -17 -29 -37 -41 -73c-9 -28 -11 -43 -11 -92v-172h87v-17h-245v17h77v353h-77v17h99c30 0 44 6 59 25z" />
    <glyph glyph-name="s" unicode="s" horiz-adv-x="374" 
d="M37 140h13c14 -84 71 -137 148 -137c67 0 109 36 109 92c0 51 -33 77 -95 77h-69c-59 0 -102 45 -102 108c0 79 53 129 136 129c37 0 68 -9 109 -30c3 -1 5 -2 6 -2c7 0 8 3 8 23v7h15l4 -116h-15c-9 68 -53 104 -127 104c-64 0 -106 -30 -106 -76c0 -44 38 -69 103 -69
h64c68 0 110 -44 110 -116c0 -87 -63 -146 -156 -146c-36 0 -56 6 -102 31c-12 7 -21 10 -27 10c-9 0 -13 -8 -13 -25v-8h-13v144z" />
    <glyph glyph-name="t" unicode="t" horiz-adv-x="285" 
d="M269 65l16 -4c-22 -51 -52 -72 -104 -72c-29 0 -54 8 -75 23c-23 17 -30 34 -30 68v290h-82v17h26c40 0 68 12 87 38c20 26 37 66 37 89v7h14v-134h127v-17h-127v-305c0 -40 13 -57 42 -57c31 0 52 18 69 57z" />
    <glyph glyph-name="u" unicode="u" horiz-adv-x="543" 
d="M460 17h76v-17h-156v93c-33 -72 -84 -106 -161 -106c-49 0 -89 15 -115 42c-21 22 -27 43 -27 90v251h-77v17h109c28 0 35 4 50 26v-324c0 -60 19 -84 67 -84c81 0 154 71 154 151v214h-77v17h110c20 0 30 5 47 26v-396z" />
    <glyph glyph-name="v" unicode="v" horiz-adv-x="442" 
d="M-17 387h225v-17h-73l121 -281l95 217c8 17 12 33 12 42c0 15 -13 22 -40 22h-43v17h178v-17h-27c-30 0 -39 -11 -74 -91l-132 -303h-8l-174 394h-60v17z" />
    <glyph glyph-name="w" unicode="w" horiz-adv-x="661" 
d="M-17 370v17h446v-17h-79l125 -285l83 193c12 28 19 51 19 65c0 17 -15 27 -39 27h-36v17h176v-17h-23c-14 0 -30 -6 -38 -14c-13 -12 -17 -19 -44 -83l-128 -300h-9l-106 238l-98 -238h-9l-175 397h-65zM261 370h-123l123 -285l61 146z" />
    <glyph glyph-name="x" unicode="x" horiz-adv-x="477" 
d="M8 370v17h237v-17h-66l80 -117l54 63c14 17 22 31 22 38c0 12 -10 16 -36 16h-30v17h188v-17h-25c-50 0 -53 -2 -107 -66l-56 -65l156 -222h68v-17h-248v17h80l-106 151l-69 -82c-24 -27 -32 -40 -32 -49c0 -16 10 -20 46 -20h29v-17h-210v17h25c18 0 38 3 48 8
c18 9 55 42 78 69l75 89l-129 187h-72z" />
    <glyph glyph-name="y" unicode="y" horiz-adv-x="438" 
d="M-17 370v17h220v-17h-71l125 -290l80 197c11 29 19 55 19 66c0 19 -17 27 -55 27h-40v17h193v-17h-31c-16 0 -28 -6 -37 -18c-4 -5 -4 -5 -21 -46l-123 -302c-9 -22 -16 -45 -24 -84l-10 -43c-21 -93 -50 -132 -100 -132c-31 0 -54 21 -54 50c0 25 20 46 44 46
c27 0 44 -18 43 -46c0 -12 1 -15 6 -15c14 0 32 36 45 92l11 43c3 18 6 31 8 39c1 7 1 8 3 16l-173 400h-58z" />
    <glyph glyph-name="z" unicode="z" horiz-adv-x="423" 
d="M75 241h-17v146h353l-276 -370h90c62 0 88 6 112 27c21 17 31 45 31 87v13h17v-144h-363l280 370h-76c-64 0 -89 -4 -110 -18c-26 -15 -41 -52 -41 -97v-14z" />
    <glyph glyph-name="braceleft" unicode="{" horiz-adv-x="261" 
d="M121 575v-250c0 -62 -15 -88 -59 -107c42 -16 59 -47 59 -110v-238c0 -73 23 -99 92 -103v-20c-50 0 -79 10 -97 36c-17 21 -22 51 -22 116v214c0 61 -13 82 -59 100v11c45 16 59 40 59 100v236c0 57 8 84 31 105c19 18 46 27 81 27h7v-20c-68 -5 -92 -31 -92 -97z" />
    <glyph glyph-name="bar" unicode="|" 
d="M233 667h33v-834h-33v834z" />
    <glyph glyph-name="braceright" unicode="}" horiz-adv-x="261" 
d="M140 -136v250c0 62 15 88 59 107c-42 16 -59 47 -59 110v237c0 73 -23 100 -92 104v20c50 0 79 -10 97 -36c17 -21 22 -51 22 -116v-214c0 -61 13 -83 59 -100v-11c-45 -16 -59 -40 -59 -100v-236c0 -62 -10 -90 -38 -111c-21 -16 -41 -21 -81 -21v20c68 5 92 31 92 97z
" />
    <glyph glyph-name="asciitilde" unicode="~" horiz-adv-x="667" 
d="M119 598l-24 15c38 70 76 99 127 99c29 0 60 -11 118 -40c59 -30 77 -37 104 -37c41 0 69 21 104 78l24 -14c-37 -67 -78 -98 -129 -98c-32 0 -49 6 -139 52c-38 19 -61 26 -85 26c-37 0 -68 -24 -100 -81z" />
    <glyph glyph-name="exclamdown" unicode="&#xa1;" horiz-adv-x="265" 
d="M143 274v-107c0 -140 13 -236 45 -326l-5 -7c-23 -32 -31 -49 -43 -89c-1 -5 -3 -8 -6 -8s-5 2 -6 8c-13 41 -31 73 -50 93c7 17 24 83 31 117c7 38 16 159 16 212v107h18zM133 428c25 0 45 -21 45 -45c0 -26 -20 -46 -45 -46c-26 0 -46 20 -46 46c0 25 20 45 46 45z" />
    <glyph glyph-name="cent" unicode="&#xa2;" horiz-adv-x="533" 
d="M445 275h15c-10 -88 -76 -146 -170 -149v-108h-20v108c-44 4 -84 19 -115 41c-48 35 -81 94 -81 146c0 73 39 147 103 193c32 23 47 29 93 38v103h20v-103c8 1 14 1 18 1c71 0 132 -42 132 -92c0 -25 -19 -45 -43 -45c-25 0 -45 21 -45 47c0 16 4 25 21 42c2 2 3 5 3 9
c0 14 -29 24 -69 24c-4 0 -9 0 -17 -1v-388c85 4 142 53 155 134zM270 142v387c-81 -11 -104 -50 -104 -179v-45c0 -116 25 -155 104 -163z" />
    <glyph glyph-name="sterling" unicode="&#xa3;" horiz-adv-x="533" 
d="M524 96l14 -9l-31 -42c-25 -34 -61 -54 -94 -54c-41 0 -58 6 -139 48l-20 9l-30 14c-11 6 -20 10 -36 16c-21 -48 -61 -81 -100 -81c-31 0 -57 25 -57 55c0 49 67 94 139 94c6 0 15 -1 27 -2c5 14 6 22 6 39c0 37 -15 76 -48 126h-126v19h113c-4 5 -8 11 -11 16
c-49 68 -62 99 -62 148c0 106 91 177 227 177c68 0 115 -13 153 -41c40 -30 64 -76 64 -122c0 -42 -24 -73 -58 -73c-27 0 -49 21 -49 48c0 24 20 47 42 47c3 0 7 -1 13 -2l9 -2l8 -1c5 0 9 7 9 15c0 60 -81 115 -170 115c-56 0 -94 -18 -126 -60c-22 -30 -31 -59 -31 -103
c0 -40 6 -70 30 -138c4 -12 5 -14 8 -24h250v-19h-244c10 -33 18 -77 18 -104c0 -20 -3 -39 -10 -62c40 -6 113 -29 153 -49l39 -20c41 -21 44 -22 60 -22c18 0 33 9 47 28zM175 84c-25 11 -45 16 -65 16c-34 0 -63 -21 -63 -47c0 -22 20 -41 41 -41c32 0 60 24 87 72z" />
    <glyph glyph-name="fraction" unicode="&#x2044;" horiz-adv-x="106" 
d="M-109 0h-30l355 667h30z" />
    <glyph glyph-name="yen" unicode="&#xa5;" horiz-adv-x="533" 
d="M19 400h143l-105 250h-58v17h220v-17h-61l148 -363l103 253c18 45 27 72 27 85c0 17 -16 25 -49 25h-13v17h160v-17h-10c-43 0 -51 -7 -77 -69l-76 -181h142v-17h-149l-50 -118v-31h199v-17h-199v-200h103v-17h-291v17h103v200h-210v17h210l-60 149h-150v17z" />
    <glyph glyph-name="florin" unicode="&#x192;" horiz-adv-x="533" 
d="M163 384l3 20h112l4 17c42 185 143 316 242 316c43 0 74 -27 74 -65c0 -32 -23 -58 -52 -58c-22 0 -38 16 -38 37c0 16 4 24 22 39c4 4 8 12 8 17c0 10 -8 15 -23 15c-25 0 -56 -22 -74 -52c-23 -40 -44 -105 -72 -227l-9 -39h135l-2 -17h-138l-11 -36
c-3 -10 -7 -28 -16 -65c-4 -22 -2 -11 -7 -33c-31 -147 -78 -272 -128 -340c-33 -45 -80 -72 -126 -72c-40 0 -67 23 -67 55c0 27 23 50 49 50c22 0 36 -15 36 -36c0 -11 -4 -19 -14 -31c-2 -3 -4 -7 -4 -10c0 -6 6 -11 15 -11c32 0 72 35 93 84c16 35 19 49 54 253
c4 18 7 36 11 56s2 11 6 28l27 105h-110z" />
    <glyph glyph-name="section" unicode="&#xa7;" horiz-adv-x="533" 
d="M287 20l-123 46c-77 29 -117 79 -117 149c0 63 32 123 97 181c-31 23 -47 57 -47 100c0 108 85 191 197 191c84 0 146 -47 146 -110c0 -35 -24 -64 -54 -64c-26 0 -47 21 -47 47c0 25 17 43 40 43c9 0 18 -3 25 -9c4 -3 5 -4 7 -4c3 0 6 3 6 7c0 12 -11 31 -24 43
c-22 21 -57 32 -99 32c-86 0 -146 -48 -146 -116c0 -32 14 -59 42 -78c7 -5 7 -5 100 -44l62 -28c95 -42 135 -89 135 -157c0 -59 -35 -126 -93 -179c45 -28 66 -67 66 -122c0 -44 -16 -90 -43 -124c-36 -44 -91 -67 -161 -67c-97 0 -163 47 -163 115c0 39 24 70 56 70
c26 0 47 -22 47 -49c0 -23 -18 -46 -37 -46c-2 0 -16 3 -17 4l-7 4c-7 4 -8 4 -10 4c-3 0 -6 -3 -6 -8c0 -42 64 -78 137 -78c96 0 161 51 161 124c0 52 -39 89 -130 123zM167 379l-11 7c-44 -33 -76 -84 -76 -120c0 -40 26 -67 94 -99l73 -34c38 -15 83 -33 134 -55
c46 42 68 82 68 122c0 38 -38 78 -96 101l-140 54c-11 5 -22 10 -31 16c-10 5 -5 2 -15 8z" />
    <glyph glyph-name="currency" unicode="&#xa4;" horiz-adv-x="667" 
d="M79 113l89 88c-39 46 -57 92 -57 147c0 53 17 98 54 143l-89 89l21 21l89 -89c46 39 92 57 147 57s103 -18 147 -56l89 88l21 -21l-89 -88c37 -46 54 -91 54 -145s-17 -99 -55 -144l90 -90l-20 -21l-90 90c-44 -37 -92 -55 -147 -55c-53 0 -98 17 -144 54l-89 -89z
M331 539c-103 0 -188 -87 -188 -191c0 -105 85 -191 190 -191s190 85 190 190c0 107 -85 192 -192 192z" />
    <glyph glyph-name="quotesingle" unicode="'" horiz-adv-x="107" 
d="M64 418h-21l-3 249h27z" />
    <glyph glyph-name="quotedblleft" unicode="&#x201c;" horiz-adv-x="463" 
d="M343 701l12 -12c-59 -49 -87 -102 -87 -159c0 -47 22 -79 56 -81c-14 12 -18 19 -18 34c0 24 19 42 45 42c25 0 46 -21 46 -47c0 -29 -26 -52 -59 -52c-50 0 -88 45 -88 104c0 63 26 112 93 171zM159 702l12 -13c-57 -48 -86 -101 -86 -159c0 -44 23 -81 51 -81h5
c-14 13 -18 20 -18 35c0 24 19 42 44 42c26 0 46 -21 46 -47c0 -30 -26 -53 -59 -53c-49 0 -87 45 -87 104c0 64 26 112 92 172z" />
    <glyph glyph-name="guillemotleft" unicode="&#xab;" horiz-adv-x="373" 
d="M277 356l20 -15l-110 -141l119 -144l-21 -16l-130 160zM178 357l19 -16l-111 -141l116 -145l-18 -15l-131 158z" />
    <glyph glyph-name="guilsinglleft" unicode="&#x2039;" horiz-adv-x="271" 
d="M175 44l-122 156l130 160l21 -16l-119 -144l110 -141z" />
    <glyph glyph-name="guilsinglright" unicode="&#x203a;" horiz-adv-x="271" 
d="M96 356l122 -156l-131 -160l-20 16l118 144l-109 141z" />
    <glyph glyph-name="fi" unicode="&#xfb01;" horiz-adv-x="538" 
d="M17 387h77v57c0 150 91 252 225 252c77 0 129 -36 129 -91c0 -29 -20 -51 -47 -51c-26 0 -45 20 -45 47c0 23 17 43 37 43h7c3 0 6 3 6 8c0 17 -36 30 -87 30c-43 0 -84 -11 -107 -29c-26 -20 -38 -57 -38 -113v-153h219c36 0 50 6 62 29v-399h77v-17h-234v17h77v353
h-201v-353h77v-17h-234v17h77v353h-77v17z" />
    <glyph glyph-name="fl" unicode="&#xfb02;" horiz-adv-x="545" 
d="M17 387h77v38c0 89 20 154 65 204c42 48 90 71 146 71c44 0 73 -11 100 -39l57 35v-679h76v-17h-234v17h78v544c-7 -2 -10 -3 -14 -3c-20 0 -37 19 -37 41c0 23 13 39 37 45c8 2 12 6 12 11c0 17 -31 31 -72 31c-39 0 -71 -8 -93 -24c-32 -23 -41 -59 -41 -165v-110h135
v-17h-135v-353h76v-17h-233v17h77v353h-77v17z" />
    <glyph glyph-name="endash" unicode="&#x2013;" horiz-adv-x="465" 
d="M33 176l19 48h380l-16 -48h-383z" />
    <glyph glyph-name="dagger" unicode="&#x2020;" horiz-adv-x="533" 
d="M247 394h12c-1 86 -17 154 -50 210c-2 3 -3 7 -3 9c0 5 4 9 9 9c6 0 10 -2 24 -10c3 11 6 23 13 54c3 16 9 26 16 26c6 0 10 -8 13 -25c2 -9 4 -18 7 -26c2 -9 4 -15 7 -29c10 6 18 9 24 9c4 0 8 -4 8 -8s-1 -8 -6 -17c-32 -62 -49 -135 -47 -202c106 2 126 7 169 42
c10 8 14 10 19 10c6 0 10 -4 10 -10s-2 -14 -9 -28c49 -10 59 -14 59 -22c0 -9 -15 -14 -59 -22c5 -9 9 -21 9 -28c0 -6 -4 -10 -10 -10c-4 0 -6 1 -16 9c-40 34 -73 43 -172 43v-38c0 -191 26 -416 57 -493c2 -4 3 -8 3 -10c0 -4 -4 -7 -9 -7c-8 0 -17 4 -30 15
c-1 -4 -6 -25 -13 -61c-2 -24 -7 -37 -15 -37c-9 0 -15 12 -18 33l-5 32c-2 6 -4 20 -7 33c-13 -10 -24 -16 -30 -16c-5 0 -9 4 -9 8c0 3 1 6 2 9c20 69 31 122 43 222c11 81 16 172 16 259v14v37c-109 -2 -121 -5 -173 -45c-8 -6 -11 -7 -14 -7c-6 0 -10 5 -10 10
c0 6 4 20 8 29c-37 5 -58 12 -58 21s17 15 59 22c-7 19 -8 23 -8 28s4 10 9 10s8 -2 39 -25c24 -19 59 -26 136 -27z" />
    <glyph glyph-name="daggerdbl" unicode="&#x2021;" horiz-adv-x="533" 
d="M260 350v28c-97 0 -133 -9 -172 -43c-7 -7 -12 -9 -16 -9c-6 0 -10 5 -10 10c0 6 2 12 8 28c-43 8 -58 13 -58 22c0 8 10 12 59 22c-6 14 -9 22 -9 27c0 6 5 11 10 11c4 0 10 -3 19 -10c43 -36 62 -40 169 -42c2 67 -15 140 -47 202c-4 6 -6 13 -6 17c0 5 4 8 8 8
c5 0 11 -2 24 -9c2 9 5 19 7 29c3 10 5 18 7 26c2 17 7 25 14 25s12 -8 15 -25c2 -8 4 -16 6 -26c3 -10 5 -19 7 -29c14 7 19 9 24 9s9 -3 9 -8c0 -4 -2 -11 -6 -17c-32 -62 -50 -135 -48 -202c107 2 126 7 169 42c9 7 15 10 19 10c5 0 10 -5 10 -11c0 -5 -3 -13 -8 -27
c48 -10 58 -14 58 -22c0 -9 -15 -14 -58 -22c7 -15 9 -22 9 -28c0 -5 -4 -10 -10 -10c-4 0 -9 3 -16 9c-39 34 -76 43 -173 43v-30c0 -26 0 -26 15 -106c-15 -80 -15 -80 -15 -106v-30c97 0 134 10 173 43c7 7 12 9 16 9c6 0 10 -5 10 -10c0 -6 -2 -12 -9 -27
c43 -8 58 -14 58 -22c0 -9 -10 -13 -58 -22c6 -15 8 -23 8 -28c0 -6 -5 -11 -10 -11c-4 0 -10 3 -19 10c-41 34 -71 43 -149 43h-20c-1 -117 8 -166 48 -248c4 -6 6 -13 6 -17c0 -5 -4 -8 -9 -8s-10 2 -24 9c-2 -11 -5 -21 -7 -29c-2 -10 -4 -18 -6 -26
c-3 -17 -8 -25 -15 -25s-12 8 -14 25c-2 9 -4 17 -7 26c-3 10 -5 20 -7 29c-13 -7 -19 -9 -24 -9c-4 0 -8 3 -8 8c0 4 2 11 6 17c39 82 48 131 47 248h-20c-78 0 -108 -9 -149 -43c-9 -7 -15 -10 -19 -10c-5 0 -10 5 -10 11c0 5 3 14 9 28c-49 9 -59 13 -59 22
c0 8 15 13 58 22c-6 15 -8 21 -8 27c0 5 4 10 10 10c4 0 9 -3 16 -9c38 -33 76 -43 172 -43v30c0 26 0 26 -15 106c15 80 15 80 15 108z" />
    <glyph glyph-name="periodcentered" unicode="&#xb7;" horiz-adv-x="240" 
d="M120 246c25 0 46 -21 46 -46c0 -26 -21 -47 -47 -47c-25 0 -46 21 -46 47c0 25 21 46 47 46z" />
    <glyph glyph-name="paragraph" unicode="&#xb6;" horiz-adv-x="533" 
d="M245 -105v413h-23c-113 0 -191 72 -191 178c0 66 34 126 88 156c30 16 74 25 122 25h240v-17h-47v-755h-33v755h-123v-755h-33z" />
    <glyph glyph-name="bullet" unicode="&#x2022;" horiz-adv-x="667" 
d="M337 477c74 0 136 -63 136 -138c0 -77 -62 -139 -138 -139s-139 62 -139 138c0 78 62 139 141 139z" />
    <glyph glyph-name="quotesinglbase" unicode="&#x201a;" horiz-adv-x="280" 
d="M121 -186l-12 13c58 49 87 102 87 159c0 45 -24 81 -54 81h-2c13 -12 17 -19 17 -34c0 -24 -19 -42 -44 -42c-26 0 -46 21 -46 47c0 29 26 52 59 52c50 0 88 -45 88 -104c0 -63 -26 -112 -93 -172z" />
    <glyph glyph-name="quotedblbase" unicode="&#x201e;" horiz-adv-x="463" 
d="M121 -186l-12 13c58 49 87 102 87 159c0 47 -24 81 -56 81c13 -12 17 -19 17 -34c0 -24 -19 -42 -44 -42c-26 0 -46 21 -46 47c0 29 26 52 59 52c50 0 88 -45 88 -104c0 -63 -27 -113 -93 -172zM304 -186l-12 12c58 49 87 102 87 160c0 43 -24 81 -51 81c-1 0 -3 0 -5 -1
c14 -12 18 -19 18 -34c0 -24 -19 -42 -45 -42c-25 0 -46 21 -46 47c0 30 26 53 59 53c50 0 88 -45 88 -104c0 -64 -26 -112 -93 -172z" />
    <glyph glyph-name="quotedblright" unicode="&#x201d;" horiz-adv-x="463" 
d="M121 427l-12 12c58 50 87 102 87 159c0 47 -21 78 -56 81c13 -12 17 -19 17 -34c0 -24 -19 -42 -44 -42c-26 0 -46 21 -46 47c0 29 26 52 59 52c50 0 88 -45 88 -103c0 -64 -27 -113 -93 -172zM304 426l-12 13c58 48 87 101 87 159c0 44 -24 81 -52 81h-4
c14 -13 18 -20 18 -35c0 -24 -19 -42 -45 -42c-25 0 -46 21 -46 47c0 30 26 53 59 53c50 0 88 -45 88 -104c0 -64 -26 -112 -93 -172z" />
    <glyph glyph-name="guillemotright" unicode="&#xbb;" horiz-adv-x="373" 
d="M96 356l122 -156l-131 -160l-20 16l118 144l-109 141zM195 357l125 -159l-131 -158l-19 15l117 145l-112 141z" />
    <glyph glyph-name="ellipsis" unicode="&#x2026;" horiz-adv-x="721" 
d="M120 86c25 0 46 -21 46 -46c0 -26 -21 -47 -47 -47c-25 0 -46 21 -46 47c0 25 21 46 47 46zM361 86c25 0 46 -21 46 -46c0 -26 -21 -47 -47 -47c-25 0 -46 21 -46 47c0 25 21 46 47 46zM601 86c25 0 46 -21 46 -46c0 -26 -21 -47 -47 -47c-25 0 -46 21 -46 47
c0 25 21 46 47 46z" />
    <glyph glyph-name="perthousand" unicode="&#x2030;" horiz-adv-x="1060" 
d="M161 669c73 0 124 -69 124 -167c0 -65 -19 -111 -58 -144c-24 -19 -44 -27 -69 -27c-33 0 -58 11 -82 37c-30 33 -43 73 -43 131c0 65 16 107 56 141c23 20 45 29 72 29zM159 657c-50 0 -73 -46 -73 -148c0 -119 20 -167 70 -167c52 0 75 49 75 161
c0 111 -20 154 -72 154zM202 0h-31l356 667h29zM570 335c73 0 125 -69 125 -167c0 -65 -19 -111 -59 -144c-23 -19 -43 -27 -68 -27c-33 0 -59 11 -82 37c-31 33 -44 73 -44 131c0 65 16 107 56 141c24 20 46 29 72 29zM568 323c-50 0 -73 -46 -73 -148
c0 -119 20 -167 71 -167c52 0 75 49 75 161c0 111 -20 154 -73 154zM902 335c73 0 124 -69 124 -167c0 -65 -19 -111 -58 -144c-24 -19 -44 -27 -69 -27c-33 0 -58 11 -82 37c-30 33 -43 73 -43 131c0 65 16 107 56 141c23 20 45 29 72 29zM900 323c-50 0 -73 -46 -73 -148
c0 -119 20 -167 70 -167c52 0 75 49 75 161c0 111 -20 154 -72 154z" />
    <glyph glyph-name="questiondown" unicode="&#xbf;" horiz-adv-x="390" 
d="M253 278l14 4c11 -45 16 -81 16 -118c0 -32 -7 -58 -22 -81c-15 -22 -15 -22 -89 -76l-24 -20c-53 -44 -79 -88 -79 -130c0 -59 57 -104 133 -104c51 0 105 29 105 57c0 9 -4 11 -24 14c-27 4 -41 20 -41 46s19 45 44 45c31 0 53 -28 53 -67c0 -61 -62 -111 -137 -111
c-98 0 -162 65 -162 164c0 28 4 56 11 77c11 33 26 52 75 96l31 28c8 7 18 15 30 23l15 12c42 30 57 55 57 95c0 14 -1 24 -6 46zM258 427c24 0 44 -21 44 -45c0 -25 -20 -45 -45 -45s-45 20 -45 45s20 45 46 45z" />
    <glyph glyph-name="grave" unicode="`" 
d="M255 453l-119 114c-23 22 -31 34 -31 44c0 18 17 31 39 31c28 0 37 -9 69 -71l62 -118h-20z" />
    <glyph glyph-name="acute" unicode="&#xb4;" 
d="M245 453h-20l62 118c33 62 41 71 69 71c22 0 39 -13 39 -31c0 -10 -8 -23 -31 -44z" />
    <glyph glyph-name="circumflex" unicode="&#x2c6;" 
d="M282 641l103 -188h-18l-119 122l-114 -122h-18l102 188h64z" />
    <glyph glyph-name="tilde" unicode="&#x2dc;" 
d="M405 599h17c-20 -72 -55 -109 -102 -109c-20 0 -35 5 -101 34c-18 8 -36 13 -48 13c-23 0 -38 -15 -48 -49h-17c15 68 49 107 95 107c20 0 39 -5 78 -22c41 -19 58 -24 75 -24c22 0 33 11 51 50z" />
    <glyph glyph-name="macron" unicode="&#xaf;" 
d="M402 561v-39h-304v39h304z" />
    <glyph glyph-name="breve" unicode="&#x2d8;" 
d="M361 619h16c-12 -97 -55 -146 -127 -146s-115 49 -127 146h16c15 -59 50 -86 111 -86s96 27 111 86z" />
    <glyph glyph-name="dotaccent" unicode="&#x2d9;" 
d="M251 587c25 0 45 -21 45 -45c0 -26 -20 -46 -45 -46c-26 0 -46 20 -46 46c0 25 21 45 46 45z" />
    <glyph glyph-name="dieresis" unicode="&#xa8;" 
d="M338 587c25 0 45 -21 45 -45c0 -26 -20 -46 -46 -46c-25 0 -45 20 -45 46c0 25 21 45 46 45zM164 588c24 0 45 -21 45 -45c0 -26 -20 -46 -46 -46c-25 0 -45 20 -45 46c0 25 21 45 46 45z" />
    <glyph glyph-name="ring" unicode="&#x2da;" 
d="M239 639c49 0 91 -42 91 -93s-42 -93 -93 -93c-52 0 -93 42 -93 94c0 51 42 92 95 92zM236 614c-36 0 -67 -31 -67 -68c0 -38 30 -68 68 -68s68 30 68 69c0 37 -31 67 -69 67z" />
    <glyph glyph-name="cedilla" unicode="&#xb8;" 
d="M274 0h19l-55 -96c22 8 35 11 55 11c45 0 77 -25 77 -61c0 -41 -46 -71 -107 -71c-31 0 -62 8 -93 23l7 14c19 -11 47 -17 72 -17c32 0 56 21 56 51c0 25 -20 43 -48 43c-14 0 -19 -2 -37 -12l-8 7z" />
    <glyph glyph-name="hungarumlaut" unicode="&#x2dd;" 
d="M200 453h-19l40 118c21 62 28 71 53 71c23 0 40 -15 40 -34c0 -11 -5 -21 -21 -41zM331 453h-19l40 118c21 62 28 71 53 71c23 0 40 -15 40 -34c0 -11 -5 -21 -21 -41z" />
    <glyph glyph-name="ogonek" unicode="&#x2db;" 
d="M305 0h32c-40 -24 -61 -56 -61 -90c0 -38 29 -62 76 -62c17 0 27 2 45 8v-18c-35 -16 -61 -22 -91 -22c-55 0 -93 30 -93 75c0 40 38 84 92 109z" />
    <glyph glyph-name="caron" unicode="&#x2c7;" 
d="M282 453h-64l-102 188h18l114 -122l119 122h18z" />
    <glyph glyph-name="emdash" unicode="&#x2014;" horiz-adv-x="663" 
d="M0 176l19 48h644l-15 -48h-648z" />
    <glyph glyph-name="AE" unicode="&#xc6;" horiz-adv-x="887" 
d="M-27 0v17h33c34 0 58 9 74 28c12 14 30 41 40 60l291 545h-105v17h496l16 -163h-17v9c0 10 -9 49 -15 63c-21 53 -71 74 -176 74h-90v-303h34c70 0 100 14 113 51c3 11 8 44 8 58v12h16v-252h-16v12c0 29 -6 59 -15 72c-14 22 -42 30 -107 30h-33v-313h87
c113 0 167 15 203 57c17 20 29 65 29 113v10h17v-197h-542v17h109v201h-224l-55 -103c-17 -33 -31 -64 -31 -73c0 -18 18 -25 63 -25h31v-17c-51 1 -91 2 -117 2s-65 -1 -117 -2zM423 638l-216 -403h216v403z" />
    <glyph glyph-name="ordfeminine" unicode="&#xaa;" horiz-adv-x="356" 
d="M356 330v-33h-356v33h356zM227 558v61c0 37 -14 47 -66 47c-40 0 -70 -12 -70 -28c0 -4 2 -6 7 -9c11 -9 15 -15 15 -26c0 -19 -13 -32 -32 -32c-18 0 -33 15 -33 34c0 43 50 77 112 77c35 0 67 -8 94 -25c25 -15 33 -28 33 -56v-116c2 -69 2 -69 18 -69c10 0 19 8 31 26
l13 -7c-14 -27 -34 -39 -61 -39c-30 0 -45 10 -57 38c-18 -24 -58 -40 -103 -40c-61 0 -102 27 -102 68c0 30 26 62 60 74c39 15 62 18 141 22zM227 458v84c-114 -4 -134 -15 -134 -67c0 -45 14 -61 53 -61c36 0 69 18 81 44z" />
    <glyph glyph-name="Lslash" unicode="&#x141;" horiz-adv-x="634" 
d="M114 313v337h-97v17h305v-17h-111v-271l152 117v-28l-152 -117v-334h100c119 0 180 7 216 26c44 22 64 64 64 134v43h17v-220h-591v17h97v269l-93 -71v26z" />
    <glyph glyph-name="Oslash" unicode="&#xd8;" horiz-adv-x="691" 
d="M552 678l-36 -61c48 -41 67 -62 89 -102c33 -58 50 -122 50 -184c0 -184 -145 -343 -313 -343c-55 0 -100 15 -156 53l-38 -65l-16 9l38 68c-39 32 -61 56 -81 89c-31 51 -52 132 -52 202c0 85 30 162 88 226c60 67 145 109 218 109c36 0 77 -10 113 -28
c6 -3 12 -6 45 -25l36 62zM493 577l-286 -499c36 -52 79 -76 140 -76c128 0 197 112 197 321c0 113 -17 197 -51 254zM195 95l287 499c-40 52 -79 72 -137 72s-112 -26 -142 -69c-40 -56 -58 -138 -58 -259c0 -109 14 -179 50 -243z" />
    <glyph glyph-name="OE" unicode="&#x152;" horiz-adv-x="901" 
d="M870 197v-197h-434c-9 0 -26 -2 -50 -5c-23 -3 -44 -4 -65 -4c-85 0 -158 41 -214 120c-45 64 -70 144 -70 225c0 186 126 341 276 341c23 0 80 -3 99 -5c25 -3 43 -5 46 -5h358l15 -162h-17v8c0 18 -12 61 -23 81c-21 38 -75 56 -169 56h-90v-303h32
c96 0 123 25 123 114v7h17v-253h-17v9c0 87 -22 106 -123 106h-32v-313h81c122 0 186 16 213 55c17 23 28 72 27 125h17zM435 654l-33 3c-43 5 -53 6 -75 6c-124 0 -178 -99 -178 -330c0 -130 16 -206 56 -263c29 -42 71 -65 117 -65c14 0 39 2 69 6l44 6v637z" />
    <glyph glyph-name="ordmasculine" unicode="&#xba;" horiz-adv-x="356" 
d="M356 330v-33h-356v33h356zM183 678c76 0 147 -70 147 -144c0 -77 -70 -145 -150 -145s-154 69 -154 143s77 146 157 146zM261 486v94c0 38 -3 49 -16 62c-14 13 -37 21 -64 21c-59 0 -86 -26 -86 -82v-94c0 -60 24 -83 87 -83c58 0 79 22 79 82z" />
    <glyph glyph-name="ae" unicode="&#xe6;" horiz-adv-x="711" 
d="M677 136l16 -4l-2 -8c-8 -37 -32 -74 -65 -99c-35 -27 -70 -37 -129 -37c-88 0 -152 25 -175 67c-31 -43 -81 -65 -149 -65c-87 0 -141 37 -141 96c0 64 55 112 147 128c38 6 67 9 132 10v76c0 56 -5 73 -25 83c-14 8 -39 12 -66 12c-56 0 -101 -21 -101 -47
c0 -7 3 -11 15 -19c11 -7 18 -21 18 -35c0 -24 -18 -42 -41 -42c-26 0 -47 22 -47 50c0 61 69 107 162 107c65 0 114 -17 144 -49c36 33 78 49 127 49c57 0 111 -27 149 -76c17 -21 40 -76 40 -95c0 -7 -1 -7 -28 -7h-261l-1 -79v-8c0 -55 6 -81 24 -105
c18 -23 50 -36 91 -36c80 0 149 52 164 123zM312 100v109c-77 0 -104 -3 -138 -15c-39 -13 -54 -38 -54 -90c0 -66 23 -93 77 -93c43 0 92 21 110 48c4 6 5 14 5 41zM397 247h158c28 0 31 0 32 1c1 2 2 7 2 15c0 36 -4 69 -10 84c-12 31 -41 48 -83 48
c-34 0 -63 -12 -79 -34c-16 -20 -20 -39 -20 -88v-26z" />
    <glyph glyph-name="dotlessi" unicode="&#x131;" horiz-adv-x="258" 
d="M94 370h-76v17h95c37 0 49 6 62 30v-400h77v-17h-235v17h77v353z" />
    <glyph glyph-name="lslash" unicode="&#x142;" horiz-adv-x="262" 
d="M13 656v17h96c38 0 51 6 63 30v-297l75 57v-24l-75 -58v-364h76v-17h-235v17h77v312l-76 -58v25l76 58v302h-77z" />
    <glyph glyph-name="oslash" unicode="&#xf8;" horiz-adv-x="489" 
d="M401 410l-31 -45c61 -51 89 -104 89 -169c0 -111 -100 -208 -213 -208c-40 0 -75 10 -112 32l-34 -51l-14 11l34 50c-57 39 -90 100 -90 164c0 110 104 211 218 211c38 0 64 -7 107 -30l32 44zM352 338l-205 -299c23 -26 56 -38 101 -38c46 0 83 17 103 49
c12 19 17 53 17 111v67c0 61 -4 86 -16 110zM136 53l205 300c-25 29 -52 41 -94 41c-52 0 -90 -19 -110 -55c-13 -24 -17 -48 -17 -110v-65c0 -56 5 -88 16 -111z" />
    <glyph glyph-name="oe" unicode="&#x153;" horiz-adv-x="748" 
d="M717 136l14 -4l-2 -9c-8 -35 -32 -74 -62 -98c-31 -25 -67 -37 -113 -37c-70 0 -114 19 -161 71c-36 -48 -88 -71 -154 -71c-64 0 -112 21 -154 69c-37 41 -55 86 -55 138c0 116 94 212 206 212c69 0 122 -24 166 -75c36 52 81 77 137 77c55 0 108 -28 144 -75
c18 -23 40 -76 40 -95c0 -8 0 -8 -28 -8h-251l-2 -78v-14c0 -94 35 -136 113 -136c82 0 138 46 162 133zM352 146v84c0 64 -7 100 -23 124c-17 24 -51 38 -94 38c-46 0 -78 -14 -95 -41c-14 -24 -17 -44 -17 -118v-87c0 -56 5 -82 20 -104c17 -26 50 -40 91 -40
c44 0 83 17 99 43c13 20 19 54 19 101zM444 247h152c28 0 28 0 29 1c2 2 2 6 2 15c0 98 -23 131 -90 131c-33 0 -62 -13 -75 -34c-10 -19 -18 -55 -18 -88v-25z" />
    <glyph glyph-name="germandbls" unicode="&#xdf;" horiz-adv-x="589" 
d="M17 387h77v30c0 164 98 281 236 281c96 0 170 -60 170 -138c0 -29 -9 -57 -26 -83c-7 -10 -13 -17 -56 -65l-12 -12c-19 -22 -27 -36 -27 -49c0 -18 16 -33 52 -46l39 -14c71 -26 100 -66 100 -134c0 -100 -65 -169 -160 -169c-69 0 -119 42 -119 101c0 34 20 59 47 59
c24 0 43 -18 43 -41c0 -18 -11 -33 -29 -41c-13 -5 -18 -10 -18 -18c0 -23 40 -45 82 -45c66 0 118 46 118 106c0 48 -27 78 -94 105l-34 14c-54 22 -71 39 -71 72c0 31 15 60 53 103l16 18c34 39 50 82 50 137c0 80 -46 124 -130 124c-57 0 -104 -23 -126 -62
c-12 -21 -24 -84 -24 -129v-474h79v-17h-236v17h77v353h-77v17z" />
    <glyph glyph-name="Adieresis" unicode="&#xc4;" horiz-adv-x="666" 
d="M-3 17h32c41 0 50 9 74 76l210 584h13l252 -660h85v-17h-291v17h99l-76 201h-228l-46 -127c-7 -22 -12 -39 -12 -46c0 -19 20 -28 67 -28h31v-17h-210v17zM173 234h216l-112 297zM413 849c25 0 47 -22 47 -48s-22 -48 -48 -48c-27 0 -48 22 -48 48c0 27 22 48 49 48z
M225 849c25 0 47 -22 47 -48s-22 -48 -48 -48c-27 0 -48 22 -48 48c0 27 22 48 49 48z" />
    <glyph glyph-name="Aacute" unicode="&#xc1;" horiz-adv-x="666" 
d="M-3 17h32c41 0 50 9 74 76l210 584h13l252 -660h85v-17h-291v17h99l-76 201h-228l-46 -127c-7 -22 -12 -39 -12 -46c0 -19 20 -28 67 -28h31v-17h-210v17zM173 234h216l-112 297zM331 723h-19l74 106c28 41 39 50 62 50s39 -13 39 -32c0 -15 -13 -31 -41 -49z" />
    <glyph glyph-name="Agrave" unicode="&#xc0;" horiz-adv-x="666" 
d="M-3 17h32c41 0 50 9 74 76l210 584h13l252 -660h85v-17h-291v17h99l-76 201h-228l-46 -127c-7 -22 -12 -39 -12 -46c0 -19 20 -28 67 -28h31v-17h-210v17zM173 234h216l-112 297zM315 723l-115 75c-28 18 -41 34 -41 49c0 19 16 32 39 32s35 -9 63 -50l73 -106h-19z" />
    <glyph glyph-name="Acircumflex" unicode="&#xc2;" horiz-adv-x="666" 
d="M-3 17h32c41 0 50 9 74 76l210 584h13l252 -660h85v-17h-291v17h99l-76 201h-228l-46 -127c-7 -22 -12 -39 -12 -46c0 -19 20 -28 67 -28h31v-17h-210v17zM173 234h216l-112 297zM357 881l106 -158h-21l-121 98l-117 -98h-20l105 158h68z" />
    <glyph glyph-name="Atilde" unicode="&#xc3;" horiz-adv-x="666" 
d="M-3 17h32c41 0 50 9 74 76l210 584h13l252 -660h85v-17h-291v17h99l-76 201h-228l-46 -127c-7 -22 -12 -39 -12 -46c0 -19 20 -28 67 -28h31v-17h-210v17zM173 234h216l-112 297zM474 858h17c-20 -72 -55 -109 -102 -109c-20 0 -35 5 -101 34c-18 8 -36 13 -48 13
c-23 0 -38 -15 -48 -49h-17c15 68 49 107 95 107c20 0 39 -5 78 -22c41 -19 58 -24 75 -24c22 0 33 11 51 50z" />
    <glyph glyph-name="Aring" unicode="&#xc5;" horiz-adv-x="666" 
d="M-3 17h32c41 0 50 9 74 76l210 584h13l252 -660h85v-17h-291v17h99l-76 201h-228l-46 -127c-7 -22 -12 -39 -12 -46c0 -19 20 -28 67 -28h31v-17h-210v17zM173 234h216l-112 297zM322 906c49 0 91 -42 91 -93s-42 -93 -93 -93c-52 0 -93 42 -93 94c0 51 42 92 95 92z
M319 881c-36 0 -67 -31 -67 -68c0 -38 30 -68 68 -68s68 30 68 69c0 37 -31 67 -69 67z" />
    <glyph glyph-name="Edieresis" unicode="&#xcb;" horiz-adv-x="648" 
d="M212 17h125c100 0 150 7 188 26c51 25 75 62 75 115v38h17v-196h-600v17h97v633h-97v17h549l15 -163h-15c-13 77 -24 98 -61 119c-33 19 -87 27 -179 27h-114v-303h39c49 0 92 6 112 17c24 12 42 43 42 72v31h17v-251h-17v35c0 38 -19 64 -54 74c-18 4 -53 7 -101 7h-38
v-315zM420 849c25 0 47 -22 47 -48s-22 -48 -48 -48c-27 0 -48 22 -48 48c0 27 22 48 49 48zM232 849c25 0 47 -22 47 -48s-22 -48 -48 -48c-27 0 -48 22 -48 48c0 27 22 48 49 48z" />
    <glyph glyph-name="Eacute" unicode="&#xc9;" horiz-adv-x="648" 
d="M212 17h125c100 0 150 7 188 26c51 25 75 62 75 115v38h17v-196h-600v17h97v633h-97v17h549l15 -163h-15c-13 77 -24 98 -61 119c-33 19 -87 27 -179 27h-114v-303h39c49 0 92 6 112 17c24 12 42 43 42 72v31h17v-251h-17v35c0 38 -19 64 -54 74c-18 4 -53 7 -101 7h-38
v-315zM203 723h-19l74 106c28 41 39 50 62 50s39 -13 39 -32c0 -15 -13 -31 -41 -49z" />
    <glyph glyph-name="Egrave" unicode="&#xc8;" horiz-adv-x="648" 
d="M212 17h125c100 0 150 7 188 26c51 25 75 62 75 115v38h17v-196h-600v17h97v633h-97v17h549l15 -163h-15c-13 77 -24 98 -61 119c-33 19 -87 27 -179 27h-114v-303h39c49 0 92 6 112 17c24 12 42 43 42 72v31h17v-251h-17v35c0 38 -19 64 -54 74c-18 4 -53 7 -101 7h-38
v-315zM293 723l-115 75c-28 18 -41 34 -41 49c0 19 16 32 39 32s35 -9 63 -50l73 -106h-19z" />
    <glyph glyph-name="Ecircumflex" unicode="&#xca;" horiz-adv-x="648" 
d="M212 17h125c100 0 150 7 188 26c51 25 75 62 75 115v38h17v-196h-600v17h97v633h-97v17h549l15 -163h-15c-13 77 -24 98 -61 119c-33 19 -87 27 -179 27h-114v-303h39c49 0 92 6 112 17c24 12 42 43 42 72v31h17v-251h-17v35c0 38 -19 64 -54 74c-18 4 -53 7 -101 7h-38
v-315zM358 881l106 -158h-21l-121 98l-117 -98h-20l105 158h68z" />
    <glyph glyph-name="Idieresis" unicode="&#xcf;" horiz-adv-x="334" 
d="M20 667h294v-17h-97v-633h97v-17h-294v17h97v633h-97v17zM249 849c25 0 47 -22 47 -48s-22 -48 -48 -48c-27 0 -48 22 -48 48c0 27 22 48 49 48zM87 849c25 0 47 -22 47 -48s-22 -48 -48 -48c-27 0 -48 22 -48 48c0 27 22 48 49 48z" />
    <glyph glyph-name="Iacute" unicode="&#xcd;" horiz-adv-x="334" 
d="M20 667h294v-17h-97v-633h97v-17h-294v17h97v633h-97v17zM156 723h-19l74 106c28 41 39 50 62 50s39 -13 39 -32c0 -15 -13 -31 -41 -49z" />
    <glyph glyph-name="Igrave" unicode="&#xcc;" horiz-adv-x="334" 
d="M20 667h294v-17h-97v-633h97v-17h-294v17h97v633h-97v17zM177 723l-115 75c-28 18 -41 34 -41 49c0 19 16 32 39 32s35 -9 63 -50l73 -106h-19z" />
    <glyph glyph-name="Icircumflex" unicode="&#xce;" horiz-adv-x="334" 
d="M20 667h294v-17h-97v-633h97v-17h-294v17h97v633h-97v17zM201 881l106 -158h-21l-121 98l-117 -98h-20l105 158h68z" />
    <glyph glyph-name="Ntilde" unicode="&#xd1;" horiz-adv-x="725" 
d="M10 17h33c43 0 55 6 61 31c3 11 3 16 3 75v515l-17 12h-80v17h206l389 -492v392c0 82 -1 83 -73 83h-28v17h214v-17h-28c-69 0 -69 0 -69 -83v-572h-6l-492 625v-497c0 -100 4 -106 76 -106h28v-17h-217v17zM504 858h17c-20 -72 -55 -109 -102 -109c-20 0 -35 5 -101 34
c-18 8 -36 13 -48 13c-23 0 -38 -15 -48 -49h-17c15 68 49 107 95 107c20 0 39 -5 78 -22c41 -19 58 -24 75 -24c22 0 33 11 51 50z" />
    <glyph glyph-name="Odieresis" unicode="&#xd6;" horiz-adv-x="697" 
d="M353 681c80 0 177 -53 235 -129c46 -60 72 -139 72 -220c0 -94 -34 -180 -98 -246c-59 -61 -139 -98 -213 -98c-90 0 -189 56 -248 140c-41 60 -64 133 -64 208c0 97 36 183 103 248c64 63 139 97 213 97zM345 666c-126 0 -197 -118 -197 -328c0 -224 66 -335 200 -335
s201 111 201 333c0 216 -71 330 -204 330zM444 849c25 0 47 -22 47 -48s-22 -48 -48 -48c-27 0 -48 22 -48 48c0 27 22 48 49 48zM256 849c25 0 47 -22 47 -48s-22 -48 -48 -48c-27 0 -48 22 -48 48c0 27 22 48 49 48z" />
    <glyph glyph-name="Oacute" unicode="&#xd3;" horiz-adv-x="697" 
d="M353 681c80 0 177 -53 235 -129c46 -60 72 -139 72 -220c0 -94 -34 -180 -98 -246c-59 -61 -139 -98 -213 -98c-90 0 -189 56 -248 140c-41 60 -64 133 -64 208c0 97 36 183 103 248c64 63 139 97 213 97zM345 666c-126 0 -197 -118 -197 -328c0 -224 66 -335 200 -335
s201 111 201 333c0 216 -71 330 -204 330zM347 723h-19l74 106c28 41 39 50 62 50s39 -13 39 -32c0 -15 -13 -31 -41 -49z" />
    <glyph glyph-name="Ograve" unicode="&#xd2;" horiz-adv-x="697" 
d="M353 681c80 0 177 -53 235 -129c46 -60 72 -139 72 -220c0 -94 -34 -180 -98 -246c-59 -61 -139 -98 -213 -98c-90 0 -189 56 -248 140c-41 60 -64 133 -64 208c0 97 36 183 103 248c64 63 139 97 213 97zM345 666c-126 0 -197 -118 -197 -328c0 -224 66 -335 200 -335
s201 111 201 333c0 216 -71 330 -204 330zM350 723l-115 75c-28 18 -41 34 -41 49c0 19 16 32 39 32s35 -9 63 -50l73 -106h-19z" />
    <glyph glyph-name="Ocircumflex" unicode="&#xd4;" horiz-adv-x="697" 
d="M353 681c80 0 177 -53 235 -129c46 -60 72 -139 72 -220c0 -94 -34 -180 -98 -246c-59 -61 -139 -98 -213 -98c-90 0 -189 56 -248 140c-41 60 -64 133 -64 208c0 97 36 183 103 248c64 63 139 97 213 97zM345 666c-126 0 -197 -118 -197 -328c0 -224 66 -335 200 -335
s201 111 201 333c0 216 -71 330 -204 330zM382 881l106 -158h-21l-121 98l-117 -98h-20l105 158h68z" />
    <glyph glyph-name="Otilde" unicode="&#xd5;" horiz-adv-x="697" 
d="M353 681c80 0 177 -53 235 -129c46 -60 72 -139 72 -220c0 -94 -34 -180 -98 -246c-59 -61 -139 -98 -213 -98c-90 0 -189 56 -248 140c-41 60 -64 133 -64 208c0 97 36 183 103 248c64 63 139 97 213 97zM345 666c-126 0 -197 -118 -197 -328c0 -224 66 -335 200 -335
s201 111 201 333c0 216 -71 330 -204 330zM490 858h17c-20 -72 -55 -109 -102 -109c-20 0 -35 5 -101 34c-18 8 -36 13 -48 13c-23 0 -38 -15 -48 -49h-17c15 68 49 107 95 107c20 0 39 -5 78 -22c41 -19 58 -24 75 -24c22 0 33 11 51 50z" />
    <glyph glyph-name="Scaron" unicode="&#x160;" horiz-adv-x="554" 
d="M57 238h17c5 -64 12 -95 31 -128c37 -65 115 -107 197 -107c102 0 171 62 171 153c0 37 -14 67 -42 88c-27 22 -60 33 -128 43l-52 9c-74 11 -116 27 -142 53c-29 29 -47 79 -47 132c0 118 82 200 201 200c49 0 74 -8 141 -46l15 -9c7 -4 14 -6 20 -6c15 0 21 9 23 39h17
v-200h-17c-3 55 -16 93 -43 130c-35 46 -99 76 -163 76c-91 0 -153 -56 -153 -139c0 -76 44 -110 163 -127l50 -7c66 -10 110 -24 141 -48c39 -30 60 -81 60 -144c0 -125 -88 -213 -213 -213c-50 0 -81 7 -137 29c-9 3 -9 3 -30 12c-17 7 -27 9 -38 9c-16 0 -22 -12 -25 -44
h-17v245zM311 723h-68l-105 158h20l117 -98l121 98h21z" />
    <glyph glyph-name="Udieresis" unicode="&#xdc;" horiz-adv-x="721" 
d="M722 650h-41c-46 0 -56 -14 -56 -82v-341c0 -95 -19 -149 -66 -189c-43 -36 -100 -52 -186 -52c-117 0 -192 24 -236 75c-27 31 -33 56 -33 147v442h-97v17h300v-17h-104v-447c0 -90 6 -115 36 -145c36 -36 89 -54 158 -54c80 0 138 25 176 75c27 36 35 70 35 145v344
c0 70 -10 82 -68 82h-48v17h230v-17zM496 849c25 0 47 -22 47 -48s-22 -48 -48 -48c-27 0 -48 22 -48 48c0 27 22 48 49 48zM308 849c25 0 47 -22 47 -48s-22 -48 -48 -48c-27 0 -48 22 -48 48c0 27 22 48 49 48z" />
    <glyph glyph-name="Uacute" unicode="&#xda;" horiz-adv-x="721" 
d="M722 650h-41c-46 0 -56 -14 -56 -82v-341c0 -95 -19 -149 -66 -189c-43 -36 -100 -52 -186 -52c-117 0 -192 24 -236 75c-27 31 -33 56 -33 147v442h-97v17h300v-17h-104v-447c0 -90 6 -115 36 -145c36 -36 89 -54 158 -54c80 0 138 25 176 75c27 36 35 70 35 145v344
c0 70 -10 82 -68 82h-48v17h230v-17zM392 723h-19l74 106c28 41 39 50 62 50s39 -13 39 -32c0 -15 -13 -31 -41 -49z" />
    <glyph glyph-name="Ugrave" unicode="&#xd9;" horiz-adv-x="721" 
d="M722 650h-41c-46 0 -56 -14 -56 -82v-341c0 -95 -19 -149 -66 -189c-43 -36 -100 -52 -186 -52c-117 0 -192 24 -236 75c-27 31 -33 56 -33 147v442h-97v17h300v-17h-104v-447c0 -90 6 -115 36 -145c36 -36 89 -54 158 -54c80 0 138 25 176 75c27 36 35 70 35 145v344
c0 70 -10 82 -68 82h-48v17h230v-17zM396 723l-115 75c-28 18 -41 34 -41 49c0 19 16 32 39 32s35 -9 63 -50l73 -106h-19z" />
    <glyph glyph-name="Ucircumflex" unicode="&#xdb;" horiz-adv-x="721" 
d="M722 650h-41c-46 0 -56 -14 -56 -82v-341c0 -95 -19 -149 -66 -189c-43 -36 -100 -52 -186 -52c-117 0 -192 24 -236 75c-27 31 -33 56 -33 147v442h-97v17h300v-17h-104v-447c0 -90 6 -115 36 -145c36 -36 89 -54 158 -54c80 0 138 25 176 75c27 36 35 70 35 145v344
c0 70 -10 82 -68 82h-48v17h230v-17zM435 881l106 -158h-21l-121 98l-117 -98h-20l105 158h68z" />
    <glyph glyph-name="Yacute" unicode="&#xdd;" horiz-adv-x="595" 
d="M406 667h213v-17h-33c-41 0 -50 -8 -79 -69l-151 -317v-247h103v-17h-305v17h103v225l-192 408h-88v17h294v-17h-91l167 -363l121 254c22 45 30 69 30 84c0 17 -15 25 -49 25h-43v17zM329 723h-19l74 106c28 41 39 50 62 50s39 -13 39 -32c0 -15 -13 -31 -41 -49z" />
    <glyph glyph-name="Zcaron" unicode="&#x17d;" horiz-adv-x="610" 
d="M27 0l431 650h-127c-86 0 -149 -9 -188 -26c-37 -16 -60 -55 -60 -102v-39h-17v184h516l-432 -650h128c209 0 292 37 292 131v45h17v-193h-560zM339 723h-68l-105 158h20l117 -98l121 98h21z" />
    <glyph glyph-name="Ydieresis" unicode="&#x178;" horiz-adv-x="595" 
d="M406 667h213v-17h-33c-41 0 -50 -8 -79 -69l-151 -317v-247h103v-17h-305v17h103v225l-192 408h-88v17h294v-17h-91l167 -363l121 254c22 45 30 69 30 84c0 17 -15 25 -49 25h-43v17zM433 849c25 0 47 -22 47 -48s-22 -48 -48 -48c-27 0 -48 22 -48 48c0 27 22 48 49 48z
M245 849c25 0 47 -22 47 -48s-22 -48 -48 -48c-27 0 -48 22 -48 48c0 27 22 48 49 48z" />
    <glyph glyph-name="adieresis" unicode="&#xe4;" horiz-adv-x="488" 
d="M325 225v95c0 44 -11 60 -47 68c-13 3 -32 5 -52 5c-61 0 -105 -19 -105 -46c0 -6 3 -10 11 -16c16 -12 20 -20 20 -35c0 -25 -17 -43 -42 -43s-44 20 -44 47c0 60 71 109 158 109c50 0 96 -12 134 -36c35 -22 46 -40 46 -80v-172c2 -73 2 -73 4 -85c3 -14 11 -21 25 -21
c16 0 31 12 47 38l13 -7c-19 -36 -47 -53 -84 -53c-45 0 -74 23 -81 64c-26 -42 -80 -66 -150 -66c-88 0 -145 38 -145 97c0 42 36 88 85 105c50 19 131 32 201 32h6zM325 210h-7c-79 0 -142 -12 -169 -31c-19 -13 -27 -36 -27 -73c0 -67 22 -93 82 -93c54 0 103 27 121 67
v130zM331 587c25 0 45 -21 45 -45c0 -26 -20 -46 -46 -46c-25 0 -45 20 -45 46c0 25 21 45 46 45zM157 588c24 0 45 -21 45 -45c0 -26 -20 -46 -46 -46c-25 0 -45 20 -45 46c0 25 21 45 46 45z" />
    <glyph glyph-name="aacute" unicode="&#xe1;" horiz-adv-x="488" 
d="M325 225v95c0 44 -11 60 -47 68c-13 3 -32 5 -52 5c-61 0 -105 -19 -105 -46c0 -6 3 -10 11 -16c16 -12 20 -20 20 -35c0 -25 -17 -43 -42 -43s-44 20 -44 47c0 60 71 109 158 109c50 0 96 -12 134 -36c35 -22 46 -40 46 -80v-172c2 -73 2 -73 4 -85c3 -14 11 -21 25 -21
c16 0 31 12 47 38l13 -7c-19 -36 -47 -53 -84 -53c-45 0 -74 23 -81 64c-26 -42 -80 -66 -150 -66c-88 0 -145 38 -145 97c0 42 36 88 85 105c50 19 131 32 201 32h6zM325 210h-7c-79 0 -142 -12 -169 -31c-19 -13 -27 -36 -27 -73c0 -67 22 -93 82 -93c54 0 103 27 121 67
v130zM218 453h-20l62 118c33 62 41 71 69 71c22 0 39 -13 39 -31c0 -10 -8 -23 -31 -44z" />
    <glyph glyph-name="agrave" unicode="&#xe0;" horiz-adv-x="488" 
d="M325 225v95c0 44 -11 60 -47 68c-13 3 -32 5 -52 5c-61 0 -105 -19 -105 -46c0 -6 3 -10 11 -16c16 -12 20 -20 20 -35c0 -25 -17 -43 -42 -43s-44 20 -44 47c0 60 71 109 158 109c50 0 96 -12 134 -36c35 -22 46 -40 46 -80v-172c2 -73 2 -73 4 -85c3 -14 11 -21 25 -21
c16 0 31 12 47 38l13 -7c-19 -36 -47 -53 -84 -53c-45 0 -74 23 -81 64c-26 -42 -80 -66 -150 -66c-88 0 -145 38 -145 97c0 42 36 88 85 105c50 19 131 32 201 32h6zM325 210h-7c-79 0 -142 -12 -169 -31c-19 -13 -27 -36 -27 -73c0 -67 22 -93 82 -93c54 0 103 27 121 67
v130zM255 453l-119 114c-23 22 -31 34 -31 44c0 18 17 31 39 31c28 0 37 -9 69 -71l62 -118h-20z" />
    <glyph glyph-name="acircumflex" unicode="&#xe2;" horiz-adv-x="488" 
d="M325 225v95c0 44 -11 60 -47 68c-13 3 -32 5 -52 5c-61 0 -105 -19 -105 -46c0 -6 3 -10 11 -16c16 -12 20 -20 20 -35c0 -25 -17 -43 -42 -43s-44 20 -44 47c0 60 71 109 158 109c50 0 96 -12 134 -36c35 -22 46 -40 46 -80v-172c2 -73 2 -73 4 -85c3 -14 11 -21 25 -21
c16 0 31 12 47 38l13 -7c-19 -36 -47 -53 -84 -53c-45 0 -74 23 -81 64c-26 -42 -80 -66 -150 -66c-88 0 -145 38 -145 97c0 42 36 88 85 105c50 19 131 32 201 32h6zM325 210h-7c-79 0 -142 -12 -169 -31c-19 -13 -27 -36 -27 -73c0 -67 22 -93 82 -93c54 0 103 27 121 67
v130zM275 641l103 -188h-18l-119 122l-114 -122h-18l102 188h64z" />
    <glyph glyph-name="atilde" unicode="&#xe3;" horiz-adv-x="488" 
d="M325 225v95c0 44 -11 60 -47 68c-13 3 -32 5 -52 5c-61 0 -105 -19 -105 -46c0 -6 3 -10 11 -16c16 -12 20 -20 20 -35c0 -25 -17 -43 -42 -43s-44 20 -44 47c0 60 71 109 158 109c50 0 96 -12 134 -36c35 -22 46 -40 46 -80v-172c2 -73 2 -73 4 -85c3 -14 11 -21 25 -21
c16 0 31 12 47 38l13 -7c-19 -36 -47 -53 -84 -53c-45 0 -74 23 -81 64c-26 -42 -80 -66 -150 -66c-88 0 -145 38 -145 97c0 42 36 88 85 105c50 19 131 32 201 32h6zM325 210h-7c-79 0 -142 -12 -169 -31c-19 -13 -27 -36 -27 -73c0 -67 22 -93 82 -93c54 0 103 27 121 67
v130zM398 599h17c-20 -72 -55 -109 -102 -109c-20 0 -35 5 -101 34c-18 8 -36 13 -48 13c-23 0 -38 -15 -48 -49h-17c15 68 49 107 95 107c20 0 39 -5 78 -22c41 -19 58 -24 75 -24c22 0 33 11 51 50z" />
    <glyph glyph-name="aring" unicode="&#xe5;" horiz-adv-x="488" 
d="M325 225v95c0 44 -11 60 -47 68c-13 3 -32 5 -52 5c-61 0 -105 -19 -105 -46c0 -6 3 -10 11 -16c16 -12 20 -20 20 -35c0 -25 -17 -43 -42 -43s-44 20 -44 47c0 60 71 109 158 109c50 0 96 -12 134 -36c35 -22 46 -40 46 -80v-172c2 -73 2 -73 4 -85c3 -14 11 -21 25 -21
c16 0 31 12 47 38l13 -7c-19 -36 -47 -53 -84 -53c-45 0 -74 23 -81 64c-26 -42 -80 -66 -150 -66c-88 0 -145 38 -145 97c0 42 36 88 85 105c50 19 131 32 201 32h6zM325 210h-7c-79 0 -142 -12 -169 -31c-19 -13 -27 -36 -27 -73c0 -67 22 -93 82 -93c54 0 103 27 121 67
v130zM232 639c49 0 91 -42 91 -93s-42 -93 -93 -93c-52 0 -93 42 -93 94c0 51 42 92 95 92zM229 614c-36 0 -67 -31 -67 -68c0 -38 30 -68 68 -68s68 30 68 69c0 37 -31 67 -69 67z" />
    <glyph glyph-name="edieresis" unicode="&#xeb;" horiz-adv-x="440" 
d="M408 136l16 -3c-22 -89 -93 -146 -183 -146c-65 0 -116 24 -164 77c-30 33 -47 80 -47 128c0 49 21 103 58 147c38 46 87 70 139 70c66 0 129 -40 164 -102c13 -23 25 -56 25 -67c0 -5 -3 -6 -12 -6h-281c-2 -51 -2 -64 -2 -77c0 -65 5 -92 21 -114c20 -27 52 -40 95 -40
c53 0 99 20 133 59c19 21 24 32 38 74zM123 251h182c13 0 15 1 15 11c0 97 -26 133 -95 133c-44 0 -77 -20 -91 -55c-7 -17 -9 -34 -11 -89zM308 587c25 0 45 -21 45 -45c0 -26 -20 -46 -46 -46c-25 0 -45 20 -45 46c0 25 21 45 46 45zM134 588c24 0 45 -21 45 -45
c0 -26 -20 -46 -46 -46c-25 0 -45 20 -45 46c0 25 21 45 46 45z" />
    <glyph glyph-name="eacute" unicode="&#xe9;" horiz-adv-x="440" 
d="M408 136l16 -3c-22 -89 -93 -146 -183 -146c-65 0 -116 24 -164 77c-30 33 -47 80 -47 128c0 49 21 103 58 147c38 46 87 70 139 70c66 0 129 -40 164 -102c13 -23 25 -56 25 -67c0 -5 -3 -6 -12 -6h-281c-2 -51 -2 -64 -2 -77c0 -65 5 -92 21 -114c20 -27 52 -40 95 -40
c53 0 99 20 133 59c19 21 24 32 38 74zM123 251h182c13 0 15 1 15 11c0 97 -26 133 -95 133c-44 0 -77 -20 -91 -55c-7 -17 -9 -34 -11 -89zM215 453h-20l62 118c33 62 41 71 69 71c22 0 39 -13 39 -31c0 -10 -8 -23 -31 -44z" />
    <glyph glyph-name="egrave" unicode="&#xe8;" horiz-adv-x="440" 
d="M408 136l16 -3c-22 -89 -93 -146 -183 -146c-65 0 -116 24 -164 77c-30 33 -47 80 -47 128c0 49 21 103 58 147c38 46 87 70 139 70c66 0 129 -40 164 -102c13 -23 25 -56 25 -67c0 -5 -3 -6 -12 -6h-281c-2 -51 -2 -64 -2 -77c0 -65 5 -92 21 -114c20 -27 52 -40 95 -40
c53 0 99 20 133 59c19 21 24 32 38 74zM123 251h182c13 0 15 1 15 11c0 97 -26 133 -95 133c-44 0 -77 -20 -91 -55c-7 -17 -9 -34 -11 -89zM245 453l-119 114c-23 22 -31 34 -31 44c0 18 17 31 39 31c28 0 37 -9 69 -71l62 -118h-20z" />
    <glyph glyph-name="ecircumflex" unicode="&#xea;" horiz-adv-x="440" 
d="M408 136l16 -3c-22 -89 -93 -146 -183 -146c-65 0 -116 24 -164 77c-30 33 -47 80 -47 128c0 49 21 103 58 147c38 46 87 70 139 70c66 0 129 -40 164 -102c13 -23 25 -56 25 -67c0 -5 -3 -6 -12 -6h-281c-2 -51 -2 -64 -2 -77c0 -65 5 -92 21 -114c20 -27 52 -40 95 -40
c53 0 99 20 133 59c19 21 24 32 38 74zM123 251h182c13 0 15 1 15 11c0 97 -26 133 -95 133c-44 0 -77 -20 -91 -55c-7 -17 -9 -34 -11 -89zM252 641l103 -188h-18l-119 122l-114 -122h-18l102 188h64z" />
    <glyph glyph-name="idieresis" unicode="&#xef;" horiz-adv-x="258" 
d="M94 370h-76v17h95c37 0 49 6 62 30v-400h77v-17h-235v17h77v353zM203 587c25 0 45 -21 45 -45c0 -26 -20 -46 -46 -46c-25 0 -45 20 -45 46c0 25 21 45 46 45zM56 588c24 0 45 -21 45 -45c0 -26 -20 -46 -46 -46c-25 0 -45 20 -45 46c0 25 21 45 46 45z" />
    <glyph glyph-name="iacute" unicode="&#xed;" horiz-adv-x="258" 
d="M94 370h-76v17h95c37 0 49 6 62 30v-400h77v-17h-235v17h77v353zM124 453h-20l62 118c33 62 41 71 69 71c22 0 39 -13 39 -31c0 -10 -8 -23 -31 -44z" />
    <glyph glyph-name="igrave" unicode="&#xec;" horiz-adv-x="258" 
d="M94 370h-76v17h95c37 0 49 6 62 30v-400h77v-17h-235v17h77v353zM134 453l-119 114c-23 22 -31 34 -31 44c0 18 17 31 39 31c28 0 37 -9 69 -71l62 -118h-20z" />
    <glyph glyph-name="icircumflex" unicode="&#xee;" horiz-adv-x="258" 
d="M94 370h-76v17h95c37 0 49 6 62 30v-400h77v-17h-235v17h77v353zM161 641l103 -188h-18l-119 122l-114 -122h-18l102 188h64z" />
    <glyph glyph-name="ntilde" unicode="&#xf1;" horiz-adv-x="550" 
d="M174 414v-106c32 61 92 97 162 97c54 0 95 -17 118 -49c16 -21 20 -39 20 -81v-258h77v-17h-236v17h78v291c0 57 -19 80 -64 80c-67 0 -128 -45 -155 -113v-258h78v-17h-235v17h77v353h-77v17h95c36 0 50 6 62 27zM430 599h17c-20 -72 -55 -109 -102 -109
c-20 0 -35 5 -101 34c-18 8 -36 13 -48 13c-23 0 -38 -15 -48 -49h-17c15 68 49 107 95 107c20 0 39 -5 78 -22c41 -19 58 -24 75 -24c22 0 33 11 51 50z" />
    <glyph glyph-name="odieresis" unicode="&#xf6;" horiz-adv-x="493" 
d="M254 408c45 0 90 -18 131 -52c52 -43 78 -96 78 -157c0 -112 -100 -211 -213 -211c-114 0 -220 101 -220 208s111 212 224 212zM371 127v139c0 58 -4 75 -24 95c-21 21 -55 33 -95 33c-88 0 -129 -40 -129 -126v-139c0 -49 10 -81 33 -101c17 -15 58 -26 96 -26
c46 0 84 14 100 37c13 19 19 46 19 88zM334 587c25 0 45 -21 45 -45c0 -26 -20 -46 -46 -46c-25 0 -45 20 -45 46c0 25 21 45 46 45zM160 588c24 0 45 -21 45 -45c0 -26 -20 -46 -46 -46c-25 0 -45 20 -45 46c0 25 21 45 46 45z" />
    <glyph glyph-name="oacute" unicode="&#xf3;" horiz-adv-x="493" 
d="M254 408c45 0 90 -18 131 -52c52 -43 78 -96 78 -157c0 -112 -100 -211 -213 -211c-114 0 -220 101 -220 208s111 212 224 212zM371 127v139c0 58 -4 75 -24 95c-21 21 -55 33 -95 33c-88 0 -129 -40 -129 -126v-139c0 -49 10 -81 33 -101c17 -15 58 -26 96 -26
c46 0 84 14 100 37c13 19 19 46 19 88zM242 453h-20l62 118c33 62 41 71 69 71c22 0 39 -13 39 -31c0 -10 -8 -23 -31 -44z" />
    <glyph glyph-name="ograve" unicode="&#xf2;" horiz-adv-x="493" 
d="M254 408c45 0 90 -18 131 -52c52 -43 78 -96 78 -157c0 -112 -100 -211 -213 -211c-114 0 -220 101 -220 208s111 212 224 212zM371 127v139c0 58 -4 75 -24 95c-21 21 -55 33 -95 33c-88 0 -129 -40 -129 -126v-139c0 -49 10 -81 33 -101c17 -15 58 -26 96 -26
c46 0 84 14 100 37c13 19 19 46 19 88zM252 453l-119 114c-23 22 -31 34 -31 44c0 18 17 31 39 31c28 0 37 -9 69 -71l62 -118h-20z" />
    <glyph glyph-name="ocircumflex" unicode="&#xf4;" horiz-adv-x="493" 
d="M254 408c45 0 90 -18 131 -52c52 -43 78 -96 78 -157c0 -112 -100 -211 -213 -211c-114 0 -220 101 -220 208s111 212 224 212zM371 127v139c0 58 -4 75 -24 95c-21 21 -55 33 -95 33c-88 0 -129 -40 -129 -126v-139c0 -49 10 -81 33 -101c17 -15 58 -26 96 -26
c46 0 84 14 100 37c13 19 19 46 19 88zM278 641l103 -188h-18l-119 122l-114 -122h-18l102 188h64z" />
    <glyph glyph-name="otilde" unicode="&#xf5;" horiz-adv-x="493" 
d="M254 408c45 0 90 -18 131 -52c52 -43 78 -96 78 -157c0 -112 -100 -211 -213 -211c-114 0 -220 101 -220 208s111 212 224 212zM371 127v139c0 58 -4 75 -24 95c-21 21 -55 33 -95 33c-88 0 -129 -40 -129 -126v-139c0 -49 10 -81 33 -101c17 -15 58 -26 96 -26
c46 0 84 14 100 37c13 19 19 46 19 88zM401 599h17c-20 -72 -55 -109 -102 -109c-20 0 -35 5 -101 34c-18 8 -36 13 -48 13c-23 0 -38 -15 -48 -49h-17c15 68 49 107 95 107c20 0 39 -5 78 -22c41 -19 58 -24 75 -24c22 0 33 11 51 50z" />
    <glyph glyph-name="scaron" unicode="&#x161;" horiz-adv-x="374" 
d="M37 140h13c14 -84 71 -137 148 -137c67 0 109 36 109 92c0 51 -33 77 -95 77h-69c-59 0 -102 45 -102 108c0 79 53 129 136 129c37 0 68 -9 109 -30c3 -1 5 -2 6 -2c7 0 8 3 8 23v7h15l4 -116h-15c-9 68 -53 104 -127 104c-64 0 -106 -30 -106 -76c0 -44 38 -69 103 -69
h64c68 0 110 -44 110 -116c0 -87 -63 -146 -156 -146c-36 0 -56 6 -102 31c-12 7 -21 10 -27 10c-9 0 -13 -8 -13 -25v-8h-13v144zM219 453h-64l-102 188h18l114 -122l119 122h18z" />
    <glyph glyph-name="udieresis" unicode="&#xfc;" horiz-adv-x="543" 
d="M460 17h76v-17h-156v93c-33 -72 -84 -106 -161 -106c-49 0 -89 15 -115 42c-21 22 -27 43 -27 90v251h-77v17h109c28 0 35 4 50 26v-324c0 -60 19 -84 67 -84c81 0 154 71 154 151v214h-77v17h110c20 0 30 5 47 26v-396zM359 587c25 0 45 -21 45 -45
c0 -26 -20 -46 -46 -46c-25 0 -45 20 -45 46c0 25 21 45 46 45zM185 588c24 0 45 -21 45 -45c0 -26 -20 -46 -46 -46c-25 0 -45 20 -45 46c0 25 21 45 46 45z" />
    <glyph glyph-name="uacute" unicode="&#xfa;" horiz-adv-x="543" 
d="M460 17h76v-17h-156v93c-33 -72 -84 -106 -161 -106c-49 0 -89 15 -115 42c-21 22 -27 43 -27 90v251h-77v17h109c28 0 35 4 50 26v-324c0 -60 19 -84 67 -84c81 0 154 71 154 151v214h-77v17h110c20 0 30 5 47 26v-396zM266 453h-20l62 118c33 62 41 71 69 71
c22 0 39 -13 39 -31c0 -10 -8 -23 -31 -44z" />
    <glyph glyph-name="ugrave" unicode="&#xf9;" horiz-adv-x="543" 
d="M460 17h76v-17h-156v93c-33 -72 -84 -106 -161 -106c-49 0 -89 15 -115 42c-21 22 -27 43 -27 90v251h-77v17h109c28 0 35 4 50 26v-324c0 -60 19 -84 67 -84c81 0 154 71 154 151v214h-77v17h110c20 0 30 5 47 26v-396zM276 453l-119 114c-23 22 -31 34 -31 44
c0 18 17 31 39 31c28 0 37 -9 69 -71l62 -118h-20z" />
    <glyph glyph-name="ucircumflex" unicode="&#xfb;" horiz-adv-x="543" 
d="M460 17h76v-17h-156v93c-33 -72 -84 -106 -161 -106c-49 0 -89 15 -115 42c-21 22 -27 43 -27 90v251h-77v17h109c28 0 35 4 50 26v-324c0 -60 19 -84 67 -84c81 0 154 71 154 151v214h-77v17h110c20 0 30 5 47 26v-396zM303 641l103 -188h-18l-119 122l-114 -122h-18
l102 188h64z" />
    <glyph glyph-name="yacute" unicode="&#xfd;" horiz-adv-x="438" 
d="M-17 370v17h220v-17h-71l125 -290l80 197c11 29 19 55 19 66c0 19 -17 27 -55 27h-40v17h193v-17h-31c-16 0 -28 -6 -37 -18c-4 -5 -4 -5 -21 -46l-123 -302c-9 -22 -16 -45 -24 -84l-10 -43c-21 -93 -50 -132 -100 -132c-31 0 -54 21 -54 50c0 25 20 46 44 46
c27 0 44 -18 43 -46c0 -12 1 -15 6 -15c14 0 32 36 45 92l11 43c3 18 6 31 8 39c1 7 1 8 3 16l-173 400h-58zM214 453h-20l62 118c33 62 41 71 69 71c22 0 39 -13 39 -31c0 -10 -8 -23 -31 -44z" />
    <glyph glyph-name="zcaron" unicode="&#x17e;" horiz-adv-x="423" 
d="M75 241h-17v146h353l-276 -370h90c62 0 88 6 112 27c21 17 31 45 31 87v13h17v-144h-363l280 370h-76c-64 0 -89 -4 -110 -18c-26 -15 -41 -52 -41 -97v-14zM263 453h-64l-102 188h18l114 -122l119 122h18z" />
    <glyph glyph-name="ydieresis" unicode="&#xff;" horiz-adv-x="438" 
d="M-17 370v17h220v-17h-71l125 -290l80 197c11 29 19 55 19 66c0 19 -17 27 -55 27h-40v17h193v-17h-31c-16 0 -28 -6 -37 -18c-4 -5 -4 -5 -21 -46l-123 -302c-9 -22 -16 -45 -24 -84l-10 -43c-21 -93 -50 -132 -100 -132c-31 0 -54 21 -54 50c0 25 20 46 44 46
c27 0 44 -18 43 -46c0 -12 1 -15 6 -15c14 0 32 36 45 92l11 43c3 18 6 31 8 39c1 7 1 8 3 16l-173 400h-58zM326 587c25 0 45 -21 45 -45c0 -26 -20 -46 -46 -46c-25 0 -45 20 -45 46c0 25 21 45 46 45zM152 588c24 0 45 -21 45 -45c0 -26 -20 -46 -46 -46
c-25 0 -45 20 -45 46c0 25 21 45 46 45z" />
    <glyph glyph-name="Ccedilla" unicode="&#xc7;" horiz-adv-x="641" 
d="M585 11h-16c-2 28 -17 47 -35 47c-13 0 -20 -3 -45 -22c-43 -32 -76 -44 -135 -47l-49 -85c23 8 36 11 55 11c46 0 78 -25 78 -60c0 -41 -46 -71 -107 -71c-31 0 -63 8 -93 22l6 14c20 -10 47 -16 72 -16c33 0 57 21 57 50c0 26 -20 43 -49 43c-13 0 -17 -1 -36 -12l-8 7
l55 97c-169 7 -298 151 -298 331c0 92 32 185 86 247c61 71 141 110 224 110c53 0 96 -13 143 -44c30 -20 37 -23 48 -23c18 0 27 12 31 40h16c-2 -33 -3 -59 -3 -75c0 -12 1 -31 2 -56c1 -24 1 -43 1 -56v-15h-16c-4 55 -15 85 -45 124c-47 60 -106 90 -177 90
c-70 0 -121 -32 -153 -94c-29 -57 -46 -150 -46 -248c0 -209 67 -317 197 -317c83 0 160 48 200 123c16 32 23 63 24 112h16c-2 -52 -3 -90 -3 -118c0 -22 1 -61 3 -109z" />
    <glyph glyph-name="Eth" unicode="&#xd0;" horiz-adv-x="717" 
d="M17 667h246c118 0 136 -2 186 -16c143 -42 232 -165 232 -320c0 -129 -64 -240 -170 -293c-58 -30 -110 -38 -233 -38h-261v17h97v321h-89v17h89v295h-97v17zM213 338v-321c69 0 87 1 117 3c85 8 154 42 189 93s53 128 53 226c0 162 -65 264 -190 298
c-42 11 -68 13 -169 13v-295h146v-17h-146z" />
    <glyph glyph-name="Thorn" unicode="&#xde;" horiz-adv-x="615" 
d="M212 219v-202h102v-17h-297v17h97v633h-97v17h296v-17h-101v-77h83c81 0 125 -7 174 -27c75 -32 113 -84 113 -156c0 -112 -106 -189 -261 -189c-45 0 -73 5 -109 18zM212 556v-318c29 -15 51 -20 87 -20c60 0 112 20 144 55c25 27 35 58 35 105c0 76 -27 128 -81 156
c-29 15 -82 24 -143 24c-14 0 -23 0 -42 -2z" />
    <glyph glyph-name="ccedilla" unicode="&#xe7;" horiz-adv-x="416" 
d="M402 135h14c-10 -89 -79 -149 -171 -147l-48 -84c23 8 36 11 56 11c45 0 77 -25 77 -61c0 -41 -46 -71 -107 -71c-31 0 -63 8 -93 23l6 14c20 -11 48 -17 72 -17c33 0 57 21 57 51c0 25 -20 43 -49 43c-13 0 -18 -2 -36 -12l-8 7l55 96c-53 6 -86 17 -117 39
c-47 35 -80 94 -80 146c0 63 33 133 83 176c44 39 88 56 142 56c80 0 141 -39 141 -91c0 -25 -19 -45 -43 -45c-25 0 -45 21 -45 47c0 15 4 24 21 41c2 2 3 5 3 9c0 15 -28 24 -77 24c-103 0 -133 -40 -133 -180v-45c0 -121 31 -163 119 -163c87 0 145 48 161 133z" />
    <glyph glyph-name="eth" unicode="&#xf0;" horiz-adv-x="494" 
d="M30 665l5 10c62 -14 109 -32 166 -65l133 86l9 -15l-127 -81c158 -99 248 -241 248 -389c0 -65 -18 -111 -62 -156c-44 -46 -92 -67 -151 -67c-115 0 -220 100 -220 208c0 106 112 211 224 211c36 0 63 -8 101 -30c-26 77 -82 150 -161 209l-131 -85l-9 14l126 82
c-50 33 -94 53 -151 68zM124 262v-132c0 -91 37 -128 128 -128c46 0 83 14 101 37c14 18 19 42 19 91v139c0 49 -5 68 -22 88c-20 22 -55 35 -96 35s-80 -12 -102 -32c-21 -19 -28 -43 -28 -98z" />
    <glyph glyph-name="thorn" unicode="&#xfe;" horiz-adv-x="542" 
d="M165 77v-313h76v-17h-234v17h77v895h-77v17h96c36 0 52 7 62 26v-374c27 49 81 80 139 80c110 0 208 -98 208 -207c0 -116 -93 -215 -202 -215c-66 0 -114 30 -145 91zM420 162v68c0 65 -8 105 -25 127s-51 36 -87 36c-77 0 -143 -61 -143 -131v-115
c0 -80 67 -145 148 -145c38 0 69 15 86 43c16 24 21 54 21 117z" />
    <glyph glyph-name="onesuperior" unicode="&#xb9;" horiz-adv-x="353" 
d="M230 667v-384h61v-17h-187v17h62v307c0 10 0 10 -3 10c-11 0 -50 -16 -78 -32l-23 -14v20l26 15c70 41 89 54 113 78h29z" />
    <glyph glyph-name="twosuperior" unicode="&#xb2;" horiz-adv-x="353" 
d="M305 382h16c-10 -58 -11 -68 -17 -116h-286c12 35 44 69 131 137l16 12c52 42 76 87 76 147c0 54 -37 89 -93 89c-39 0 -69 -13 -86 -38c-8 -11 -12 -21 -12 -28s3 -10 9 -10c30 0 42 -9 42 -31c0 -19 -14 -32 -33 -32c-25 0 -42 21 -42 51c0 62 56 106 134 106
c88 0 148 -46 148 -114c0 -28 -11 -57 -32 -81c-20 -24 -20 -24 -99 -77l-12 -8c-41 -27 -64 -45 -88 -69h217c3 19 7 43 11 62z" />
    <glyph glyph-name="threesuperior" unicode="&#xb3;" horiz-adv-x="353" 
d="M71 483v15h45c62 0 89 5 106 20c14 11 23 37 23 67c0 44 -29 69 -80 69c-29 0 -56 -7 -72 -19c-7 -6 -14 -13 -14 -16c0 -2 1 -3 3 -3c1 0 2 0 5 1h1c16 0 29 -13 29 -29c0 -17 -13 -30 -30 -30c-20 0 -34 15 -34 36c0 45 47 75 115 75c82 0 136 -35 136 -89
c0 -23 -11 -46 -29 -62c-14 -12 -29 -18 -62 -27c76 -20 109 -52 109 -106c0 -69 -76 -122 -173 -122c-72 0 -124 32 -124 76c0 28 17 47 42 47c19 0 34 -15 34 -33c0 -15 -15 -32 -29 -32c-1 0 -6 1 -15 2h-2c-4 0 -5 -1 -5 -4c0 -20 50 -41 99 -41c73 0 108 33 108 102
c0 40 -13 69 -37 85c-23 15 -38 18 -102 18h-47z" />
    <glyph glyph-name="middot" unicode="&#xad;" horiz-adv-x="240" 
d="M120 246c25 0 46 -21 46 -46c0 -26 -21 -47 -47 -47c-25 0 -46 21 -46 47c0 25 21 46 47 46z" />
    <glyph glyph-name="sfthyphen" unicode="&#xb0;" horiz-adv-x="223" 
d="M0 176l19 48h204l-15 -48h-208z" />
    <glyph glyph-name="degree" unicode="&#x2212;" horiz-adv-x="385" 
d="M196 678c73 0 136 -63 136 -138c0 -78 -62 -141 -138 -141c-78 0 -141 62 -141 140s62 139 143 139zM190 647c-58 0 -107 -49 -107 -108c0 -60 49 -109 110 -109c60 0 109 49 109 107c0 62 -49 110 -112 110z" />
    <glyph glyph-name="minus" unicode="&#xd7;" horiz-adv-x="533" 
d="M500 348v-27h-467v27h467z" />
    <glyph glyph-name="multiply" unicode="&#xf7;" horiz-adv-x="533" 
d="M434 521l18 -19l-167 -167l177 -177l-19 -19l-177 177l-167 -168l-19 19l168 168l-177 176l19 19l176 -177z" />
    <glyph glyph-name="divide" unicode="&#x2122;" horiz-adv-x="533" 
d="M500 348v-27h-467v27h467zM267 224c19 0 36 -17 36 -37s-17 -37 -37 -37s-37 17 -37 37c0 21 17 37 38 37zM267 519c19 0 36 -17 36 -37s-17 -37 -37 -37c-21 0 -37 16 -37 37s17 37 38 37z" />
    <glyph glyph-name="trademark" unicode="&#xb1;" horiz-adv-x="947" 
d="M174 651h-7c-103 0 -124 -15 -124 -92v-11h-16l4 119h348l4 -119h-16v11c0 50 -8 72 -30 81c-17 7 -50 11 -85 11h-15v-348h60v-17h-184v17h61v348zM422 303h24c32 0 33 2 33 56v284l-4 7h-50v17h113l124 -276l117 276h115v-17h-53v-347h53v-17h-172v17h56v316l-141 -330
l-142 318v-247c2 -42 2 -42 4 -47c4 -7 15 -10 37 -10h20v-17h-134v17z" />
    <glyph glyph-name="plusminus" unicode="&#xbd;" horiz-adv-x="533" 
d="M500 348v-27h-221v-233h-26v233h-220v27h220v233h26v-233h221zM500 27v-27h-467v27h467z" />
    <glyph glyph-name="onehalf" unicode="&#xbc;" horiz-adv-x="813" 
d="M230 667v-384h61v-17h-187v17h62v307c0 10 0 10 -3 10c-11 0 -50 -16 -78 -32l-23 -14v20l26 15c70 41 89 54 113 78h29zM244 0h-30l355 667h30zM764 116h16c-10 -58 -11 -68 -17 -116h-286c12 35 45 69 131 137l16 12c53 42 76 87 76 146c0 54 -37 89 -93 89
c-39 0 -69 -13 -86 -38c-8 -11 -12 -21 -12 -28s3 -10 9 -10c30 0 42 -9 42 -31c0 -19 -14 -32 -33 -32c-25 0 -42 21 -42 51c0 62 56 106 134 106c88 0 148 -46 148 -113c0 -29 -11 -58 -32 -82c-20 -23 -23 -25 -99 -76l-12 -8c-39 -26 -65 -46 -88 -69h217
c1 10 3 21 5 31z" />
    <glyph glyph-name="onequarter" unicode="&#xbe;" horiz-adv-x="813" 
d="M230 667v-384h61v-17h-187v17h62v307c0 10 0 10 -3 10c-11 0 -50 -16 -78 -32l-23 -14v20l26 15c70 41 89 54 113 78h29zM244 0h-30l355 667h30zM783 186v-47h-63v-122h61v-17h-200v17h79v122h-183c-6 0 -8 1 -8 5c0 1 1 3 3 5l233 261h20l-198 -224h133v114h60v-114h63z
" />
    <glyph glyph-name="threequarters" unicode="&#xa9;" horiz-adv-x="813" 
d="M71 483v15h45c62 0 89 5 106 20c14 11 23 37 23 67c0 44 -29 69 -80 69c-29 0 -56 -7 -72 -19c-7 -6 -14 -13 -14 -16c0 -2 1 -3 3 -3c1 0 2 0 5 1h1c16 0 29 -13 29 -29c0 -17 -13 -30 -30 -30c-20 0 -34 15 -34 36c0 45 47 75 115 75c82 0 136 -35 136 -89
c0 -23 -11 -46 -29 -62c-14 -12 -29 -18 -62 -27c76 -20 109 -52 109 -106c0 -69 -76 -122 -173 -122c-72 0 -124 32 -124 76c0 28 17 47 42 47c19 0 34 -15 34 -33c0 -15 -15 -32 -29 -32c-1 0 -6 1 -15 2h-2c-4 0 -5 -1 -5 -4c0 -20 50 -41 99 -41c73 0 108 33 108 102
c0 40 -13 69 -37 85c-23 15 -38 18 -102 18h-47zM244 0h-30l355 667h30zM783 186v-47h-63v-122h61v-17h-200v17h79v122h-183c-6 0 -8 1 -8 5c0 1 1 3 3 5l233 261h20l-198 -224h133v114h60v-114h63z" />
    <glyph glyph-name="copyright" unicode="&#xae;" horiz-adv-x="767" 
d="M388 681c187 0 342 -158 342 -348c0 -191 -155 -347 -347 -347c-191 0 -347 156 -347 347c0 194 155 348 352 348zM379 666c-178 0 -326 -151 -326 -333c0 -183 148 -332 330 -332s330 149 330 332c0 186 -147 333 -334 333zM519 133v5c0 17 -6 30 -15 30
c-6 0 -7 -1 -25 -14c-28 -19 -56 -28 -94 -28c-108 0 -196 89 -196 200c0 118 89 214 198 214c41 0 60 -6 108 -36c5 -3 8 -4 12 -4c7 0 10 6 12 24h17v-126h-17c-2 33 -6 46 -20 67c-28 39 -66 60 -111 60c-77 0 -117 -69 -117 -200c0 -121 40 -184 116 -184
c55 0 108 37 125 88c4 13 7 30 7 51h17v-147h-17z" />
    <glyph glyph-name="registered" unicode="&#xa0;" horiz-adv-x="767" 
d="M388 681c187 0 342 -158 342 -348c0 -191 -155 -347 -347 -347c-191 0 -347 156 -347 347c0 194 155 348 352 348zM379 666c-178 0 -326 -151 -326 -333c0 -183 148 -332 330 -332s330 149 330 332c0 186 -147 333 -334 333zM311 334v-184h64v-17h-198v17h60v367h-60v16
h221c88 0 138 -35 138 -97c0 -50 -35 -81 -106 -94c67 -14 88 -38 94 -110l4 -42c3 -30 10 -42 24 -42c8 0 15 1 31 6l5 -15c-22 -8 -33 -10 -56 -10c-28 0 -46 6 -62 22c-16 15 -19 23 -23 59l-7 55c-6 55 -30 69 -111 69h-18zM311 517v-168h18c89 0 130 26 130 83
c0 28 -12 55 -31 68c-20 14 -39 17 -102 17h-15z" />
    <glyph glyph-name="nbspace" unicode="&#xac;" horiz-adv-x="250" 
 />
    <glyph glyph-name="logicalnot" unicode="&#xa6;" 
d="M433 0v237h-400v30h433v-267h-33z" />
    <glyph glyph-name="brokenbar" unicode="&#xb5;" 
d="M233 667h33v-324h-33v324zM233 153h33v-320h-33v320z" />
    <glyph glyph-name="mu" 
d="M60 -164v642h33v-283c0 -80 11 -114 47 -146c26 -23 62 -36 100 -36c97 0 162 79 162 195v270h33v-478h-32v106c-39 -86 -87 -121 -164 -121c-65 0 -109 25 -146 83v-232h-33z" />
    </font>
</defs>
</svg>
